<svg width="37" height="37" viewBox="0 0 37 37" fill="none" xmlns="http://www.w3.org/2000/svg">
<path d="M27.8323 14.1815C28.9107 13.8617 29.9475 14.3545 29.9475 14.3545L30.7586 17.5023C30.7586 17.5023 29.9973 17.0358 29.2443 17.2988C27.6607 17.8525 27.8711 20.1545 27.8711 22.6808C27.8711 26.277 27.8517 29.6131 26.1602 29.6131C22.784 29.6131 19.9726 13.6569 19.2279 13.6569C18.897 13.6569 19.5172 17.1438 20.0459 20.8549L20.0508 20.8889C20.6598 25.1669 21.2935 29.6186 19.3261 29.6186C17.6733 29.6186 16.3043 26.1538 15.1817 23.0296L15.1634 22.9786C14.2529 20.442 13.4272 18.1418 13.1233 18.1418C12.5447 18.1418 15.5222 29.6144 12.6029 29.6144C11.2491 29.6144 10.5348 27.5187 9.8219 25.4935C9.10902 23.4684 8.59823 21.6786 8.36152 21.7076C8.01685 21.7505 9.48968 27.6308 8.92906 29.0151C8.76295 29.4234 8.43489 29.5826 8.01961 29.6034H6V28.4503H7.23336C7.85489 28.4503 7.72615 27.671 7.70954 27.2557C7.64172 25.6015 6.16888 19.6714 7.82167 19.4056C10.0032 19.0554 11.4733 26.6785 12.0727 26.6591C12.8022 26.6355 9.3305 14.1441 12.0256 13.7136C14.7207 13.2831 17.3508 24.6201 18.1523 24.6187C18.6008 24.6187 17.8159 20.7788 17.1376 16.6773C16.3888 12.1522 15.7949 7.32117 17.708 7.0194C19.8646 6.67749 21.0592 10.9147 22.4407 14.994C23.8222 19.0734 24.8548 22.9908 25.1829 22.9908C25.5109 22.9908 24.6721 18.7398 25.6411 16.3021C26.1435 15.0314 27.0267 14.4196 27.8323 14.1815Z" fill="white"/>
</svg>
