<svg width="72" height="72" viewBox="0 0 72 72" fill="none" xmlns="http://www.w3.org/2000/svg">
<mask id="mask0_2315_2649" style="mask-type:alpha" maskUnits="userSpaceOnUse" x="0" y="0" width="72" height="72">
<rect x="0.5" y="0.5" width="71" height="71" rx="18.5" fill="#009EFF" stroke="#F4F5FA"/>
</mask>
<g mask="url(#mask0_2315_2649)">
<rect width="136" height="90" transform="matrix(-1 0 0 1 108 -12)" fill="#FF3951"/>
<path fill-rule="evenodd" clip-rule="evenodd" d="M32.13 48.3616V48.3618H23.7698C18.8476 48.3618 14.8574 44.3716 14.8574 39.4495C14.8574 35.1086 18.1658 31.5404 22.3987 31.1288C22.697 26.7827 26.3171 23.3496 30.739 23.3496H31.0151C33.3937 23.3496 35.5478 24.3113 37.1097 25.867C39.2037 24.2867 41.8104 23.3496 44.636 23.3496H45.2639C51.824 23.3496 57.142 28.6676 57.142 35.2277C57.142 42.4813 51.2617 48.3616 44.0081 48.3616H32.13Z" fill="white"/>
</g>
</svg>
