<svg width="37" height="37" viewBox="0 0 37 37" fill="none" xmlns="http://www.w3.org/2000/svg">
<path d="M21.3407 20.9134C20.9615 20.5645 20.516 20.2952 20.0308 20.1215C19.5456 19.9478 19.0305 19.8733 18.5159 19.9023C18.0067 19.8776 17.4976 19.9543 17.0182 20.1278C16.5388 20.3014 16.0986 20.5684 15.7232 20.9134C15.4246 21.2089 15.2423 21.602 15.2096 22.0208C15.1083 22.9919 15.1083 23.9709 15.2096 24.9419C15.3059 26.1296 15.4985 27.7025 15.7553 29.3075C15.8561 30.0497 16.0062 30.7842 16.2047 31.5064C16.3829 31.944 16.6982 32.3121 17.1034 32.5552C17.5086 32.7983 17.9817 32.9034 18.4517 32.8546C18.9239 32.9043 19.3996 32.7999 19.8075 32.5569C20.2154 32.3139 20.5337 31.9453 20.7148 31.5064C20.9133 30.7842 21.0634 30.0497 21.1642 29.3075C21.4049 27.7025 21.5975 26.0975 21.6938 24.9419C21.7951 23.9709 21.7951 22.9919 21.6938 22.0208C21.7058 21.6222 21.5812 21.2315 21.3407 20.9134V20.9134ZM15.4022 15.4725C15.4022 16.1073 15.5905 16.728 15.9432 17.2558C16.2959 17.7837 16.7973 18.1951 17.3838 18.4381C17.9704 18.6811 18.6158 18.7446 19.2385 18.6208C19.8611 18.4969 20.4331 18.1912 20.882 17.7423C21.331 17.2933 21.6367 16.7214 21.7605 16.0987C21.8844 15.476 21.8208 14.8306 21.5779 14.244C21.3349 13.6575 20.9235 13.1562 20.3956 12.8034C19.8677 12.4507 19.2471 12.2625 18.6122 12.2625C17.7609 12.2625 16.9444 12.6007 16.3424 13.2026C15.7404 13.8046 15.4022 14.6211 15.4022 15.4725ZM18.5159 3.00162C15.3166 3.01632 12.2253 4.16024 9.78705 6.23164C7.34882 8.30305 5.72033 11.1689 5.18876 14.3237C4.65719 17.4786 5.2567 20.7198 6.88155 23.4758C8.50641 26.2318 11.0522 28.3256 14.0701 29.3878C14.1004 29.3959 14.1323 29.3964 14.1629 29.3893C14.1935 29.3822 14.2219 29.3678 14.2457 29.3472C14.2694 29.3266 14.2878 29.3006 14.2991 29.2713C14.3105 29.242 14.3145 29.2103 14.3108 29.1791C14.2306 28.7137 14.1664 28.2482 14.1022 27.7988C14.0958 27.7179 14.0669 27.6404 14.0186 27.5752C13.9704 27.5099 13.9048 27.4595 13.8293 27.4297C11.3432 26.3261 9.31269 24.4005 8.07888 21.9764C6.84507 19.5523 6.48316 16.7774 7.05396 14.1179C7.62476 11.4584 9.09348 9.07643 11.2134 7.37211C13.3333 5.66779 15.9751 4.74501 18.6951 4.75879C21.4151 4.77258 24.0475 5.72209 26.15 7.4478C28.2525 9.17351 29.697 11.5703 30.2409 14.2354C30.7847 16.9005 30.3947 19.6716 29.1363 22.0831C27.878 24.4946 25.8281 26.3995 23.3309 27.4778C23.2554 27.5077 23.1898 27.5581 23.1416 27.6233C23.0934 27.6886 23.0644 27.7661 23.0581 27.847C23.0581 28.2964 22.9297 28.7618 22.8494 29.2273C22.8458 29.2585 22.8498 29.2901 22.8611 29.3194C22.8725 29.3487 22.8908 29.3748 22.9146 29.3953C22.9383 29.4159 22.9667 29.4304 22.9973 29.4375C23.0279 29.4445 23.0598 29.444 23.0902 29.4359C26.1542 28.3958 28.7461 26.2957 30.3988 23.5139C32.0516 20.7321 32.6566 17.4515 32.1049 14.2631C31.5532 11.0747 29.881 8.18816 27.3896 6.12347C24.8982 4.05878 21.7513 2.95168 18.5159 3.00162V3.00162ZM18.2752 9.22901C19.7732 9.17011 21.2533 9.57062 22.5172 10.3768C23.7811 11.1831 24.7683 12.3565 25.3464 13.7397C25.9245 15.1229 26.0658 16.6498 25.7515 18.1156C25.4371 19.5814 24.6821 20.9161 23.5877 21.9406C23.53 22.0001 23.4847 22.0704 23.4544 22.1476C23.4241 22.2247 23.4094 22.3071 23.4112 22.39C23.4458 22.9244 23.4458 23.4606 23.4112 23.995C23.4122 24.0283 23.4219 24.0607 23.4393 24.0891C23.4566 24.1175 23.481 24.141 23.5101 24.1571C23.5392 24.1733 23.572 24.1816 23.6053 24.1814C23.6386 24.1811 23.6713 24.1722 23.7001 24.1555C25.3087 23.0608 26.524 21.4794 27.1678 19.6432C27.8117 17.8071 27.85 15.8129 27.2773 13.9534C26.7046 12.0939 25.551 10.4668 23.9857 9.31109C22.4204 8.15533 20.5259 7.5317 18.5801 7.5317C16.6344 7.5317 14.7399 8.15533 13.1746 9.31109C11.6093 10.4668 10.4557 12.0939 9.88293 13.9534C9.31022 15.8129 9.34858 17.8071 9.9924 19.6432C10.6362 21.4794 11.8516 23.0608 13.4602 24.1555C13.4877 24.1735 13.5198 24.1835 13.5527 24.1843C13.5856 24.1851 13.6181 24.1767 13.6465 24.16C13.6748 24.1433 13.698 24.119 13.7133 24.0899C13.7286 24.0607 13.7354 24.0278 13.733 23.995C13.733 23.4493 13.733 22.9517 13.733 22.39C13.7413 22.3065 13.7296 22.2221 13.6989 22.144C13.6682 22.0659 13.6194 21.9962 13.5565 21.9406C12.5017 20.9417 11.7658 19.6532 11.4413 18.2371C11.1168 16.821 11.2183 15.3407 11.7329 13.9821C12.2475 12.6236 13.1523 11.4475 14.3335 10.6018C15.5147 9.75605 16.9196 9.27844 18.3715 9.22901H18.2752Z" fill="white"/>
</svg>
