<svg width="37" height="37" viewBox="0 0 37 37" fill="none" xmlns="http://www.w3.org/2000/svg">
<path d="M15.7229 17.347C15.7229 17.347 18.4386 17.1453 18.4386 13.9608C18.4386 10.7761 16.2168 9.22186 13.4025 9.22186H4.1416V27.0187H13.4025C13.4025 27.0187 19.0559 27.1973 19.0559 21.7659C19.0559 21.7659 19.3024 17.347 15.7229 17.347V17.347ZM12.7359 12.385H13.4025C13.4025 12.385 14.6613 12.385 14.6613 14.2367C14.6613 16.0882 13.921 16.3566 13.0813 16.3566H8.22206V12.385H12.7359V12.385ZM13.1408 23.8556H8.22206V19.0996H13.4025C13.4025 19.0996 15.2787 19.075 15.2787 21.5437C15.2787 23.6254 13.8773 23.8399 13.1408 23.8556V23.8556ZM26.5957 13.7499C19.7516 13.7499 19.7577 20.588 19.7577 20.588C19.7577 20.588 19.2881 27.3909 26.5957 27.3909C26.5957 27.3909 32.6853 27.7388 32.6853 22.6585H29.5535C29.5535 22.6585 29.658 24.5717 26.7002 24.5717C26.7002 24.5717 23.5679 24.7816 23.5679 21.4754H32.7898C32.7898 21.4754 33.7988 13.7499 26.5957 13.7499ZM23.5335 19.0996C23.5335 19.0996 23.9159 16.3566 26.6653 16.3566C29.4142 16.3566 29.3797 19.0996 29.3797 19.0996H23.5335ZM30.1093 12.4619H22.7667V10.2703H30.1093V12.4619Z" fill="white"/>
</svg>
