<svg width="60" height="60" viewBox="0 0 60 60" fill="none" xmlns="http://www.w3.org/2000/svg">
<g clip-path="url(#clip0)">
<rect width="60" height="60" fill="white"/>
<rect width="60" height="60" fill="#FFF8E7"/>
<g filter="url(#filter0_d)">
<path d="M34.1489 28.9768L27.1802 23.5254L15.9961 37.5193L17.7387 44.0948L24.2576 43.1394L34.1489 28.9768Z" fill="#C4C4C4"/>
<path d="M38.3633 24.6488L30.7764 18.7477L33.2492 15.7129L41.0049 21.4453L38.3633 24.6488Z" fill="#C4C4C4"/>
</g>
<path opacity="0.4" d="M43.9877 42.168H34.0228C33.0505 42.168 32.2598 42.9712 32.2598 43.9589C32.2598 44.9484 33.0505 45.7498 34.0228 45.7498H43.9877C44.96 45.7498 45.7507 44.9484 45.7507 43.9589C45.7507 42.9712 44.96 42.168 43.9877 42.168" fill="#FFC226"/>
<path d="M27.0408 21.0816L36.4835 28.7117C36.7113 28.8942 36.7502 29.229 36.5724 29.4623L25.3778 44.0492C24.6741 44.9503 23.637 45.4601 22.5259 45.4789L16.4147 45.5541C16.0887 45.5579 15.8036 45.3321 15.7295 45.0086L14.3406 38.9699C14.0998 37.86 14.3406 36.7125 15.0443 35.8283L26.2945 21.1719C26.476 20.9367 26.8112 20.8953 27.0408 21.0816" fill="#FFC226"/>
<path d="M40.7103 24.1645L38.8899 26.437C38.7065 26.6684 38.3769 26.706 38.1491 26.5217C35.9361 24.7308 30.2693 20.135 28.6971 18.8614C28.4675 18.6733 28.436 18.3384 28.6212 18.1052L30.3768 15.9249C31.9694 13.8743 34.7472 13.6862 36.988 15.4734L39.5621 17.5239C40.6177 18.3516 41.3214 19.4427 41.5621 20.5902C41.8399 21.8525 41.5436 23.0922 40.7103 24.1645" fill="#FFDF8A"/>
</g>
<defs>
<filter id="filter0_d" x="3.06609" y="6.73289" width="50.8688" height="54.2419" filterUnits="userSpaceOnUse" color-interpolation-filters="sRGB">
<feFlood flood-opacity="0" result="BackgroundImageFix"/>
<feColorMatrix in="SourceAlpha" type="matrix" values="0 0 0 0 0 0 0 0 0 0 0 0 0 0 0 0 0 0 127 0"/>
<feOffset dy="3.95"/>
<feGaussianBlur stdDeviation="6.465"/>
<feColorMatrix type="matrix" values="0 0 0 0 1 0 0 0 0 0.760784 0 0 0 0 0.14902 0 0 0 0.47 0"/>
<feBlend mode="normal" in2="BackgroundImageFix" result="effect1_dropShadow"/>
<feBlend mode="normal" in="SourceGraphic" in2="effect1_dropShadow" result="shape"/>
</filter>
<clipPath id="clip0">
<rect width="60" height="60" fill="white"/>
</clipPath>
</defs>
</svg>
