<svg width="73" height="73" viewBox="0 0 73 73" fill="none" xmlns="http://www.w3.org/2000/svg">
<mask id="mask0_2315_2625" style="mask-type:alpha" maskUnits="userSpaceOnUse" x="0" y="0" width="73" height="73">
<path d="M53.5 1H19.5C9.28273 1 1 9.28273 1 19.5V53.5C1 63.7173 9.28273 72 19.5 72H53.5C63.7173 72 72 63.7173 72 53.5V19.5C72 9.28273 63.7173 1 53.5 1Z" fill="#009EFF" stroke="#F4F5FA"/>
</mask>
<g mask="url(#mask0_2315_2625)">
<path d="M-27.5 -11.5H108.5V78.5H-27.5V-11.5Z" fill="#46DF83"/>
<path fill-rule="evenodd" clip-rule="evenodd" d="M36.3594 30.75L42.2505 36.6411L36.6413 42.2503L30.7501 36.3592L36.3594 30.75ZM30.3193 24.7099L26.6258 21.0164C26.4152 20.8057 26.4152 20.4641 26.6258 20.2535L31.9029 14.9764C32.1136 14.7657 32.4552 14.7657 32.6659 14.9764L50.7065 33.017C52.708 35.0185 52.708 38.2636 50.7065 40.2651L42.6813 48.2903L46.3748 51.9838C46.5855 52.1945 46.5855 52.5361 46.3748 52.7468L41.0977 58.0239C40.887 58.2346 40.5454 58.2346 40.3347 58.0239L22.2941 39.9832C20.2926 37.9817 20.2926 34.7367 22.2941 32.7352L30.3193 24.7099Z" fill="white"/>
</g>
</svg>
