<svg width="31" height="34" viewBox="0 0 31 34" fill="none" xmlns="http://www.w3.org/2000/svg">
<path fill-rule="evenodd" clip-rule="evenodd" d="M22.7985 1.30665L22.8002 2.58101C27.4831 2.94803 30.5765 6.13903 30.5815 11.0326L30.6 25.3564C30.6067 30.6917 27.2548 33.9745 21.8821 33.983L8.7582 34C3.41903 34.0068 0.0251882 30.6459 0.0184743 25.2952L1.13046e-05 11.1396C-0.00670252 6.21379 2.97759 3.03129 7.66049 2.6014L7.65881 1.32704C7.65713 0.579414 8.21102 0.0169953 8.94955 0.0169953C9.68807 0.0152962 10.242 0.576015 10.2436 1.32364L10.2453 2.51305L20.2154 2.49945L20.2137 1.31005C20.212 0.562422 20.7659 0.001703 21.5044 3.85133e-06C22.2261 -0.0016953 22.7968 0.559024 22.7985 1.30665ZM2.58606 11.6646L27.9979 11.6306V11.0359C27.9257 7.38275 26.0929 5.46611 22.8031 5.18065L22.8048 6.489C22.8048 7.21963 22.2358 7.79904 21.514 7.79904C20.7755 7.80074 20.2199 7.22303 20.2199 6.4924L20.2183 5.11609L10.2482 5.12968L10.2499 6.50429C10.2499 7.23662 9.69769 7.81433 8.95916 7.81433C8.22064 7.81603 7.66507 7.24002 7.66507 6.50769L7.6634 5.19934C4.3904 5.52728 2.57935 7.45072 2.58438 11.1362L2.58606 11.6646ZM20.8067 19.3873V19.406C20.8235 20.1876 21.4613 20.7806 22.235 20.7636C22.9903 20.7449 23.5929 20.0976 23.5761 19.316C23.5409 18.5683 22.9349 17.9583 22.1813 17.96C21.4092 17.977 20.805 18.6057 20.8067 19.3873ZM22.1976 27.0163C21.4255 26.9993 20.8028 26.3553 20.8011 25.5737C20.7843 24.7921 21.4036 24.1447 22.1757 24.126H22.1925C22.9814 24.126 23.6209 24.77 23.6209 25.5686C23.6226 26.3672 22.9847 27.0146 22.1976 27.0163ZM13.8962 19.4144C13.9298 20.196 14.5693 20.806 15.3414 20.772C16.0967 20.7363 16.6993 20.0906 16.6657 19.309C16.6472 18.5444 16.0262 17.9497 15.2709 17.9514C14.4988 17.9854 13.8946 18.6328 13.8962 19.4144ZM15.3414 26.9401C14.5693 26.9741 13.9315 26.3641 13.8962 25.5825C13.8962 24.8009 14.4988 24.1552 15.2709 24.1195C16.0262 24.1178 16.6489 24.7125 16.6657 25.4754C16.7009 26.2587 16.0967 26.9044 15.3414 26.9401ZM6.97989 19.4737C7.01346 20.2553 7.65295 20.867 8.42504 20.8313C9.18035 20.7973 9.78292 20.15 9.74767 19.3683C9.73088 18.6037 9.10985 18.009 8.35287 18.0107C7.58078 18.0447 6.97821 18.6921 6.97989 19.4737ZM8.43285 26.9486C7.66076 26.9843 7.02294 26.3726 6.9877 25.591C6.98602 24.8094 7.59026 24.162 8.36235 24.1281C9.11766 24.1264 9.74037 24.7211 9.75715 25.4857C9.7924 26.2673 9.18983 26.9147 8.43285 26.9486Z" fill="#6E7191"/>
</svg>
