<svg width="60" height="60" viewBox="0 0 60 60" fill="none" xmlns="http://www.w3.org/2000/svg">
<rect width="60" height="60" fill="white"/>
<rect width="60" height="60" fill="#FFF8E7"/>
<g filter="url(#filter0_d)">
<path fill-rule="evenodd" clip-rule="evenodd" d="M34.0324 23.2019C34.0324 27.7551 30.3066 31.4039 25.6572 31.4039C21.0096 31.4039 17.282 27.7551 17.282 23.2019C17.282 18.6488 21.0096 15 25.6572 15C30.3066 15 34.0324 18.6488 34.0324 23.2019ZM13 40.691C13 36.4762 18.8306 35.4216 25.6572 35.4216C32.5208 35.4216 38.3144 36.5125 38.3144 40.7306C38.3144 44.9455 32.4837 46 25.6572 46C18.7936 46 13 44.9091 13 40.691ZM37.4098 23.3506C37.4098 25.6693 36.6986 27.8328 35.4516 29.63C35.3218 29.8148 35.4364 30.064 35.6622 30.1036C35.9757 30.1548 36.2975 30.1861 36.6262 30.1927C39.8954 30.2769 42.8292 28.2157 43.6398 25.1115C44.8413 20.5055 41.3159 16.3699 36.825 16.3699C36.338 16.3699 35.8712 16.4194 35.4162 16.5102C35.3539 16.5234 35.2865 16.5531 35.2528 16.6059C35.2089 16.6736 35.241 16.761 35.2848 16.8188C36.6346 18.6721 37.4098 20.928 37.4098 23.3506ZM42.8242 33.4317C45.0217 33.8526 46.4658 34.7091 47.0641 35.9583C47.5713 36.9815 47.5713 38.1697 47.0641 39.1929C46.149 41.127 43.1966 41.7492 42.0491 41.9093C41.8114 41.9423 41.621 41.7442 41.6463 41.5099C42.2327 36.1498 37.5699 33.6083 36.3633 33.0241C36.3128 32.9961 36.301 32.9565 36.306 32.9301C36.3094 32.9136 36.3313 32.8871 36.3701 32.8822C38.9804 32.8327 41.7879 33.1842 42.8242 33.4317Z" fill="#FFC226" fill-opacity="0.01"/>
</g>
<path fill-rule="evenodd" clip-rule="evenodd" d="M34.0324 23.2019C34.0324 27.7551 30.3066 31.4039 25.6572 31.4039C21.0096 31.4039 17.282 27.7551 17.282 23.2019C17.282 18.6488 21.0096 15 25.6572 15C30.3066 15 34.0324 18.6488 34.0324 23.2019ZM13 40.691C13 36.4762 18.8306 35.4216 25.6572 35.4216C32.5208 35.4216 38.3144 36.5125 38.3144 40.7306C38.3144 44.9455 32.4837 46 25.6572 46C18.7936 46 13 44.9091 13 40.691ZM37.4098 23.3506C37.4098 25.6693 36.6986 27.8328 35.4516 29.63C35.3218 29.8148 35.4364 30.064 35.6622 30.1036C35.9757 30.1548 36.2975 30.1861 36.6262 30.1927C39.8954 30.2769 42.8292 28.2157 43.6398 25.1115C44.8413 20.5055 41.3159 16.3699 36.825 16.3699C36.338 16.3699 35.8712 16.4194 35.4162 16.5102C35.3539 16.5234 35.2865 16.5531 35.2528 16.6059C35.2089 16.6736 35.241 16.761 35.2848 16.8188C36.6346 18.6721 37.4098 20.928 37.4098 23.3506ZM42.8242 33.4317C45.0217 33.8526 46.4658 34.7091 47.0641 35.9583C47.5713 36.9815 47.5713 38.1697 47.0641 39.1929C46.149 41.127 43.1966 41.7492 42.0491 41.9093C41.8114 41.9423 41.621 41.7442 41.6463 41.5099C42.2327 36.1498 37.5699 33.6083 36.3633 33.0241C36.3128 32.9961 36.301 32.9565 36.306 32.9301C36.3094 32.9136 36.3313 32.8871 36.3701 32.8822C38.9804 32.8327 41.7879 33.1842 42.8242 33.4317Z" fill="#FFC226"/>
<defs>
<filter id="filter0_d" x="5" y="9" width="50.4445" height="47" filterUnits="userSpaceOnUse" color-interpolation-filters="sRGB">
<feFlood flood-opacity="0" result="BackgroundImageFix"/>
<feColorMatrix in="SourceAlpha" type="matrix" values="0 0 0 0 0 0 0 0 0 0 0 0 0 0 0 0 0 0 127 0"/>
<feOffset dy="2"/>
<feGaussianBlur stdDeviation="4"/>
<feColorMatrix type="matrix" values="0 0 0 0 1 0 0 0 0 0.760784 0 0 0 0 0.14902 0 0 0 0.53 0"/>
<feBlend mode="normal" in2="BackgroundImageFix" result="effect1_dropShadow"/>
<feBlend mode="normal" in="SourceGraphic" in2="effect1_dropShadow" result="shape"/>
</filter>
</defs>
</svg>
