<svg width="36" height="36" viewBox="0 0 36 36" fill="none" xmlns="http://www.w3.org/2000/svg">
<path d="M12.6017 18.099C12.6017 21.3033 14.1526 25.6049 18.3518 25.6049C21.0759 25.6049 22.9649 23.7812 24.1845 21.5388C24.679 20.6298 25.0634 19.6519 25.3488 18.6989C25.8479 17.0326 26.7927 15.4769 27.8623 15.1727C28.5002 14.9912 27.8623 15.6982 27.5808 17.3387C26.7623 22.1097 24.3142 28.3849 17.4008 28.3849C12.192 28.3849 8.49023 24.0686 8.49023 18.6989C8.49023 13.1096 12.4846 6.59863 17.869 6.59863C21.2342 6.59863 22.8291 9.42251 22.8291 10.9295C22.8291 11.7343 22.5803 13.4901 20.7514 13.4901C18.1616 13.4901 20.4441 8.52999 17.8544 8.52999C15.7913 8.52999 12.6017 12.7 12.6017 18.099Z" fill="#068179"/>
</svg>
