<svg width="37" height="37" viewBox="0 0 37 37" fill="none" xmlns="http://www.w3.org/2000/svg">
<path fill-rule="evenodd" clip-rule="evenodd" d="M9.04975 26.882C6.86749 24.4088 5.77637 21.5511 5.77637 18.3089C5.77637 18.2258 5.78157 18.1218 5.79195 17.9971C5.80237 17.8724 5.80754 17.7685 5.80754 17.6854C6.20244 17.7062 6.80514 17.7166 7.6157 17.7166C11.7724 17.7166 15.6381 17.145 19.2128 16.0019C19.5038 16.5839 19.8051 17.2386 20.1169 17.966C18.0593 18.4232 15.9498 19.5351 13.7884 21.3017C11.6269 23.0683 10.0474 24.9284 9.04975 26.882ZM8.20802 15.1602C7.31436 15.1602 6.63889 15.1394 6.18164 15.0979C6.65968 13.3105 7.48582 11.679 8.66006 10.2034C9.83433 8.72777 11.2424 7.5743 12.8843 6.74295C14.7756 8.61346 16.511 10.9516 18.0905 13.7573C14.973 14.6926 11.6789 15.1602 8.20802 15.1602ZM18.7764 31.3089C15.8251 31.3089 13.1753 30.3944 10.8267 28.5655C11.762 26.7158 13.2012 24.9492 15.1445 23.2657C17.0877 21.5823 19.0154 20.5327 20.9274 20.1171C22.1329 23.4424 22.9434 26.882 23.3591 30.436C21.8419 31.0179 20.3144 31.3089 18.7764 31.3089ZM20.678 12.8221C19.1193 9.99554 17.4255 7.63665 15.5965 5.74535C16.6565 5.45439 17.7164 5.3089 18.7764 5.3089C21.8939 5.3089 24.6581 6.3065 27.0689 8.3017C25.6349 10.1307 23.5046 11.6374 20.678 12.8221ZM22.8603 17.5607C22.4654 16.5423 22.1121 15.7006 21.8003 15.0355C25.0218 13.6223 27.308 11.9076 28.6589 9.89163C30.5294 12.0947 31.5478 14.6094 31.714 17.436C30.4463 17.3736 29.1681 17.3425 27.8795 17.3425C26.0713 17.3425 24.3983 17.4152 22.8603 17.5607ZM25.7908 29.2202C25.4167 25.978 24.6996 22.8189 23.6397 19.743C25.0945 19.639 26.3935 19.5871 27.5366 19.5871C28.7836 19.5871 30.1657 19.639 31.6828 19.743C31.475 21.6758 30.8515 23.4736 29.8123 25.1362C28.7732 26.7989 27.4327 28.1602 25.7908 29.2202Z" fill="white"/>
</svg>
