<svg width="32" height="32" viewBox="0 0 32 32" fill="none" xmlns="http://www.w3.org/2000/svg">
<g clip-path="url(#clip0)">
<g filter="url(#filter0_d)">
<path d="M8.38921 11.468C5.55033 13.001 1.11602 17.302 6.08975 22.2417C7.89244 24.0586 13.5078 25.6399 21.5476 17.4297" stroke="#FF0000" stroke-opacity="0.01" stroke-width="2.358"/>
</g>
<g filter="url(#filter1_d)">
<path d="M24.7524 22.5721C27.5913 21.0391 32.0256 16.7382 27.0519 11.7985C25.2492 9.98155 19.6338 8.40028 11.594 16.6104" stroke="#FF0000" stroke-opacity="0.01" stroke-width="2.358"/>
</g>
<path d="M13.2298 18.8474L19.2103 14.4439C20.2187 13.7016 21.6384 13.9174 22.3807 14.9259C23.123 15.9343 22.9065 17.3535 21.8981 18.0957L16.2894 22.2239C15.6328 22.7072 14.9378 23.1372 14.1986 23.4809C13.737 23.6955 13.2499 23.9107 12.9968 23.9875C11.7287 24.3721 10.3854 24.4382 9.08543 24.1796C7.78545 23.921 6.5695 23.3458 5.54454 22.505C4.52085 21.6642 3.7187 20.5837 3.21195 19.3592C2.70393 18.1347 2.50657 16.804 2.63644 15.485C2.76759 14.166 3.21959 12.8993 3.9568 11.7973C4.69274 10.6953 5.68969 9.79189 6.85853 9.16713C7.37407 8.89156 7.91612 8.67394 8.47473 8.51676C9.65006 8.18605 10.6579 9.20524 10.6579 10.4262V10.851C10.6579 11.8374 9.81256 12.6013 8.94283 13.0665V13.0665C8.76457 13.1617 8.59523 13.2712 8.43608 13.3937C8.1254 13.6341 7.85293 13.9243 7.63266 14.2538C7.48369 14.4774 7.36018 14.7159 7.26469 14.9649C7.14628 15.2699 7.06861 15.5906 7.03678 15.9183C6.97821 16.5137 7.06734 17.1144 7.29652 17.6672C7.52571 18.2199 7.88731 18.7076 8.3495 19.0871C8.59269 19.2868 8.86007 19.4533 9.144 19.5833C9.39992 19.7004 9.66985 19.7877 9.94742 19.843C10.5344 19.9597 11.1417 19.9299 11.7134 19.7563C11.882 19.7052 12.0459 19.6423 12.2039 19.568C12.3526 19.4982 12.4823 19.3955 12.6149 19.2984V19.2984L13.2298 18.8474Z" fill="#FF3951"/>
<path d="M18.6676 13.0673L12.6872 17.4708C11.6788 18.213 10.2591 17.9972 9.51681 16.9888C8.7745 15.9804 8.99095 14.5612 9.99937 13.819L15.9468 9.44141C16.3784 9.12374 16.8257 8.82746 17.3032 8.58416C17.7992 8.33144 18.451 8.02819 18.9006 7.92721C20.1688 7.54253 21.512 7.47648 22.812 7.73511C24.112 7.99366 25.328 8.56885 26.3529 9.40967C27.3766 10.2505 28.1788 11.331 28.6855 12.5555C29.1935 13.78 29.3909 15.1107 29.261 16.4297C29.1299 17.7487 28.6779 19.0153 27.9407 20.1173C27.2047 21.2193 26.2078 22.1228 25.0389 22.7475C24.5234 23.0231 23.9813 23.2407 23.4227 23.3979C22.2474 23.7286 21.2396 22.7094 21.2396 21.4885V21.0636C21.2396 20.0773 22.0849 19.3134 22.9546 18.8482V18.8482C23.1329 18.753 23.3022 18.6435 23.4614 18.521C23.7721 18.2806 24.0445 17.9904 24.2648 17.6609C24.4138 17.4373 24.5373 17.1987 24.6328 16.9497C24.7512 16.6447 24.8289 16.3241 24.8607 15.9963C24.9193 15.4009 24.8301 14.8003 24.6009 14.2475C24.3718 13.6948 24.0102 13.207 23.548 12.8275C23.3048 12.6279 23.0374 12.4614 22.7535 12.3314C22.4975 12.2143 22.2276 12.1269 21.95 12.0716C21.3631 11.955 20.7557 11.9847 20.1841 12.1584C20.0155 12.2094 19.8516 12.2724 19.6936 12.3466C19.5449 12.4165 19.4151 12.5192 19.2826 12.6163V12.6163L18.6676 13.0673Z" fill="#FF3951"/>
</g>
<defs>
<filter id="filter0_d" x="0.778641" y="9.25167" width="23.4981" height="18.2272" filterUnits="userSpaceOnUse" color-interpolation-filters="sRGB">
<feFlood flood-opacity="0" result="BackgroundImageFix"/>
<feColorMatrix in="SourceAlpha" type="matrix" values="0 0 0 0 0 0 0 0 0 0 0 0 0 0 0 0 0 0 127 0"/>
<feOffset dy="0.707399"/>
<feGaussianBlur stdDeviation="0.943199"/>
<feColorMatrix type="matrix" values="0 0 0 0 1 0 0 0 0 0.223529 0 0 0 0 0.317647 0 0 0 0.11 0"/>
<feBlend mode="normal" in2="BackgroundImageFix" result="effect1_dropShadow"/>
<feBlend mode="normal" in="SourceGraphic" in2="effect1_dropShadow" result="shape"/>
</filter>
<filter id="filter1_d" x="8.86556" y="7.97615" width="23.4981" height="18.2272" filterUnits="userSpaceOnUse" color-interpolation-filters="sRGB">
<feFlood flood-opacity="0" result="BackgroundImageFix"/>
<feColorMatrix in="SourceAlpha" type="matrix" values="0 0 0 0 0 0 0 0 0 0 0 0 0 0 0 0 0 0 127 0"/>
<feOffset dy="0.707399"/>
<feGaussianBlur stdDeviation="0.943199"/>
<feColorMatrix type="matrix" values="0 0 0 0 1 0 0 0 0 0.223529 0 0 0 0 0.317647 0 0 0 0.11 0"/>
<feBlend mode="normal" in2="BackgroundImageFix" result="effect1_dropShadow"/>
<feBlend mode="normal" in="SourceGraphic" in2="effect1_dropShadow" result="shape"/>
</filter>
<clipPath id="clip0">
<rect width="32" height="32" fill="white"/>
</clipPath>
</defs>
</svg>
