<svg width="36" height="37" viewBox="0 0 36 37" fill="none" xmlns="http://www.w3.org/2000/svg">
<path d="M16.2471 13.2083V17.4592V19.1583V23.4092H19.7537V19.1583V17.4592V13.2083H16.2471Z" fill="#FAB908"/>
<path d="M5.72692 19.1058C6.69524 19.1058 7.48021 18.3208 7.48021 17.3525C7.48021 16.3842 6.69524 15.5992 5.72692 15.5992C4.75861 15.5992 3.97363 16.3842 3.97363 17.3525C3.97363 18.3208 4.75861 19.1058 5.72692 19.1058Z" fill="#0066D9"/>
<path d="M5.72692 21.0185C6.69524 21.0185 7.48021 20.2336 7.48021 19.2653C7.48021 18.2969 6.69524 17.512 5.72692 17.512C4.75861 17.512 3.97363 18.2969 3.97363 19.2653C3.97363 20.2336 4.75861 21.0185 5.72692 21.0185Z" fill="#0066D9"/>
<path d="M7.48021 17.3524H3.97363V19.2651H7.48021V17.3524Z" fill="#0066D9"/>
<path d="M30.2728 21.0185C31.2411 21.0185 32.0261 20.2336 32.0261 19.2653C32.0261 18.2969 31.2411 17.512 30.2728 17.512C29.3045 17.512 28.5195 18.2969 28.5195 19.2653C28.5195 20.2336 29.3045 21.0185 30.2728 21.0185Z" fill="#4285F4"/>
<path d="M30.2728 19.1058C31.2411 19.1058 32.0261 18.3208 32.0261 17.3525C32.0261 16.3842 31.2411 15.5992 30.2728 15.5992C29.3045 15.5992 28.5195 16.3842 28.5195 17.3525C28.5195 18.3208 29.3045 19.1058 30.2728 19.1058Z" fill="#4285F4"/>
<path d="M28.5198 19.2652H32.0264V17.3525H28.5198V19.2652Z" fill="#4285F4"/>
<path d="M11.7836 24.844C12.7519 24.844 13.5369 24.059 13.5369 23.0907C13.5369 22.1224 12.7519 21.3374 11.7836 21.3374C10.8152 21.3374 10.0303 22.1224 10.0303 23.0907C10.0303 24.059 10.8152 24.844 11.7836 24.844Z" fill="#EA4335"/>
<path d="M11.7836 26.7565C12.7519 26.7565 13.5369 25.9715 13.5369 25.0032C13.5369 24.0349 12.7519 23.2499 11.7836 23.2499C10.8152 23.2499 10.0303 24.0349 10.0303 25.0032C10.0303 25.9715 10.8152 26.7565 11.7836 26.7565Z" fill="#EA4335"/>
<path d="M13.5369 23.0905H10.0303V25.0031H13.5369V23.0905Z" fill="#EA4335"/>
<path d="M11.7836 13.3678C12.7519 13.3678 13.5369 12.5828 13.5369 11.6145C13.5369 10.6462 12.7519 9.86121 11.7836 9.86121C10.8152 9.86121 10.0303 10.6462 10.0303 11.6145C10.0303 12.5828 10.8152 13.3678 11.7836 13.3678Z" fill="#EA4335"/>
<path d="M11.7836 19.584C12.7519 19.584 13.5369 18.7991 13.5369 17.8307C13.5369 16.8624 12.7519 16.0775 11.7836 16.0775C10.8152 16.0775 10.0303 16.8624 10.0303 17.8307C10.0303 18.7991 10.8152 19.584 11.7836 19.584Z" fill="#EA4335"/>
<path d="M13.5369 11.6144H10.0303V17.8704H13.5369V11.6144Z" fill="#EA4335"/>
<path d="M24.2162 15.2803C25.1845 15.2803 25.9695 14.4953 25.9695 13.527C25.9695 12.5587 25.1845 11.7737 24.2162 11.7737C23.2479 11.7737 22.4629 12.5587 22.4629 13.527C22.4629 14.4953 23.2479 15.2803 24.2162 15.2803Z" fill="#34A853"/>
<path d="M24.2162 13.3678C25.1845 13.3678 25.9695 12.5828 25.9695 11.6145C25.9695 10.6462 25.1845 9.86121 24.2162 9.86121C23.2479 9.86121 22.4629 10.6462 22.4629 11.6145C22.4629 12.5828 23.2479 13.3678 24.2162 13.3678Z" fill="#34A853"/>
<path d="M22.4622 13.5271H25.9688V11.6144H22.4622V13.5271Z" fill="#34A853"/>
<path d="M18.0004 9.70189C18.9687 9.70189 19.7537 8.91692 19.7537 7.9486C19.7537 6.98029 18.9687 6.19531 18.0004 6.19531C17.032 6.19531 16.2471 6.98029 16.2471 7.9486C16.2471 8.91692 17.032 9.70189 18.0004 9.70189Z" fill="#FAB908"/>
<path d="M18.0004 7.78911C18.9687 7.78911 19.7537 7.00414 19.7537 6.03582C19.7537 5.06751 18.9687 4.28253 18.0004 4.28253C17.032 4.28253 16.2471 5.06751 16.2471 6.03582C16.2471 7.00414 17.032 7.78911 18.0004 7.78911Z" fill="#FAB908"/>
<path d="M16.2463 7.94836H19.7529V6.03568H16.2463V7.94836Z" fill="#FAB908"/>
<path d="M18.0004 32.3352C18.9687 32.3352 19.7537 31.5502 19.7537 30.5819C19.7537 29.6136 18.9687 28.8286 18.0004 28.8286C17.032 28.8286 16.2471 29.6136 16.2471 30.5819C16.2471 31.5502 17.032 32.3352 18.0004 32.3352Z" fill="#FAB908"/>
<path d="M18.0004 30.4227C18.9687 30.4227 19.7537 29.6377 19.7537 28.6694C19.7537 27.7011 18.9687 26.9161 18.0004 26.9161C17.032 26.9161 16.2471 27.7011 16.2471 28.6694C16.2471 29.6377 17.032 30.4227 18.0004 30.4227Z" fill="#FAB908"/>
<path d="M16.2463 30.582H19.7529V28.6693H16.2463V30.582Z" fill="#FAB908"/>
<path d="M24.2162 26.7565C25.1845 26.7565 25.9695 25.9715 25.9695 25.0032C25.9695 24.0349 25.1845 23.2499 24.2162 23.2499C23.2479 23.2499 22.4629 24.0349 22.4629 25.0032C22.4629 25.9715 23.2479 26.7565 24.2162 26.7565Z" fill="#34A853"/>
<path d="M24.2162 20.5403C25.1845 20.5403 25.9695 19.7553 25.9695 18.787C25.9695 17.8187 25.1845 17.0337 24.2162 17.0337C23.2479 17.0337 22.4629 17.8187 22.4629 18.787C22.4629 19.7553 23.2479 20.5403 24.2162 20.5403Z" fill="#34A853"/>
<path d="M22.4622 25.0032H25.9688V18.787H22.4622V25.0032Z" fill="#34A853"/>
<path d="M18.0004 14.9615C18.9687 14.9615 19.7537 14.1766 19.7537 13.2082C19.7537 12.2399 18.9687 11.455 18.0004 11.455C17.032 11.455 16.2471 12.2399 16.2471 13.2082C16.2471 14.1766 17.032 14.9615 18.0004 14.9615Z" fill="#FAB908"/>
<path d="M18.0004 25.1625C18.9687 25.1625 19.7537 24.3775 19.7537 23.4092C19.7537 22.4409 18.9687 21.6559 18.0004 21.6559C17.032 21.6559 16.2471 22.4409 16.2471 23.4092C16.2471 24.3775 17.032 25.1625 18.0004 25.1625Z" fill="#FAB908"/>
</svg>
