<svg width="36" height="36" viewBox="0 0 36 36" fill="none" xmlns="http://www.w3.org/2000/svg">
<mask id="mask0" mask-type="alpha" maskUnits="userSpaceOnUse" x="8" y="7" width="20" height="22">
<path fill-rule="evenodd" clip-rule="evenodd" d="M21.3773 20.702C21.875 20.702 22.2306 21.1287 22.2306 21.5553C22.2306 22.0531 21.8039 22.4086 21.3773 22.4086C20.8795 22.4086 20.524 21.982 20.524 21.5553C20.4528 21.0576 20.8795 20.702 21.3773 20.702ZM26.1416 8.5424C26.6393 8.5424 26.9949 8.96905 26.9949 9.39571C26.9949 9.89347 26.5682 10.249 26.1416 10.249C25.6438 10.249 25.2882 9.82236 25.2882 9.39571C25.2882 8.89794 25.6438 8.5424 26.1416 8.5424ZM10.4265 10.249H24.5061C24.7905 10.8179 25.4305 11.2445 26.1416 11.2445C27.1371 11.2445 27.9904 10.3912 27.9904 9.39571C27.9904 8.40018 27.1371 7.54688 26.1416 7.54688C25.3594 7.54688 24.7194 8.04464 24.4349 8.68462H10.4265C9.07542 8.68462 8.00879 9.68014 8.00879 11.0312V25.9641C8.00879 27.3151 9.14653 28.4529 10.4265 28.4529H25.3594C26.7104 28.4529 27.7771 27.3151 27.7771 25.9641V17.1466C27.7771 15.7955 26.7104 14.7289 25.3594 14.7289H16.5419C15.1908 14.7289 14.053 15.8666 14.053 17.1466V19.9198C14.053 21.1998 15.1908 22.2664 16.5419 22.2664H19.6706C19.9551 22.9775 20.5951 23.4042 21.3773 23.4042C22.3728 23.4042 23.2261 22.5508 23.2261 21.5553C23.2261 20.5598 22.3728 19.7065 21.3773 19.7065C20.6662 19.7065 20.0262 20.1331 19.7418 20.702H16.5419C16.1152 20.702 15.6174 20.4176 15.6174 19.9198V17.1466C15.6174 16.7199 16.0441 16.2933 16.5419 16.2933H25.4305C25.9282 16.2933 26.2838 16.6488 26.2838 17.1466V26.0352C26.2838 26.5329 25.9282 26.9596 25.4305 26.9596H10.4976C9.99984 26.9596 9.64429 26.5329 9.64429 26.0352V11.1023C9.57318 10.6046 9.92873 10.249 10.4265 10.249Z" fill="white"/>
</mask>
<g mask="url(#mask0)">
<path fill-rule="evenodd" clip-rule="evenodd" d="M8.00879 11.1735H10.3554V7.97363H8.00879V11.1735Z" fill="#3EB5AF"/>
</g>
<mask id="mask1" mask-type="alpha" maskUnits="userSpaceOnUse" x="8" y="7" width="20" height="22">
<path fill-rule="evenodd" clip-rule="evenodd" d="M21.3773 20.702C21.875 20.702 22.2306 21.1287 22.2306 21.5553C22.2306 22.0531 21.8039 22.4086 21.3773 22.4086C20.8795 22.4086 20.524 21.982 20.524 21.5553C20.4528 21.0576 20.8795 20.702 21.3773 20.702ZM26.1416 8.5424C26.6393 8.5424 26.9949 8.96905 26.9949 9.39571C26.9949 9.89347 26.5682 10.249 26.1416 10.249C25.6438 10.249 25.2882 9.82236 25.2882 9.39571C25.2882 8.89794 25.6438 8.5424 26.1416 8.5424ZM10.4265 10.249H24.5061C24.7905 10.8179 25.4305 11.2445 26.1416 11.2445C27.1371 11.2445 27.9904 10.3912 27.9904 9.39571C27.9904 8.40018 27.1371 7.54688 26.1416 7.54688C25.3594 7.54688 24.7194 8.04464 24.4349 8.68462H10.4265C9.07542 8.68462 8.00879 9.68014 8.00879 11.0312V25.9641C8.00879 27.3151 9.14653 28.4529 10.4265 28.4529H25.3594C26.7104 28.4529 27.7771 27.3151 27.7771 25.9641V17.1466C27.7771 15.7955 26.7104 14.7289 25.3594 14.7289H16.5419C15.1908 14.7289 14.053 15.8666 14.053 17.1466V19.9198C14.053 21.1998 15.1908 22.2664 16.5419 22.2664H19.6706C19.9551 22.9775 20.5951 23.4042 21.3773 23.4042C22.3728 23.4042 23.2261 22.5508 23.2261 21.5553C23.2261 20.5598 22.3728 19.7065 21.3773 19.7065C20.6662 19.7065 20.0262 20.1331 19.7418 20.702H16.5419C16.1152 20.702 15.6174 20.4176 15.6174 19.9198V17.1466C15.6174 16.7199 16.0441 16.2933 16.5419 16.2933H25.4305C25.9282 16.2933 26.2838 16.6488 26.2838 17.1466V26.0352C26.2838 26.5329 25.9282 26.9596 25.4305 26.9596H10.4976C9.99984 26.9596 9.64429 26.5329 9.64429 26.0352V11.1023C9.57318 10.6046 9.92873 10.249 10.4265 10.249Z" fill="white"/>
</mask>
<g mask="url(#mask1)">
<path fill-rule="evenodd" clip-rule="evenodd" d="M8.00879 28.4537H10.3554V25.9648H8.00879V28.4537Z" fill="#229183"/>
</g>
<mask id="mask2" mask-type="alpha" maskUnits="userSpaceOnUse" x="8" y="7" width="20" height="22">
<path fill-rule="evenodd" clip-rule="evenodd" d="M21.3773 20.702C21.875 20.702 22.2306 21.1287 22.2306 21.5553C22.2306 22.0531 21.8039 22.4086 21.3773 22.4086C20.8795 22.4086 20.524 21.982 20.524 21.5553C20.4528 21.0576 20.8795 20.702 21.3773 20.702ZM26.1416 8.5424C26.6393 8.5424 26.9949 8.96905 26.9949 9.39571C26.9949 9.89347 26.5682 10.249 26.1416 10.249C25.6438 10.249 25.2882 9.82236 25.2882 9.39571C25.2882 8.89794 25.6438 8.5424 26.1416 8.5424ZM10.4265 10.249H24.5061C24.7905 10.8179 25.4305 11.2445 26.1416 11.2445C27.1371 11.2445 27.9904 10.3912 27.9904 9.39571C27.9904 8.40018 27.1371 7.54688 26.1416 7.54688C25.3594 7.54688 24.7194 8.04464 24.4349 8.68462H10.4265C9.07542 8.68462 8.00879 9.68014 8.00879 11.0312V25.9641C8.00879 27.3151 9.14653 28.4529 10.4265 28.4529H25.3594C26.7104 28.4529 27.7771 27.3151 27.7771 25.9641V17.1466C27.7771 15.7955 26.7104 14.7289 25.3594 14.7289H16.5419C15.1908 14.7289 14.053 15.8666 14.053 17.1466V19.9198C14.053 21.1998 15.1908 22.2664 16.5419 22.2664H19.6706C19.9551 22.9775 20.5951 23.4042 21.3773 23.4042C22.3728 23.4042 23.2261 22.5508 23.2261 21.5553C23.2261 20.5598 22.3728 19.7065 21.3773 19.7065C20.6662 19.7065 20.0262 20.1331 19.7418 20.702H16.5419C16.1152 20.702 15.6174 20.4176 15.6174 19.9198V17.1466C15.6174 16.7199 16.0441 16.2933 16.5419 16.2933H25.4305C25.9282 16.2933 26.2838 16.6488 26.2838 17.1466V26.0352C26.2838 26.5329 25.9282 26.9596 25.4305 26.9596H10.4976C9.99984 26.9596 9.64429 26.5329 9.64429 26.0352V11.1023C9.57318 10.6046 9.92873 10.249 10.4265 10.249Z" fill="white"/>
</mask>
<g mask="url(#mask2)">
<path fill-rule="evenodd" clip-rule="evenodd" d="M25.3604 28.4537H27.9914V25.9648H25.3604V28.4537Z" fill="#E15E38"/>
</g>
<mask id="mask3" mask-type="alpha" maskUnits="userSpaceOnUse" x="8" y="7" width="20" height="22">
<path fill-rule="evenodd" clip-rule="evenodd" d="M21.3773 20.702C21.875 20.702 22.2306 21.1287 22.2306 21.5553C22.2306 22.0531 21.8039 22.4086 21.3773 22.4086C20.8795 22.4086 20.524 21.982 20.524 21.5553C20.4528 21.0576 20.8795 20.702 21.3773 20.702ZM26.1416 8.5424C26.6393 8.5424 26.9949 8.96905 26.9949 9.39571C26.9949 9.89347 26.5682 10.249 26.1416 10.249C25.6438 10.249 25.2882 9.82236 25.2882 9.39571C25.2882 8.89794 25.6438 8.5424 26.1416 8.5424ZM10.4265 10.249H24.5061C24.7905 10.8179 25.4305 11.2445 26.1416 11.2445C27.1371 11.2445 27.9904 10.3912 27.9904 9.39571C27.9904 8.40018 27.1371 7.54688 26.1416 7.54688C25.3594 7.54688 24.7194 8.04464 24.4349 8.68462H10.4265C9.07542 8.68462 8.00879 9.68014 8.00879 11.0312V25.9641C8.00879 27.3151 9.14653 28.4529 10.4265 28.4529H25.3594C26.7104 28.4529 27.7771 27.3151 27.7771 25.9641V17.1466C27.7771 15.7955 26.7104 14.7289 25.3594 14.7289H16.5419C15.1908 14.7289 14.053 15.8666 14.053 17.1466V19.9198C14.053 21.1998 15.1908 22.2664 16.5419 22.2664H19.6706C19.9551 22.9775 20.5951 23.4042 21.3773 23.4042C22.3728 23.4042 23.2261 22.5508 23.2261 21.5553C23.2261 20.5598 22.3728 19.7065 21.3773 19.7065C20.6662 19.7065 20.0262 20.1331 19.7418 20.702H16.5419C16.1152 20.702 15.6174 20.4176 15.6174 19.9198V17.1466C15.6174 16.7199 16.0441 16.2933 16.5419 16.2933H25.4305C25.9282 16.2933 26.2838 16.6488 26.2838 17.1466V26.0352C26.2838 26.5329 25.9282 26.9596 25.4305 26.9596H10.4976C9.99984 26.9596 9.64429 26.5329 9.64429 26.0352V11.1023C9.57318 10.6046 9.92873 10.249 10.4265 10.249Z" fill="white"/>
</mask>
<g mask="url(#mask3)">
<path fill-rule="evenodd" clip-rule="evenodd" d="M25.3604 17.2175H27.9914V14.0176H25.3604V17.2175Z" fill="#B03439"/>
</g>
<mask id="mask4" mask-type="alpha" maskUnits="userSpaceOnUse" x="8" y="7" width="20" height="22">
<path fill-rule="evenodd" clip-rule="evenodd" d="M21.3773 20.702C21.875 20.702 22.2306 21.1287 22.2306 21.5553C22.2306 22.0531 21.8039 22.4086 21.3773 22.4086C20.8795 22.4086 20.524 21.982 20.524 21.5553C20.4528 21.0576 20.8795 20.702 21.3773 20.702ZM26.1416 8.5424C26.6393 8.5424 26.9949 8.96905 26.9949 9.39571C26.9949 9.89347 26.5682 10.249 26.1416 10.249C25.6438 10.249 25.2882 9.82236 25.2882 9.39571C25.2882 8.89794 25.6438 8.5424 26.1416 8.5424ZM10.4265 10.249H24.5061C24.7905 10.8179 25.4305 11.2445 26.1416 11.2445C27.1371 11.2445 27.9904 10.3912 27.9904 9.39571C27.9904 8.40018 27.1371 7.54688 26.1416 7.54688C25.3594 7.54688 24.7194 8.04464 24.4349 8.68462H10.4265C9.07542 8.68462 8.00879 9.68014 8.00879 11.0312V25.9641C8.00879 27.3151 9.14653 28.4529 10.4265 28.4529H25.3594C26.7104 28.4529 27.7771 27.3151 27.7771 25.9641V17.1466C27.7771 15.7955 26.7104 14.7289 25.3594 14.7289H16.5419C15.1908 14.7289 14.053 15.8666 14.053 17.1466V19.9198C14.053 21.1998 15.1908 22.2664 16.5419 22.2664H19.6706C19.9551 22.9775 20.5951 23.4042 21.3773 23.4042C22.3728 23.4042 23.2261 22.5508 23.2261 21.5553C23.2261 20.5598 22.3728 19.7065 21.3773 19.7065C20.6662 19.7065 20.0262 20.1331 19.7418 20.702H16.5419C16.1152 20.702 15.6174 20.4176 15.6174 19.9198V17.1466C15.6174 16.7199 16.0441 16.2933 16.5419 16.2933H25.4305C25.9282 16.2933 26.2838 16.6488 26.2838 17.1466V26.0352C26.2838 26.5329 25.9282 26.9596 25.4305 26.9596H10.4976C9.99984 26.9596 9.64429 26.5329 9.64429 26.0352V11.1023C9.57318 10.6046 9.92873 10.249 10.4265 10.249Z" fill="white"/>
</mask>
<g mask="url(#mask4)">
<path fill-rule="evenodd" clip-rule="evenodd" d="M13.627 17.2175H16.6135V14.0176H13.627V17.2175Z" fill="#B94F3C"/>
</g>
<mask id="mask5" mask-type="alpha" maskUnits="userSpaceOnUse" x="8" y="7" width="20" height="22">
<path fill-rule="evenodd" clip-rule="evenodd" d="M21.3773 20.702C21.875 20.702 22.2306 21.1287 22.2306 21.5553C22.2306 22.0531 21.8039 22.4086 21.3773 22.4086C20.8795 22.4086 20.524 21.982 20.524 21.5553C20.4528 21.0576 20.8795 20.702 21.3773 20.702ZM26.1416 8.5424C26.6393 8.5424 26.9949 8.96905 26.9949 9.39571C26.9949 9.89347 26.5682 10.249 26.1416 10.249C25.6438 10.249 25.2882 9.82236 25.2882 9.39571C25.2882 8.89794 25.6438 8.5424 26.1416 8.5424ZM10.4265 10.249H24.5061C24.7905 10.8179 25.4305 11.2445 26.1416 11.2445C27.1371 11.2445 27.9904 10.3912 27.9904 9.39571C27.9904 8.40018 27.1371 7.54688 26.1416 7.54688C25.3594 7.54688 24.7194 8.04464 24.4349 8.68462H10.4265C9.07542 8.68462 8.00879 9.68014 8.00879 11.0312V25.9641C8.00879 27.3151 9.14653 28.4529 10.4265 28.4529H25.3594C26.7104 28.4529 27.7771 27.3151 27.7771 25.9641V17.1466C27.7771 15.7955 26.7104 14.7289 25.3594 14.7289H16.5419C15.1908 14.7289 14.053 15.8666 14.053 17.1466V19.9198C14.053 21.1998 15.1908 22.2664 16.5419 22.2664H19.6706C19.9551 22.9775 20.5951 23.4042 21.3773 23.4042C22.3728 23.4042 23.2261 22.5508 23.2261 21.5553C23.2261 20.5598 22.3728 19.7065 21.3773 19.7065C20.6662 19.7065 20.0262 20.1331 19.7418 20.702H16.5419C16.1152 20.702 15.6174 20.4176 15.6174 19.9198V17.1466C15.6174 16.7199 16.0441 16.2933 16.5419 16.2933H25.4305C25.9282 16.2933 26.2838 16.6488 26.2838 17.1466V26.0352C26.2838 26.5329 25.9282 26.9596 25.4305 26.9596H10.4976C9.99984 26.9596 9.64429 26.5329 9.64429 26.0352V11.1023C9.57318 10.6046 9.92873 10.249 10.4265 10.249Z" fill="white"/>
</mask>
<g mask="url(#mask5)">
<path fill-rule="evenodd" clip-rule="evenodd" d="M13.627 23.0485H16.6135V19.8486H13.627V23.0485Z" fill="#DF542F"/>
</g>
<mask id="mask6" mask-type="alpha" maskUnits="userSpaceOnUse" x="8" y="11" width="2" height="16">
<path fill-rule="evenodd" clip-rule="evenodd" d="M8.00879 11.1025H9.64619V26.0354H8.00879V11.1025Z" fill="white"/>
</mask>
<g mask="url(#mask6)">
<path fill-rule="evenodd" clip-rule="evenodd" d="M22.0011 20.702C22.5221 20.702 22.8942 21.1287 22.8942 21.5553C22.8942 22.0531 22.4477 22.4086 22.0011 22.4086C21.4801 22.4086 21.108 21.982 21.108 21.5553C21.0335 21.0576 21.4801 20.702 22.0011 20.702ZM26.9877 8.5424C27.5087 8.5424 27.8808 8.96905 27.8808 9.39571C27.8808 9.89347 27.4343 10.249 26.9877 10.249C26.4667 10.249 26.0946 9.82236 26.0946 9.39571C26.0946 8.89794 26.4667 8.5424 26.9877 8.5424ZM10.5393 10.249H25.2759C25.5736 10.8179 26.2434 11.2445 26.9877 11.2445C28.0297 11.2445 28.9228 10.3912 28.9228 9.39571C28.9228 8.40018 28.0297 7.54688 26.9877 7.54688C26.169 7.54688 25.4992 8.04464 25.2015 8.68462H10.5393C9.1252 8.68462 8.00879 9.68014 8.00879 11.0312V25.9641C8.00879 27.3151 9.19962 28.4529 10.5393 28.4529H26.169C27.5831 28.4529 28.6995 27.3151 28.6995 25.9641V17.1466C28.6995 15.7955 27.5831 14.7289 26.169 14.7289H16.9401C15.5259 14.7289 14.3351 15.8666 14.3351 17.1466V19.9198C14.3351 21.1998 15.5259 22.2664 16.9401 22.2664H20.2148C20.5126 22.9775 21.1824 23.4042 22.0011 23.4042C23.0431 23.4042 23.9362 22.5509 23.9362 21.5553C23.9362 20.5598 23.0431 19.7065 22.0011 19.7065C21.2568 19.7065 20.587 20.1331 20.2893 20.702H16.9401C16.4935 20.702 15.9725 20.4176 15.9725 19.9198V17.1466C15.9725 16.7199 16.4191 16.2933 16.9401 16.2933H26.2434C26.7644 16.2933 27.1366 16.6488 27.1366 17.1466V26.0352C27.1366 26.5329 26.7644 26.9596 26.2434 26.9596H10.6137C10.0928 26.9596 9.72061 26.5329 9.72061 26.0352V11.1023C9.64619 10.6046 10.0183 10.249 10.5393 10.249Z" fill="url(#paint0_linear)"/>
</g>
<mask id="mask7" mask-type="alpha" maskUnits="userSpaceOnUse" x="10" y="26" width="16" height="3">
<path fill-rule="evenodd" clip-rule="evenodd" d="M10.3555 26.8887C10.4266 26.8887 10.4266 26.8887 10.4977 26.8887H25.4306V28.4531H10.4977C10.4266 28.4531 10.4266 28.4531 10.3555 28.4531V26.8887Z" fill="white"/>
</mask>
<g mask="url(#mask7)">
<path fill-rule="evenodd" clip-rule="evenodd" d="M21.3773 20.702C21.875 20.702 22.2306 21.1287 22.2306 21.5553C22.2306 21.982 21.8039 22.4086 21.3773 22.4086C20.8795 22.4086 20.524 21.982 20.524 21.5553C20.524 21.1287 20.8795 20.702 21.3773 20.702ZM26.1416 8.54241C26.6393 8.54241 26.9949 8.96906 26.9949 9.39571C26.9949 9.89347 26.5682 10.249 26.1416 10.249C25.6438 10.249 25.2882 9.82236 25.2882 9.39571C25.2882 8.89795 25.6438 8.54241 26.1416 8.54241ZM10.4265 10.249H24.5061C24.7905 10.8179 25.4305 11.2445 26.1416 11.2445C27.1371 11.2445 27.9904 10.3912 27.9904 9.39571C27.9904 8.40019 27.1371 7.54688 26.1416 7.54688C25.3594 7.54688 24.7194 8.04464 24.4349 8.68462H10.4265C9.07542 8.68462 8.00879 9.68015 8.00879 11.0312V25.9641C8.00879 27.3152 9.14653 28.4529 10.4265 28.4529H25.3594C26.7104 28.4529 27.7771 27.3152 27.7771 25.9641V17.0755C27.7771 15.7244 26.7104 14.6578 25.3594 14.6578H16.5419C15.1908 14.6578 14.053 15.7955 14.053 17.0755V19.8487C14.053 21.1287 15.1908 22.1953 16.5419 22.1953H19.6706C19.9551 22.9064 20.5951 23.3331 21.3773 23.3331C22.3728 23.3331 23.2261 22.4797 23.2261 21.4842C23.2261 20.4887 22.3728 19.7065 21.3773 19.7065C20.6662 19.7065 20.0262 20.1331 19.7418 20.702H16.5419C16.1152 20.702 15.6174 20.4176 15.6174 19.9198V17.1466C15.6174 16.7199 16.0441 16.2933 16.5419 16.2933H25.4305C25.9282 16.2933 26.2838 16.6488 26.2838 17.1466V26.0352C26.2838 26.533 25.9282 26.9596 25.4305 26.9596H10.4976C9.99984 26.9596 9.64429 26.533 9.64429 26.0352V11.1023C9.57318 10.6046 9.92873 10.249 10.4265 10.249Z" fill="url(#paint1_linear)"/>
</g>
<mask id="mask8" mask-type="alpha" maskUnits="userSpaceOnUse" x="26" y="17" width="2" height="10">
<path fill-rule="evenodd" clip-rule="evenodd" d="M27.777 17.1465V26.0351H26.2812V17.1465H27.777Z" fill="white"/>
</mask>
<g mask="url(#mask8)">
<path fill-rule="evenodd" clip-rule="evenodd" d="M21.6584 20.702C22.1343 20.702 22.4743 21.1287 22.4743 21.5553C22.4743 21.982 22.0663 22.4086 21.6584 22.4086C21.1825 22.4086 20.8426 21.982 20.8426 21.5553C20.8426 21.1287 21.1825 20.702 21.6584 20.702ZM26.2135 8.5424C26.6894 8.5424 27.0294 8.96905 27.0294 9.39571C27.0294 9.89347 26.6214 10.249 26.2135 10.249C25.7376 10.249 25.3977 9.82236 25.3977 9.39571C25.3977 8.89794 25.7376 8.5424 26.2135 8.5424ZM11.1885 10.249H24.6498C24.9218 10.8179 25.5337 11.2445 26.2135 11.2445C27.1653 11.2445 27.9812 10.3912 27.9812 9.39571C27.9812 8.40018 27.1653 7.54688 26.2135 7.54688C25.4657 7.54688 24.8538 8.04464 24.5818 8.68462H11.1885C9.89675 8.68462 8.87695 9.68014 8.87695 11.0312V25.9641C8.87695 27.3151 9.96473 28.4529 11.1885 28.4529H25.4657C26.7574 28.4529 27.7772 27.3151 27.7772 25.9641V17.0755C27.7772 15.7244 26.7574 14.6578 25.4657 14.6578H16.9673C15.6756 14.6578 14.5878 15.7955 14.5878 17.0755V19.8487C14.5878 21.1287 15.6756 22.1953 16.9673 22.1953H19.9588C20.2307 22.9064 20.8426 23.333 21.5904 23.333C22.5422 23.333 23.3581 22.4797 23.3581 21.4842C23.3581 20.4887 22.5422 19.6354 21.5904 19.6354C20.9106 19.6354 20.2987 20.062 20.0267 20.6309H16.9673C16.5594 20.6309 16.0835 20.3465 16.0835 19.8487V17.0755C16.0835 16.6488 16.4914 16.2222 16.9673 16.2222H25.4657C25.9416 16.2222 26.2815 16.5777 26.2815 17.0755V25.9641C26.2815 26.4618 25.9416 26.8885 25.4657 26.8885H11.1885C10.7126 26.8885 10.3727 26.4618 10.3727 25.9641V11.0312C10.3727 10.6046 10.7126 10.249 11.1885 10.249Z" fill="url(#paint2_linear)"/>
</g>
<mask id="mask9" mask-type="alpha" maskUnits="userSpaceOnUse" x="16" y="14" width="10" height="3">
<path fill-rule="evenodd" clip-rule="evenodd" d="M16.542 14.7285H25.4306V16.3674H16.542V14.7285Z" fill="white"/>
</mask>
<g mask="url(#mask9)">
<path fill-rule="evenodd" clip-rule="evenodd" d="M21.3773 20.9872C21.875 20.9872 22.2306 21.4341 22.2306 21.8811C22.2306 22.328 21.8039 22.775 21.3773 22.775C20.8795 22.775 20.524 22.328 20.524 21.8811C20.524 21.4341 20.8795 20.9872 21.3773 20.9872ZM26.1416 8.24895C26.6393 8.24895 26.9949 8.69591 26.9949 9.14286C26.9949 9.66431 26.5682 10.0368 26.1416 10.0368C25.6438 10.0368 25.2882 9.58982 25.2882 9.14286C25.2882 8.62141 25.6438 8.24895 26.1416 8.24895ZM10.4265 10.0368H24.506C24.7905 10.6327 25.4305 11.0797 26.1416 11.0797C27.1371 11.0797 27.9904 10.1858 27.9904 9.14286C27.9904 8.09996 27.1371 7.20605 26.1416 7.20605C25.3594 7.20605 24.7194 7.7275 24.4349 8.39794H10.4265C9.07542 8.39794 8.00879 9.44083 8.00879 10.8562V26.4996C8.00879 27.915 9.14653 29.1069 10.4265 29.1069H25.3594C26.7104 29.1069 27.7771 27.915 27.7771 26.4996V17.1881C27.7771 15.7727 26.7104 14.6553 25.3594 14.6553H16.4707C15.1197 14.6553 13.9819 15.8472 13.9819 17.1881V20.0933C13.9819 21.4341 15.1197 22.5515 16.4707 22.5515H19.5995C19.884 23.2965 20.524 23.7434 21.3061 23.7434C22.3017 23.7434 23.155 22.8495 23.155 21.8066C23.155 20.7637 22.3017 19.8698 21.3061 19.8698C20.5951 19.8698 19.9551 20.3167 19.6706 20.9127H16.4707C16.0441 20.9127 15.5463 20.6147 15.5463 20.0933V17.1881C15.5463 16.7411 15.973 16.2941 16.4707 16.2941H25.3594C25.8571 16.2941 26.2127 16.6666 26.2127 17.1881V26.4996C26.2127 27.0211 25.8571 27.468 25.3594 27.468H10.4265C9.92872 27.468 9.57318 27.0211 9.57318 26.4996V10.8562C9.57318 10.4092 9.92872 10.0368 10.4265 10.0368Z" fill="url(#paint3_linear)"/>
</g>
<mask id="mask10" mask-type="alpha" maskUnits="userSpaceOnUse" x="14" y="17" width="2" height="3">
<path fill-rule="evenodd" clip-rule="evenodd" d="M15.6155 17.1465V19.9197H14.0537V17.1465H15.6155Z" fill="white"/>
</mask>
<g mask="url(#mask10)">
<path fill-rule="evenodd" clip-rule="evenodd" d="M21.7138 20.702C22.2344 20.702 22.6063 21.1287 22.6063 21.5553C22.6063 21.982 22.1601 22.4086 21.7138 22.4086C21.1933 22.4086 20.8214 21.982 20.8214 21.5553C20.8214 21.1287 21.1933 20.702 21.7138 20.702ZM26.6966 8.5424C27.2172 8.5424 27.589 8.96905 27.589 9.39571C27.589 9.89347 27.1428 10.249 26.6966 10.249C26.176 10.249 25.8042 9.82236 25.8042 9.39571C25.8042 8.89794 26.176 8.5424 26.6966 8.5424ZM10.261 10.249H24.9861C25.2836 10.8179 25.9529 11.2445 26.6966 11.2445C27.7378 11.2445 28.6302 10.3912 28.6302 9.39571C28.6302 8.40018 27.7378 7.54688 26.6966 7.54688C25.8785 7.54688 25.2092 8.04464 24.9117 8.68462H10.261C8.84796 8.68462 7.73242 9.68014 7.73242 11.0312V25.9641C7.73242 27.3151 8.92233 28.4529 10.261 28.4529H25.8785C27.2915 28.4529 28.4071 27.3151 28.4071 25.9641V17.0755C28.4071 15.7244 27.2915 14.6578 25.8785 14.6578H16.5824C15.1694 14.6578 13.9794 15.7955 13.9794 17.0755V19.8487C13.9794 21.1287 15.1694 22.1953 16.5824 22.1953H19.8546C20.1521 22.9064 20.8214 23.333 21.6395 23.333C22.6807 23.333 23.5731 22.4797 23.5731 21.4842C23.5731 20.4887 22.6807 19.6354 21.6395 19.6354C20.8958 19.6354 20.2265 20.062 19.929 20.6309H16.5824C16.1362 20.6309 15.6156 20.3465 15.6156 19.8487V17.0755C15.6156 16.6488 16.0618 16.2222 16.5824 16.2222H25.8785C26.3991 16.2222 26.771 16.5777 26.771 17.0755V25.9641C26.771 26.4618 26.3991 26.8885 25.8785 26.8885H10.261C9.74039 26.8885 9.36855 26.4618 9.36855 25.9641V11.0312C9.36855 10.6046 9.74039 10.249 10.261 10.249Z" fill="url(#paint4_linear)"/>
</g>
<mask id="mask11" mask-type="alpha" maskUnits="userSpaceOnUse" x="10" y="7" width="18" height="5">
<path fill-rule="evenodd" clip-rule="evenodd" d="M26.1415 7.54688C27.137 7.54688 27.9903 8.40018 27.9903 9.39571C27.9903 10.3912 27.137 11.2445 26.1415 11.2445C25.4304 11.2445 24.7904 10.8179 24.506 10.249H10.4264C10.3553 10.249 10.3553 10.249 10.2842 10.249V8.68462C10.3553 8.68462 10.3553 8.68462 10.4264 8.68462H24.4348C24.7193 8.04464 25.3593 7.54688 26.1415 7.54688ZM26.1415 8.5424C25.6437 8.5424 25.2882 8.96905 25.2882 9.39571C25.2882 9.89347 25.7148 10.249 26.1415 10.249C26.6392 10.249 26.9948 9.82236 26.9948 9.39571C27.0659 8.89794 26.6392 8.5424 26.1415 8.5424Z" fill="white"/>
</mask>
<g mask="url(#mask11)">
<path fill-rule="evenodd" clip-rule="evenodd" d="M21.3773 20.702C21.875 20.702 22.2306 21.1287 22.2306 21.5553C22.2306 22.0531 21.8039 22.4086 21.3773 22.4086C20.8795 22.4086 20.524 21.982 20.524 21.5553C20.4528 21.0576 20.8795 20.702 21.3773 20.702ZM26.1416 8.5424C26.6393 8.5424 26.9949 8.96905 26.9949 9.39571C26.9949 9.89347 26.5682 10.249 26.1416 10.249C25.6438 10.249 25.2882 9.82236 25.2882 9.39571C25.2882 8.89794 25.6438 8.5424 26.1416 8.5424ZM10.4265 10.249H24.5061C24.7905 10.8179 25.4305 11.2445 26.1416 11.2445C27.1371 11.2445 27.9904 10.3912 27.9904 9.39571C27.9904 8.40018 27.1371 7.54688 26.1416 7.54688C25.3594 7.54688 24.7194 8.04464 24.4349 8.68462H10.4265C9.07542 8.68462 8.00879 9.68014 8.00879 11.0312V25.9641C8.00879 27.3151 9.14653 28.4529 10.4265 28.4529H25.3594C26.7104 28.4529 27.7771 27.3151 27.7771 25.9641V17.1466C27.7771 15.7955 26.7104 14.7289 25.3594 14.7289H16.5419C15.1908 14.7289 14.053 15.8666 14.053 17.1466V19.9198C14.053 21.1998 15.1908 22.2664 16.5419 22.2664H19.6706C19.9551 22.9775 20.5951 23.4042 21.3773 23.4042C22.3728 23.4042 23.2261 22.5508 23.2261 21.5553C23.2261 20.5598 22.3728 19.7065 21.3773 19.7065C20.6662 19.7065 20.0262 20.1331 19.7418 20.702H16.5419C16.1152 20.702 15.6174 20.4176 15.6174 19.9198V17.1466C15.6174 16.7199 16.0441 16.2933 16.5419 16.2933H25.4305C25.9282 16.2933 26.2838 16.6488 26.2838 17.1466V26.0352C26.2838 26.5329 25.9282 26.9596 25.4305 26.9596H10.4976C9.99984 26.9596 9.64429 26.5329 9.64429 26.0352V11.1023C9.57318 10.6046 9.92873 10.249 10.4265 10.249Z" fill="url(#paint5_linear)"/>
</g>
<mask id="mask12" mask-type="alpha" maskUnits="userSpaceOnUse" x="16" y="19" width="8" height="5">
<path fill-rule="evenodd" clip-rule="evenodd" d="M21.3774 19.7061C22.3729 19.7061 23.2262 20.5594 23.2262 21.5549C23.2262 22.5504 22.3729 23.4037 21.3774 23.4037C20.5952 23.4037 19.9552 22.906 19.6708 22.266H16.542V20.7016H19.7419C20.0263 20.1327 20.6663 19.7061 21.3774 19.7061ZM21.3774 20.7016C20.8796 20.7016 20.5241 21.1282 20.5241 21.5549C20.5241 21.9815 20.9507 22.4082 21.3774 22.4082C21.8752 22.4082 22.2307 21.9815 22.2307 21.5549C22.2307 21.1282 21.8752 20.7016 21.3774 20.7016Z" fill="white"/>
</mask>
<g mask="url(#mask12)">
<path fill-rule="evenodd" clip-rule="evenodd" d="M21.3909 20.7489C21.8887 20.7489 22.2442 21.1755 22.2442 21.6022C22.2442 22.0289 21.8176 22.4555 21.3909 22.4555C20.8932 22.4555 20.5376 22.0289 20.5376 21.6022C20.5376 21.1755 20.8932 20.7489 21.3909 20.7489ZM26.1552 8.58928C26.653 8.58928 27.0085 9.01593 27.0085 9.44258C27.0085 9.94034 26.5819 10.2959 26.1552 10.2959C25.6575 10.2959 25.3019 9.86923 25.3019 9.44258C25.3019 8.94482 25.6575 8.58928 26.1552 8.58928ZM10.4402 10.2959H24.5197C24.8042 10.8648 25.4441 11.2914 26.1552 11.2914C27.1507 11.2914 28.0041 10.4381 28.0041 9.44258C28.0041 8.44706 27.1507 7.59375 26.1552 7.59375C25.373 7.59375 24.733 8.09151 24.4486 8.73149H10.4402C9.08909 8.73149 8.02246 9.72702 8.02246 11.0781V26.011C8.02246 27.362 9.1602 28.4998 10.4402 28.4998H25.373C26.7241 28.4998 27.7907 27.362 27.7907 26.011V17.1223C27.7907 15.7713 26.7241 14.7046 25.373 14.7046H16.4844C15.1333 14.7046 13.9956 15.8424 13.9956 17.1223V19.8956C13.9956 21.1755 15.2107 22.2752 16.5618 22.2752L19.6172 22.3086C19.9017 23.0197 20.6955 23.4987 21.4777 23.4987C22.4733 23.4987 23.1686 22.5266 23.1686 21.5311C23.1686 20.5356 22.3153 19.6823 21.3198 19.6823C20.6087 19.6823 19.9687 20.1089 19.6843 20.6778H16.4844C16.0578 20.6778 15.56 20.3933 15.56 19.8956V17.1223C15.56 16.6957 15.9867 16.269 16.4844 16.269H25.373C25.8708 16.269 26.2263 16.6246 26.2263 17.1223V26.011C26.2263 26.5087 25.8708 26.9354 25.373 26.9354H10.4402C9.9424 26.9354 9.58685 26.5087 9.58685 26.011V11.0781C9.58685 10.6514 9.9424 10.2959 10.4402 10.2959Z" fill="url(#paint6_linear)"/>
</g>
<defs>
<linearGradient id="paint0_linear" x1="18.4762" y1="25.8154" x2="18.4762" y2="11.522" gradientUnits="userSpaceOnUse">
<stop stop-color="#249184"/>
<stop offset="1" stop-color="#3FB5AF"/>
</linearGradient>
<linearGradient id="paint1_linear" x1="10.3239" y1="18.023" x2="25.4026" y2="18.023" gradientUnits="userSpaceOnUse">
<stop stop-color="#249184"/>
<stop offset="1" stop-color="#E15F38"/>
</linearGradient>
<linearGradient id="paint2_linear" x1="18.4391" y1="17.1777" x2="18.4391" y2="25.9377" gradientUnits="userSpaceOnUse">
<stop stop-color="#B1343A"/>
<stop offset="1" stop-color="#E15F38"/>
</linearGradient>
<linearGradient id="paint3_linear" x1="25.2797" y1="18.1777" x2="16.7007" y2="18.1777" gradientUnits="userSpaceOnUse">
<stop stop-color="#B1343A"/>
<stop offset="1" stop-color="#BA503D"/>
</linearGradient>
<linearGradient id="paint4_linear" x1="18.192" y1="17.21" x2="18.192" y2="19.8396" gradientUnits="userSpaceOnUse">
<stop stop-color="#BA503D"/>
<stop offset="1" stop-color="#DF5430"/>
</linearGradient>
<linearGradient id="paint5_linear" x1="28.3136" y1="18.0252" x2="10.6319" y2="18.0252" gradientUnits="userSpaceOnUse">
<stop stop-color="#2270A8"/>
<stop offset="1" stop-color="#3FB5AF"/>
</linearGradient>
<linearGradient id="paint6_linear" x1="16.5311" y1="18.0167" x2="23.5545" y2="18.0167" gradientUnits="userSpaceOnUse">
<stop stop-color="#DF5430"/>
<stop offset="1" stop-color="#F0A44C"/>
</linearGradient>
</defs>
</svg>
