<svg width="160" height="165" viewBox="0 0 160 165" fill="none" xmlns="http://www.w3.org/2000/svg">
<g clip-path="url(#clip0)">
<path opacity="0.06" d="M112 0.5H48C21.4903 0.5 0 21.9903 0 48.5V112.5C0 139.01 21.4903 160.5 48 160.5H112C138.51 160.5 160 139.01 160 112.5V48.5C160 21.9903 138.51 0.5 112 0.5Z" fill="#FFCD1D"/>
<g filter="url(#filter0_d)">
<path d="M112 27.5H48C35.8497 27.5 26 37.3497 26 49.5V112.5C26 124.65 35.8497 134.5 48 134.5H112C124.15 134.5 134 124.65 134 112.5V49.5C134 37.3497 124.15 27.5 112 27.5Z" fill="white" fill-opacity="0.01"/>
</g>
<path d="M112 27.5H48C35.8497 27.5 26 37.3497 26 49.5V112.5C26 124.65 35.8497 134.5 48 134.5H112C124.15 134.5 134 124.65 134 112.5V49.5C134 37.3497 124.15 27.5 112 27.5Z" fill="white"/>
<path d="M66.3636 63.9545C66.3636 56.4341 72.4818 50.3182 80 50.3182C87.5181 50.3182 93.6363 56.4341 93.6363 63.9545V84.4091H100.455V63.9545C100.455 52.6568 91.2977 43.5 80 43.5C68.7022 43.5 59.5454 52.6568 59.5454 63.9545V84.4091H66.3636V63.9545Z" fill="#E4E5EC"/>
<g filter="url(#filter1_d)">
<path d="M101.568 118.5H58.4321C55.2821 118.5 52.7275 115.945 52.7275 112.795V76.4773C52.7275 73.3273 55.2821 70.7727 58.4321 70.7727H101.568C104.718 70.7727 107.273 73.3273 107.273 76.4773V112.795C107.273 115.945 104.718 118.5 101.568 118.5Z" fill="#FFCD1D" fill-opacity="0.01"/>
</g>
<path d="M101.568 118.5H58.4321C55.2821 118.5 52.7275 115.945 52.7275 112.795V76.4771C52.7275 73.3271 55.2821 70.7725 58.4321 70.7725H101.568C104.718 70.7725 107.273 73.3271 107.273 76.4771V112.795C107.273 115.945 104.718 118.5 101.568 118.5Z" fill="#FFCD1D"/>
<path d="M79.9998 98.0455C83.7654 98.0455 86.818 94.9929 86.818 91.2273C86.818 87.4618 83.7654 84.4092 79.9998 84.4092C76.2342 84.4092 73.1816 87.4618 73.1816 91.2273C73.1816 94.9929 76.2342 98.0455 79.9998 98.0455Z" fill="#ECAE0F"/>
<path d="M83.4095 91.2273H76.5913V104.864H83.4095V91.2273Z" fill="#ECAE0F"/>
</g>
<defs>
<filter id="filter0_d" x="5.342" y="15.6955" width="149.316" height="148.316" filterUnits="userSpaceOnUse" color-interpolation-filters="sRGB">
<feFlood flood-opacity="0" result="BackgroundImageFix"/>
<feColorMatrix in="SourceAlpha" type="matrix" values="0 0 0 0 0 0 0 0 0 0 0 0 0 0 0 0 0 0 127 0"/>
<feOffset dy="8.85347"/>
<feGaussianBlur stdDeviation="10.329"/>
<feColorMatrix type="matrix" values="0 0 0 0 1 0 0 0 0 0.587917 0 0 0 0 0.104167 0 0 0 0.22 0"/>
<feBlend mode="normal" in2="BackgroundImageFix" result="effect1_dropShadow"/>
<feBlend mode="normal" in="SourceGraphic" in2="effect1_dropShadow" result="shape"/>
</filter>
<filter id="filter1_d" x="41.7275" y="64.7727" width="76.5455" height="69.7273" filterUnits="userSpaceOnUse" color-interpolation-filters="sRGB">
<feFlood flood-opacity="0" result="BackgroundImageFix"/>
<feColorMatrix in="SourceAlpha" type="matrix" values="0 0 0 0 0 0 0 0 0 0 0 0 0 0 0 0 0 0 127 0"/>
<feOffset dy="5"/>
<feGaussianBlur stdDeviation="5.5"/>
<feColorMatrix type="matrix" values="0 0 0 0 1 0 0 0 0 0.80475 0 0 0 0 0.1125 0 0 0 0.44 0"/>
<feBlend mode="normal" in2="BackgroundImageFix" result="effect1_dropShadow"/>
<feBlend mode="normal" in="SourceGraphic" in2="effect1_dropShadow" result="shape"/>
</filter>
<clipPath id="clip0">
<rect width="160" height="164" fill="white" transform="translate(0 0.5)"/>
</clipPath>
</defs>
</svg>
