<svg width="36" height="37" viewBox="0 0 36 37" fill="none" xmlns="http://www.w3.org/2000/svg">
<path d="M13.9195 18.3089C13.9195 16.0546 15.7465 14.2266 18.0008 14.2266C20.2551 14.2266 22.0831 16.0546 22.0831 18.3089C22.0831 20.5632 20.2551 22.3912 18.0008 22.3912C15.7465 22.3912 13.9195 20.5632 13.9195 18.3089V18.3089ZM11.7127 18.3089C11.7127 21.7819 14.5279 24.5971 18.0008 24.5971C21.4738 24.5971 24.289 21.7819 24.289 18.3089C24.289 14.836 21.4738 12.0208 18.0008 12.0208C14.5279 12.0208 11.7128 14.8358 11.7128 18.3089H11.7127ZM23.0685 11.7715C23.0684 12.0621 23.1544 12.3462 23.3158 12.588C23.4772 12.8297 23.7066 13.0181 23.9751 13.1295C24.2436 13.2408 24.539 13.27 24.8241 13.2134C25.1092 13.1568 25.3711 13.017 25.5767 12.8116C25.7823 12.6061 25.9223 12.3443 25.9791 12.0593C26.036 11.7743 26.007 11.4788 25.8959 11.2102C25.7847 10.9417 25.5965 10.7121 25.3549 10.5505C25.1133 10.3889 24.8292 10.3026 24.5386 10.3025H24.538C24.1484 10.3027 23.7748 10.4575 23.4993 10.7329C23.2238 11.0084 23.0688 11.3819 23.0685 11.7715V11.7715ZM13.0535 28.2769C11.8595 28.2225 11.2106 28.0237 10.7793 27.8556C10.2076 27.6331 9.79966 27.368 9.37076 26.9397C8.94186 26.5113 8.67637 26.1038 8.45477 25.5321C8.28666 25.101 8.08778 24.4519 8.03351 23.2579C7.97414 21.9671 7.96228 21.5794 7.96228 18.3091C7.96228 15.0389 7.97512 14.6522 8.03351 13.3603C8.08788 12.1664 8.28822 11.5185 8.45477 11.0862C8.67735 10.5144 8.94245 10.1065 9.37076 9.67759C9.79908 9.24869 10.2066 8.9832 10.7793 8.7616C11.2104 8.59349 11.8595 8.39461 13.0535 8.34034C14.3443 8.28097 14.732 8.26912 18.0008 8.26912C21.2696 8.26912 21.6577 8.28175 22.9496 8.34054C24.1436 8.39491 24.7914 8.59525 25.2238 8.7618C25.7955 8.9834 26.2034 9.24948 26.6323 9.67779C27.0612 10.1061 27.3257 10.5146 27.5483 11.0864C27.7164 11.5174 27.9153 12.1666 27.9696 13.3605C28.029 14.6524 28.0408 15.0391 28.0408 18.3093C28.0408 21.5796 28.029 21.9662 27.9696 23.2581C27.9152 24.4521 27.7154 25.101 27.5483 25.5323C27.3257 26.104 27.0606 26.5119 26.6323 26.9398C26.204 27.3678 25.7955 27.6333 25.2238 27.8558C24.7927 28.024 24.1436 28.2228 22.9496 28.2771C21.6588 28.3365 21.2711 28.3483 18.0008 28.3483C14.7306 28.3483 14.3439 28.3365 13.0535 28.2771V28.2769ZM12.9521 6.13715C11.6484 6.19652 10.7576 6.40323 9.97963 6.70595C9.17444 7.01856 8.4919 7.43796 7.81034 8.11844C7.12878 8.79893 6.71046 9.48156 6.39784 10.2877C6.09512 11.0662 5.88841 11.9565 5.82904 13.2602C5.7687 14.5659 5.75488 14.9833 5.75488 18.3089C5.75488 21.6345 5.7687 22.052 5.82904 23.3577C5.88841 24.6614 6.09512 25.5516 6.39784 26.3301C6.71046 27.1353 7.12888 27.8192 7.81034 28.4994C8.4918 29.1796 9.17346 29.5984 9.97963 29.9119C10.7591 30.2146 11.6484 30.4213 12.9521 30.4807C14.2585 30.5401 14.6752 30.5548 18.0008 30.5548C21.3264 30.5548 21.7439 30.541 23.0496 30.4807C24.3533 30.4213 25.2435 30.2146 26.022 29.9119C26.8272 29.5984 27.5097 29.1799 28.1913 28.4994C28.8728 27.8189 29.2903 27.1353 29.6038 26.3301C29.9065 25.5516 30.1142 24.6613 30.1726 23.3577C30.2319 22.051 30.2458 21.6345 30.2458 18.3089C30.2458 14.9833 30.2319 14.5659 30.1726 13.2602C30.1132 11.9564 29.9065 11.0657 29.6038 10.2877C29.2903 9.48254 28.8718 8.8 28.1913 8.11844C27.5108 7.43688 26.8272 7.01856 26.023 6.70595C25.2435 6.40323 24.3532 6.19554 23.0505 6.13715C21.7446 6.07749 21.3274 6.06299 18.0023 6.06299C14.6772 6.06299 14.2589 6.0768 12.9526 6.13715" fill="white"/>
</svg>
