<svg width="36" height="37" viewBox="0 0 36 37" fill="none" xmlns="http://www.w3.org/2000/svg">
<path d="M5.4375 9.12406C5.4375 8.31835 5.72045 7.65365 6.28633 7.12997C6.85221 6.60626 7.58789 6.34442 8.4933 6.34442C9.38256 6.34442 10.102 6.60223 10.6518 7.11788C11.2176 7.64964 11.5006 8.34252 11.5006 9.19657C11.5006 9.97003 11.2257 10.6146 10.676 11.1302C10.1101 11.662 9.36639 11.9279 8.4448 11.9279H8.42054C7.53128 11.9279 6.81181 11.662 6.26208 11.1302C5.71235 10.5985 5.4375 9.92974 5.4375 9.12406ZM5.75278 30.2734V14.1274H11.1368V30.2734H5.75278ZM14.1199 30.2734H19.5039V21.2578C19.5039 20.6938 19.5686 20.2587 19.6979 19.9525C19.9243 19.4047 20.2678 18.9414 20.7286 18.5627C21.1894 18.184 21.7674 17.9947 22.4627 17.9947C24.2735 17.9947 25.1789 19.2113 25.1789 21.6445V30.2734H30.563V21.0161C30.563 18.6312 29.9971 16.8224 28.8653 15.5897C27.7335 14.357 26.238 13.7407 24.3786 13.7407C22.2929 13.7407 20.668 14.635 19.5039 16.4236V16.472H19.4796L19.5039 16.4236V14.1274H14.1199C14.1522 14.643 14.1684 16.2463 14.1684 18.9374C14.1684 21.6284 14.1522 25.4071 14.1199 30.2734Z" fill="white"/>
</svg>
