<svg width="155" height="39" viewBox="0 0 155 39" fill="none" xmlns="http://www.w3.org/2000/svg">
<g clip-path="url(#clip0)">
<path d="M52.7394 30.1149H66.9703V26.6809H56.6374V7.06708H52.7394V30.1149ZM70.0852 11.2435H73.7976V7.06708H70.0852V11.2435ZM70.0852 30.1149H73.7976V13.44H70.0852V30.1149ZM86.0961 13.0688C84.0234 13.0688 82.2909 13.9041 81.3628 15.4509V13.44H77.867V30.1149H81.5794V20.2151C81.5794 17.9568 83.0025 16.5028 85.1371 16.5028C87.2408 16.5028 88.6639 17.9568 88.6639 20.2151V30.1149H92.3763V19.2871C92.3763 15.6365 89.8085 13.0688 86.0961 13.0688ZM111.099 13.44H106.737L99.9927 20.6173V7.06708H96.2803V30.1149H99.9927V25.6291L102.591 22.8138L106.984 30.1149H111.099L105.004 20.1533L111.099 13.44ZM119.766 30.4861C123.571 30.4861 126.201 28.4443 126.201 25.4434C126.201 23.1232 124.654 21.4526 121.777 20.6483L118.807 19.813C117.848 19.5345 116.796 19.0086 116.796 17.9568C116.796 16.9049 117.755 16.1934 119.302 16.1934C121.189 16.1934 122.674 17.1524 123.293 18.7302L126.201 17.369C125.18 14.7084 122.581 13.0688 119.302 13.0688C115.621 13.0688 113.115 15.1106 113.115 18.1115C113.115 20.3698 114.569 22.0713 117.477 22.8757L120.323 23.6182C121.344 23.8966 122.519 24.3916 122.519 25.5362C122.519 26.6809 121.437 27.4543 119.766 27.4543C117.786 27.4543 116.146 26.4025 115.28 24.4225L112.403 25.8147C113.455 28.7227 116.301 30.4861 119.766 30.4861ZM153.361 30.1149L146.029 18.4827L153.268 7.06708H148.875L143.863 15.0178L138.821 7.06708H134.428L141.667 18.4827L134.335 30.1149H138.697L143.863 21.9476L148.999 30.1149H153.361Z" fill="#14142B"/>
<g filter="url(#filter0_d)">
<path d="M10.6354 13.2252C6.34363 15.5428 -0.360038 22.0449 7.15911 29.5126C9.88436 32.2593 18.3735 34.6498 30.5278 22.238" stroke="#FF0000" stroke-opacity="0.01" stroke-width="3.56475"/>
</g>
<g filter="url(#filter1_d)">
<path d="M35.3734 30.0121C39.6652 27.6945 46.3688 21.1924 38.8497 13.7247C36.1244 10.978 27.6353 8.58746 15.481 20.9993" stroke="#FF0000" stroke-opacity="0.01" stroke-width="3.56475"/>
</g>
<path d="M17.9514 24.3809L26.9924 17.7238C28.5169 16.6017 30.6631 16.928 31.7853 18.4524C32.9075 19.9769 32.5803 22.1224 31.0558 23.2445L22.5767 29.4854C21.5841 30.216 20.5334 30.8661 19.4159 31.3858C18.7181 31.7102 17.9817 32.0355 17.5991 32.1515C15.682 32.7331 13.6512 32.8329 11.686 32.4419C9.72068 32.0511 7.88245 31.1815 6.33294 29.9104C4.78535 28.6393 3.5727 27.0058 2.8066 25.1547C2.03859 23.3034 1.74023 21.2917 1.93657 19.2977C2.13483 17.3037 2.81815 15.3888 3.93264 13.7228C5.04521 12.0569 6.55237 10.6911 8.31939 9.74657C9.09878 9.32997 9.91823 9.00098 10.7627 8.76336C12.5395 8.2634 14.0632 9.80419 14.0632 11.65V12.2923C14.0632 13.7834 12.7852 14.9383 11.4704 15.6416V15.6416C11.2009 15.7854 10.9449 15.951 10.7043 16.1361C10.2346 16.4996 9.8227 16.9383 9.4897 17.4365C9.26449 17.7744 9.07778 18.1351 8.93342 18.5115C8.75441 18.9726 8.63699 19.4573 8.58887 19.9529C8.50032 20.853 8.63506 21.761 8.98154 22.5967C9.32801 23.4323 9.87467 24.1696 10.5734 24.7434C10.941 25.0452 11.3453 25.2969 11.7745 25.4934C12.1614 25.6704 12.5695 25.8025 12.9891 25.8861C13.8764 26.0625 14.7946 26.0175 15.6589 25.755C15.9137 25.6778 16.1615 25.5826 16.4003 25.4703C16.6251 25.3647 16.8213 25.2095 17.0217 25.0628V25.0628L17.9514 24.3809Z" fill="#FF3951"/>
<path d="M26.1717 15.6428L17.1306 22.2999C15.6062 23.422 13.4599 23.0957 12.3377 21.5712C11.2156 20.0467 11.5428 17.9013 13.0673 16.7792L22.0585 10.1613C22.711 9.68102 23.3871 9.23312 24.109 8.86531C24.8588 8.48326 25.8442 8.02481 26.5239 7.87216C28.4411 7.29061 30.4718 7.19076 32.4371 7.58175C34.4024 7.97261 36.2406 8.84216 37.7901 10.1133C39.3377 11.3844 40.5504 13.0179 41.3164 14.869C42.0845 16.7202 42.3828 18.732 42.1865 20.726C41.9882 22.72 41.3049 24.6349 40.1904 26.3008C39.0778 27.9668 37.5707 29.3326 35.8037 30.2771C35.0243 30.6937 34.2048 31.0227 33.3603 31.2603C31.5835 31.7603 30.0599 30.2195 30.0599 28.3737V27.7314C30.0599 26.2403 31.3378 25.0854 32.6527 24.3821V24.3821C32.9221 24.2382 33.1782 24.0727 33.4188 23.8876C33.8884 23.5241 34.3003 23.0854 34.6333 22.5872C34.8586 22.2493 35.0453 21.8886 35.1896 21.5122C35.3686 21.051 35.4861 20.5663 35.5342 20.0708C35.6227 19.1707 35.488 18.2626 35.1415 17.427C34.795 16.5914 34.2484 15.8541 33.5497 15.2803C33.182 14.9785 32.7778 14.7268 32.3485 14.5302C31.9616 14.3533 31.5536 14.2212 31.134 14.1376C30.2466 13.9612 29.3284 14.0062 28.4642 14.2687C28.2093 14.3459 27.9616 14.4411 27.7227 14.5533C27.4979 14.6589 27.3017 14.8142 27.1014 14.9609V14.9609L26.1717 15.6428Z" fill="#FF3951"/>
</g>
<defs>
<filter id="filter0_d" x="-0.870357" y="9.87448" width="35.5237" height="27.5553" filterUnits="userSpaceOnUse" color-interpolation-filters="sRGB">
<feFlood flood-opacity="0" result="BackgroundImageFix"/>
<feColorMatrix in="SourceAlpha" type="matrix" values="0 0 0 0 0 0 0 0 0 0 0 0 0 0 0 0 0 0 127 0"/>
<feOffset dy="1.06943"/>
<feGaussianBlur stdDeviation="1.4259"/>
<feColorMatrix type="matrix" values="0 0 0 0 1 0 0 0 0 0.223529 0 0 0 0 0.317647 0 0 0 0.11 0"/>
<feBlend mode="normal" in2="BackgroundImageFix" result="effect1_dropShadow"/>
<feBlend mode="normal" in="SourceGraphic" in2="effect1_dropShadow" result="shape"/>
</filter>
<filter id="filter1_d" x="11.3552" y="7.94638" width="35.5237" height="27.5553" filterUnits="userSpaceOnUse" color-interpolation-filters="sRGB">
<feFlood flood-opacity="0" result="BackgroundImageFix"/>
<feColorMatrix in="SourceAlpha" type="matrix" values="0 0 0 0 0 0 0 0 0 0 0 0 0 0 0 0 0 0 127 0"/>
<feOffset dy="1.06943"/>
<feGaussianBlur stdDeviation="1.4259"/>
<feColorMatrix type="matrix" values="0 0 0 0 1 0 0 0 0 0.223529 0 0 0 0 0.317647 0 0 0 0.11 0"/>
<feBlend mode="normal" in2="BackgroundImageFix" result="effect1_dropShadow"/>
<feBlend mode="normal" in="SourceGraphic" in2="effect1_dropShadow" result="shape"/>
</filter>
<clipPath id="clip0">
<rect width="155" height="39" fill="white"/>
</clipPath>
</defs>
</svg>
