<svg width="82" height="82" viewBox="0 0 82 82" fill="none" xmlns="http://www.w3.org/2000/svg">
<rect width="82" height="82" rx="19" fill="white"/>
<path d="M39.5597 24.9856C39.5597 23.506 38.3542 22.2868 36.89 22.4996C35.371 22.7204 33.8817 23.1293 32.4572 23.7194C30.2054 24.6521 28.1594 26.0192 26.436 27.7426C24.7126 29.4661 23.3455 31.5121 22.4128 33.7638C21.4801 36.0156 21 38.429 21 40.8663C21 43.3036 21.4801 45.717 22.4128 47.9688C23.3455 50.2206 24.7126 52.2666 26.436 53.99C28.1594 55.7134 30.2054 57.0805 32.4572 58.0132C34.709 58.9459 37.1224 59.426 39.5597 59.426L39.5597 50.5174C38.2923 50.5174 37.0373 50.2677 35.8664 49.7827C34.6955 49.2977 33.6315 48.5868 32.7354 47.6906C31.8392 46.7945 31.1283 45.7305 30.6433 44.5596C30.1583 43.3887 29.9086 42.1337 29.9086 40.8663C29.9086 39.5989 30.1583 38.3439 30.6433 37.173C31.1283 36.0021 31.8392 34.9382 32.7354 34.042C33.6316 33.1458 34.6955 32.4349 35.8664 31.9499C36.2093 31.8079 36.5595 31.686 36.915 31.5847C38.3379 31.1793 39.5597 30.0159 39.5597 28.5364L39.5597 24.9856Z" fill="#2388FF"/>
<path d="M55.1902 40.8672C56.6697 40.8672 57.889 42.0727 57.6761 43.5368C57.4553 45.0559 57.0464 46.5451 56.4564 47.9697C55.5237 50.2214 54.1566 52.2674 52.4331 53.9909C50.7097 55.7143 48.6637 57.0814 46.4119 58.0141C44.1602 58.9468 41.7468 59.4269 39.3095 59.4269L39.3095 50.5182C40.5769 50.5182 41.8318 50.2686 43.0028 49.7836C44.1737 49.2986 45.2376 48.5877 46.1338 47.6915C47.03 46.7953 47.7408 45.7314 48.2259 44.5605C48.3679 44.2175 48.4898 43.8674 48.5911 43.5119C48.9965 42.089 50.1599 40.8672 51.6394 40.8672L55.1902 40.8672Z" fill="#2388FF"/>
<path d="M58.3211 22.3145C59.8006 22.3145 61.0198 23.52 60.807 24.9841C60.5862 26.5032 60.1773 27.9924 59.5872 29.4169C58.6545 31.6687 57.2874 33.7147 55.564 35.4381C53.8406 37.1616 51.7946 38.5287 49.5428 39.4614C48.1183 40.0514 46.629 40.4603 45.11 40.6811C43.6458 40.8939 42.4403 39.6747 42.4403 38.1952L42.4403 34.6444C42.4403 33.1649 43.6621 32.0015 45.085 31.5961C45.4405 31.4948 45.7907 31.3729 46.1336 31.2308C47.3045 30.7458 48.3685 30.0349 49.2646 29.1388C50.1608 28.2426 50.8717 27.1787 51.3567 26.0077C51.4988 25.6648 51.6206 25.3147 51.7219 24.9591C52.1274 23.5362 53.2907 22.3145 54.7703 22.3145L58.3211 22.3145Z" fill="#2388FF"/>
</svg>
