<?xml version="1.0" standalone="no"?>
<!DOCTYPE svg PUBLIC "-//W3C//DTD SVG 1.1//EN" "http://www.w3.org/Graphics/SVG/1.1/DTD/svg11.dtd" >
<svg xmlns="http://www.w3.org/2000/svg" xmlns:xlink="http://www.w3.org/1999/xlink" version="1.1">
<metadata></metadata>
<defs>
<font id="plus_jakarta_displaymedium" horiz-adv-x="1759" >
<font-face units-per-em="2048" ascent="1638" descent="-410" />
<missing-glyph horiz-adv-x="360" />
<glyph unicode="&#xfb01;" horiz-adv-x="1218" d="M16 883v221h199v63q0 183 109.5 286t293.5 103q62 0 107 -10v-213q-37 6 -76 6q-89 0 -138.5 -44t-49.5 -128v-63h250v-221h-250v-883h-246v883h-199zM864 0v1104h246v-1104h-246zM864 1249v277h246v-277h-246z" />
<glyph unicode="&#xfb02;" horiz-adv-x="1234" d="M16 883v221h199v63q0 183 109.5 286t293.5 103q62 0 107 -10v-213q-37 6 -76 6q-89 0 -138.5 -44t-49.5 -128v-63h250v-221h-250v-883h-246v883h-199zM872 0v1526h246v-1526h-246z" />
<glyph horiz-adv-x="0" />
<glyph horiz-adv-x="682" />
<glyph horiz-adv-x="0" />
<glyph horiz-adv-x="0" />
<glyph unicode="&#xd;" horiz-adv-x="360" />
<glyph unicode=" "  horiz-adv-x="360" />
<glyph unicode="&#x09;" horiz-adv-x="360" />
<glyph unicode="&#xa0;" horiz-adv-x="360" />
<glyph unicode="!" horiz-adv-x="561" d="M154 0v276h254v-276h-254zM154 1526h254l-17 -1067h-221z" />
<glyph unicode="&#x22;" horiz-adv-x="968" d="M164 983v543h227v-543h-227zM575 983v543h230v-543h-230z" />
<glyph unicode="#" horiz-adv-x="1611" d="M10 346v219h309l113 396h-246v221h310l100 344h252l-98 -344h352l98 344h254l-98 -344h246v-221h-310l-112 -396h245v-219h-311l-96 -346h-254l98 346h-352l-100 -346h-252l98 346h-246zM571 565h355l112 396h-352z" />
<glyph unicode="$" horiz-adv-x="1310" d="M68 397l221 101q43 -116 127 -190.5t190 -96.5v442l-114 35q-186 56 -280.5 165t-94.5 259q0 187 134.5 307t354.5 131v191h182v-205q158 -33 274.5 -131.5t164.5 -233.5l-223 -102q-59 171 -216 229v-442l66 -20q381 -118 381 -418q0 -177 -121.5 -295t-325.5 -141v-187 h-182v185q-195 23 -340 136.5t-198 280.5zM377 1124q0 -143 188 -200l41 -13v410q-103 -7 -166 -62t-63 -135zM788 213q87 19 137 68.5t50 117.5q0 76 -45 122t-139 75h-3v-383z" />
<glyph unicode="%" horiz-adv-x="2156" d="M180 1171q0 157 110.5 268t268.5 111q157 0 267 -111t110 -268t-111 -267.5t-266 -110.5q-157 0 -268 110.5t-111 267.5zM387 1171q0 -71 50 -121.5t122 -50.5q71 0 121.5 50.5t50.5 121.5t-50.5 121.5t-121.5 50.5q-72 0 -122 -50.5t-50 -121.5zM604 0l682 1526h248 l-682 -1526h-248zM1221 354q0 157 109.5 267t266.5 110q158 0 268.5 -110t110.5 -267q0 -158 -110.5 -268.5t-268.5 -110.5q-157 0 -266.5 110.5t-109.5 268.5zM1425 354q0 -72 50.5 -122t121.5 -50q72 0 122 50t50 122q0 71 -50 121.5t-122 50.5q-71 0 -121.5 -51 t-50.5 -121z" />
<glyph unicode="&#x26;" horiz-adv-x="1777" d="M170 385q0 141 78 247t244 187l34 19q-79 92 -115 170t-36 159q0 162 121 272.5t299 110.5q174 0 290.5 -105t116.5 -263q0 -120 -79 -208t-261 -183l264 -281l205 217h254l-321 -362l346 -365h-297l-193 205q-115 -120 -229 -175t-252 -55q-212 0 -340.5 112.5 t-128.5 297.5zM422 399q0 -100 64 -158.5t171 -58.5q89 0 162 40.5t160 131.5l-315 336l-54 -26q-188 -92 -188 -265zM596 1169q0 -51 30.5 -105t98.5 -128h2q141 70 197.5 125.5t56.5 122.5q0 72 -53 120t-133 48q-84 0 -141.5 -53t-57.5 -130z" />
<glyph unicode="'" horiz-adv-x="555" d="M164 983v543h227v-543h-227z" />
<glyph unicode="(" horiz-adv-x="768" d="M174 596q0 536 344 930h209q-293 -437 -293 -930q0 -500 293 -934h-209q-344 400 -344 934z" />
<glyph unicode=")" horiz-adv-x="768" d="M41 -338q293 434 293 934q0 493 -293 930h211q342 -395 342 -930q0 -536 -342 -934h-211z" />
<glyph unicode="*" horiz-adv-x="958" d="M82 1157l61 182l238 -77v264h197v-264l239 77l60 -182l-240 -82l156 -209l-158 -114l-156 209l-155 -209l-156 114l154 209z" />
<glyph unicode="+" horiz-adv-x="1249" d="M170 633v217h346v346h219v-346h346v-217h-346v-348h-219v348h-346z" />
<glyph unicode="," horiz-adv-x="628" d="M143 -240l82 516h240l-152 -516h-170z" />
<glyph unicode="-" horiz-adv-x="1132" d="M143 440v222h846v-222h-846z" />
<glyph unicode="." horiz-adv-x="581" d="M164 0v276h254v-276h-254z" />
<glyph unicode="/" horiz-adv-x="935" d="M-10 0l682 1526h274l-682 -1526h-274z" />
<glyph unicode="0" horiz-adv-x="1406" d="M92 764q0 354 168 570t442 216q276 0 444.5 -216t168.5 -570q0 -234 -75 -413t-214 -277.5t-321 -98.5q-274 0 -443.5 217.5t-169.5 571.5zM350 764q0 -254 96 -402.5t259 -148.5q164 0 259 147.5t95 403.5q0 255 -95.5 402t-261.5 147q-163 0 -257.5 -147t-94.5 -402z " />
<glyph unicode="1" horiz-adv-x="870" d="M49 1305v219l547 2v-1526h-260v1305h-287z" />
<glyph unicode="2" horiz-adv-x="1193" d="M74 1214q54 155 193 245.5t325 90.5q212 0 345.5 -119t133.5 -309q0 -122 -70 -241t-227 -281l-364 -379h688v-221h-1020l-2 193l416 432q132 136 195 211t93.5 137t30.5 125q0 102 -61.5 160.5t-169.5 58.5q-107 0 -185.5 -56t-113.5 -159z" />
<glyph unicode="3" horiz-adv-x="1226" d="M70 311l206 113q38 -102 119.5 -158.5t190.5 -56.5q128 0 206 74.5t78 197.5q0 120 -77.5 193.5t-206.5 73.5q-81 0 -150 -27l-51 129l393 455l-637 2v219h928v-207l-319 -375q170 -28 274 -153t104 -304q0 -221 -153.5 -366.5t-388.5 -145.5q-181 0 -319 90t-197 246z " />
<glyph unicode="4" horiz-adv-x="1351" d="M70 340v217l721 969h264v-969h233v-217h-233v-340h-252v340h-733zM328 557h475v649z" />
<glyph unicode="5" horiz-adv-x="1236" d="M70 311l204 113q38 -98 126 -156.5t196 -58.5q125 0 204 77.5t79 202.5t-79 202t-206 77q-81 0 -143.5 -34.5t-92.5 -98.5l-194 47l121 844h807v-219l-627 2l-53 -377q89 59 223 59q221 0 362.5 -137t141.5 -352q0 -150 -70 -271t-194 -188.5t-279 -67.5 q-184 0 -326.5 91t-199.5 245z" />
<glyph unicode="6" horiz-adv-x="1204" d="M78 481q0 106 40.5 205t121.5 209l456 631h293l-409 -563q36 4 57 4q136 0 249 -68t176.5 -181t63.5 -245q0 -214 -148.5 -356t-375.5 -142q-229 0 -376.5 143.5t-147.5 362.5zM336 479q0 -117 76 -193.5t190 -76.5q112 0 188 76.5t76 193.5q0 119 -75 194t-189 75 t-190 -75t-76 -194z" />
<glyph unicode="7" horiz-adv-x="1097" d="M49 1309v219h1000v-219l-631 -1309h-275l645 1309h-739z" />
<glyph unicode="8" horiz-adv-x="1292" d="M98 449q0 121 61 216t175 152q-81 49 -127.5 135.5t-46.5 186.5q0 179 137 295t348 116t348 -115.5t137 -295.5q0 -99 -46 -185t-126 -137q115 -59 176.5 -153t61.5 -215q0 -204 -157.5 -339t-393.5 -135t-391.5 135t-155.5 339zM358 446q0 -110 80.5 -179.5t206.5 -69.5 q128 0 208.5 69.5t80.5 179.5t-81 180t-208 70q-126 0 -206.5 -70t-80.5 -180zM424 1122q0 -91 61.5 -147.5t159.5 -56.5q97 0 159 57t62 147q0 92 -62 150.5t-159 58.5t-159 -58.5t-62 -150.5z" />
<glyph unicode="9" horiz-adv-x="1204" d="M78 1053q0 214 148.5 355.5t375.5 141.5q228 0 376 -143t148 -363q0 -104 -40 -202.5t-121 -210.5l-457 -631h-293l410 563q-40 -4 -60 -4q-135 0 -247.5 68t-176 181.5t-63.5 244.5zM336 1047q0 -117 76 -193t190 -76q113 0 188.5 75.5t75.5 193.5t-76 194t-188 76 q-114 0 -190 -75.5t-76 -194.5z" />
<glyph unicode=":" horiz-adv-x="581" d="M164 0v276h254v-276h-254zM164 825v277h254v-277h-254z" />
<glyph unicode=";" horiz-adv-x="657" d="M164 -240l82 516h239l-151 -516h-170zM242 825v277h252v-277h-252z" />
<glyph unicode="&#x3c;" horiz-adv-x="1153" d="M117 430v242l921 432v-256l-616 -297l616 -295v-256z" />
<glyph unicode="=" horiz-adv-x="1312" d="M221 387v217h873v-217h-873zM221 879v217h873v-217h-873z" />
<glyph unicode="&#x3e;" horiz-adv-x="1112" d="M117 0v256l614 295l-614 297v256l921 -432v-242z" />
<glyph unicode="?" horiz-adv-x="1148" d="M82 1214q50 153 183.5 244.5t307.5 91.5q109 0 200 -34t150 -90.5t91.5 -129t32.5 -151.5q0 -73 -34.5 -143.5t-66.5 -106.5t-101 -103l-18 -18q-80 -76 -122.5 -142.5t-42.5 -148.5v-24h-240v37q0 65 15.5 122.5t46.5 106t60 82.5t72 76q6 6 31.5 31t32.5 32.5t27.5 30 t27.5 32.5t20.5 30.5t18.5 35t9.5 34t4.5 38.5q0 75 -56.5 122.5t-158.5 47.5q-217 0 -286 -215zM418 0v276h254v-276h-254z" />
<glyph unicode="@" horiz-adv-x="1929" d="M84 682q0 182 68 343t185.5 276t281 182t348.5 67q182 0 345 -67.5t280 -183t185 -276.5t68 -341q0 -223 -101.5 -354t-273.5 -131q-98 0 -174 46t-104 122q-42 -53 -117 -83t-164 -30q-176 0 -299 125.5t-123 314.5q0 188 124 316.5t298 128.5q88 0 160 -30.5t109 -84.5 v94h200v-577q0 -67 28.5 -107.5t74.5 -40.5q66 0 102.5 77.5t36.5 213.5q0 301 -181 486.5t-474 185.5q-192 0 -342.5 -85t-234 -238.5t-83.5 -348.5q0 -193 84 -347t235 -240.5t341 -86.5q196 0 344 92l90 -172q-183 -116 -434 -116q-185 0 -349 67t-281 182.5t-185 277 t-68 343.5zM690 692q0 -107 71 -179.5t177 -72.5q103 0 172.5 73.5t69.5 182.5q0 106 -69 176.5t-173 73.5q-106 3 -177 -69.5t-71 -184.5z" />
<glyph unicode="A" horiz-adv-x="1449" d="M27 0l534 1526h328l536 -1526h-274l-115 336h-622l-113 -336h-274zM489 563h472l-236 692z" />
<glyph unicode="B" horiz-adv-x="1386" d="M139 0v1526h641q220 0 347.5 -113.5t127.5 -308.5q0 -175 -131 -283q193 -122 193 -358q0 -217 -143.5 -340t-393.5 -123h-641zM397 227h406q114 0 183 65t69 171t-69 170.5t-183 64.5h-406v-471zM397 926h391q92 0 147.5 52t55.5 138q0 85 -55.5 138t-147.5 53h-391 v-381z" />
<glyph unicode="C" horiz-adv-x="1562" d="M88 764q0 224 98 404t272 281t390 101q232 0 403.5 -114.5t233.5 -282.5l-230 -111q-49 125 -155.5 200t-251.5 75q-223 0 -362.5 -153.5t-139.5 -399.5q0 -247 139.5 -401t362.5 -154q145 0 251.5 74.5t155.5 199.5l230 -110q-62 -169 -234 -283.5t-403 -114.5 q-161 0 -302 59.5t-241.5 163.5t-158.5 251t-58 315z" />
<glyph unicode="D" horiz-adv-x="1513" d="M139 0v1526h498q236 0 415.5 -96t276 -269t96.5 -397t-96.5 -397.5t-276 -270t-415.5 -96.5h-498zM397 227h246q238 0 379 146t141 391q0 244 -141.5 389t-378.5 145h-246v-1071z" />
<glyph unicode="E" horiz-adv-x="1245" d="M139 0v1526h1010v-228h-752v-419h711v-228h-711v-424h752l-2 -227h-1008z" />
<glyph unicode="F" horiz-adv-x="1216" d="M139 0v1526h1020v-228h-762v-446h684v-225h-684v-627h-258z" />
<glyph unicode="G" horiz-adv-x="1607" d="M88 764q0 222 98.5 402t272.5 282t389 102q226 0 399 -112t238 -285l-230 -111q-48 127 -155.5 201t-251.5 74q-223 0 -362.5 -154t-139.5 -399q0 -248 143.5 -401.5t378.5 -153.5q154 0 262 61.5t150 159.5v176h-410v228h660v-424q-58 -193 -233.5 -314t-428.5 -121 q-167 0 -312 60t-247.5 164.5t-161.5 250.5t-59 314z" />
<glyph unicode="H" horiz-adv-x="1474" d="M139 0v1526h258v-684h680v684h260v-1526h-260v614h-680v-614h-258z" />
<glyph unicode="I" horiz-adv-x="536" d="M139 0v1526h258v-1526h-258z" />
<glyph unicode="J" horiz-adv-x="743" d="M37 0v242h90q100 0 159.5 58.5t59.5 156.5v1069h260v-1061q0 -211 -130 -338t-349 -127h-90z" />
<glyph unicode="K" horiz-adv-x="1359" d="M139 0v1526h258v-652l564 652h301l-484 -565l565 -961h-294l-441 758l-211 -242v-516h-258z" />
<glyph unicode="L" horiz-adv-x="1136" d="M139 0v1526h258v-1299h684v-227h-942z" />
<glyph unicode="M" horiz-adv-x="1781" d="M139 0v1526h246l506 -690l508 690h246v-1526h-261v1065l-479 -645h-28l-480 661v-1081h-258z" />
<glyph unicode="N" horiz-adv-x="1486" d="M139 0v1526h205l746 -1026v1026h260v-1526h-207l-746 1036v-1036h-258z" />
<glyph unicode="O" d="M88 764q0 167 61 313.5t166 250t251.5 163t312.5 59.5t312.5 -59.5t252 -163t166.5 -250t61 -313.5q0 -223 -104 -404t-285 -283t-403 -102q-165 0 -311.5 60t-251.5 164t-166.5 251t-61.5 314zM346 764q0 -155 69 -281.5t191.5 -198t272.5 -71.5q151 0 273 71.5 t190.5 197.5t68.5 282q0 155 -68.5 280.5t-190.5 197t-273 71.5t-273.5 -71.5t-191 -197t-68.5 -280.5z" />
<glyph unicode="P" horiz-adv-x="1327" d="M139 0v1526h588q239 0 386 -128t147 -351q0 -222 -147.5 -350t-385.5 -128h-330v-569h-258zM397 795h330q122 0 196 69t74 183t-74 182.5t-196 68.5h-330v-503z" />
<glyph unicode="Q" d="M88 764q0 167 61 313.5t166 250t251.5 163t312.5 59.5t312.5 -59.5t252 -163t166.5 -250t61 -313.5q0 -207 -91 -378t-249 -277l215 -375h-278l-154 274q-122 -33 -235 -33q-165 0 -311.5 60t-251.5 164t-166.5 251t-61.5 314zM346 764q0 -155 69 -281.5t191.5 -198 t272.5 -71.5q59 0 114 12l-215 385h266l164 -286q95 75 149 189.5t54 250.5q0 155 -68.5 280.5t-190.5 197t-273 71.5t-273.5 -71.5t-191 -197t-68.5 -280.5z" />
<glyph unicode="R" horiz-adv-x="1394" d="M139 0v1526h588q239 0 386 -128t147 -351q0 -156 -75 -268t-208 -165l352 -614h-295l-321 569h-316v-569h-258zM397 795h330q122 0 196 69t74 183t-74 182.5t-196 68.5h-330v-503z" />
<glyph unicode="S" horiz-adv-x="1310" d="M68 397l221 101q53 -140 161.5 -217.5t241.5 -77.5q127 0 205 55t78 141q0 76 -45 122t-139 75l-299 92q-186 56 -280.5 165t-94.5 259q0 195 145.5 316.5t378.5 121.5q211 0 368.5 -106t217.5 -273l-223 -102q-41 121 -135.5 187.5t-225.5 66.5q-119 0 -192.5 -55.5 t-73.5 -143.5q0 -143 188 -200l289 -88q381 -118 381 -418q0 -198 -150 -320.5t-393 -122.5q-223 0 -394 117.5t-230 304.5z" />
<glyph unicode="T" horiz-adv-x="1148" d="M47 1298v228h1057v-228h-397v-1298h-261v1298h-399z" />
<glyph unicode="U" horiz-adv-x="1464" d="M139 541v985h260v-985q0 -148 93 -240t241 -92q146 0 239 93t93 239v985h262v-985q0 -248 -164.5 -407t-429.5 -159q-266 0 -430 159t-164 407z" />
<glyph unicode="V" horiz-adv-x="1421" d="M27 1526h286l398 -1241l397 1241h287l-510 -1526h-348z" />
<glyph unicode="W" horiz-adv-x="2123" d="M47 1526h279l299 -1186l286 1186h314l286 -1186l301 1186h267l-402 -1526h-323l-291 1180l-293 -1180h-324z" />
<glyph unicode="X" horiz-adv-x="1353" d="M47 0l485 770l-479 756h291l334 -527l332 527h290l-479 -756l486 -770h-289l-340 541l-342 -541h-289z" />
<glyph unicode="Y" horiz-adv-x="1345" d="M27 1526h288l359 -590l356 590h291l-516 -842v-684h-260v682z" />
<glyph unicode="Z" horiz-adv-x="1181" d="M37 0v199l774 1099h-731v228h1046v-197l-776 -1102h797v-227h-1110z" />
<glyph unicode="[" horiz-adv-x="768" d="M174 -338v1864h512v-219h-258v-1426h258v-219h-512z" />
<glyph unicode="\" horiz-adv-x="935" d="M-10 1526h274l682 -1526h-274z" />
<glyph unicode="]" horiz-adv-x="768" d="M82 -119h258v1426h-258v219h512v-1864h-512v219z" />
<glyph unicode="^" horiz-adv-x="1271" d="M170 862l348 664h238l348 -664h-277l-190 365l-191 -365h-276z" />
<glyph unicode="_" horiz-adv-x="944" d="M-20 0h985v-221h-985v221z" />
<glyph unicode="`" horiz-adv-x="454" d="M41 1634h229l144 -323h-181z" />
<glyph unicode="a" horiz-adv-x="1095" d="M57 303q0 121 91.5 203t261.5 119l362 77v35q0 76 -57.5 123t-149.5 47q-88 0 -155.5 -45.5t-98.5 -124.5l-213 107q48 127 176 205.5t291 78.5q201 0 327 -109.5t126 -281.5v-737h-232v123q-124 -148 -327 -148q-182 0 -292 92.5t-110 235.5zM313 305q0 -63 47 -99 t127 -36q123 0 204 78.5t81 195.5v72l-313 -70q-69 -15 -107.5 -52.5t-38.5 -88.5z" />
<glyph unicode="b" horiz-adv-x="1329" d="M119 0v1526h246v-543q59 70 149.5 107.5t202.5 37.5q115 0 218 -44.5t177.5 -120.5t118 -183.5t43.5 -228.5q0 -244 -161.5 -410t-397.5 -166q-114 0 -209.5 40.5t-155.5 115.5v-131h-231zM365 551q0 -153 91 -250.5t234 -97.5q142 0 235 98t93 250t-93.5 251t-234.5 99 q-142 0 -233.5 -98.5t-91.5 -251.5z" />
<glyph unicode="c" horiz-adv-x="1155" d="M57 553q0 163 73.5 294.5t203.5 206t291 74.5q173 0 307 -88t186 -229l-213 -106q-33 90 -107 143t-173 53q-135 0 -223.5 -98.5t-88.5 -251.5q0 -151 88.5 -249.5t223.5 -98.5q100 0 173.5 52t106.5 144l213 -108q-51 -138 -185.5 -227t-307.5 -89q-243 0 -405.5 165.5 t-162.5 412.5z" />
<glyph unicode="d" horiz-adv-x="1329" d="M57 551q0 121 43.5 228.5t118 183.5t177.5 120.5t218 44.5q110 0 202.5 -38.5t150.5 -108.5v545h245v-1526h-233v129q-61 -73 -156.5 -113.5t-206.5 -40.5q-156 0 -284.5 75.5t-201.5 207.5t-73 293zM313 551q0 -152 92.5 -250t235.5 -98q142 0 234 97.5t92 250.5 q0 152 -92.5 251t-233.5 99q-143 0 -235.5 -99t-92.5 -251z" />
<glyph unicode="e" horiz-adv-x="1173" d="M57 553q0 248 156.5 411.5t390.5 163.5q152 0 275 -73t190.5 -195t67.5 -268q0 -57 -13 -111h-811q9 -130 96 -209t216 -79q185 0 268 153l203 -98q-52 -121 -180 -197t-293 -76q-123 0 -229 45t-179.5 122.5t-115.5 184t-42 226.5zM317 672h555q-6 109 -83.5 180.5 t-184.5 71.5q-110 0 -188 -66.5t-99 -185.5z" />
<glyph unicode="f" horiz-adv-x="753" d="M16 883v221h199v63q0 183 109.5 286t293.5 103q62 0 107 -10v-213q-37 6 -76 6q-89 0 -138.5 -44t-49.5 -128v-63h250v-221h-250v-883h-246v883h-199z" />
<glyph unicode="g" horiz-adv-x="1300" d="M57 594q0 156 74.5 279.5t197.5 189t269 65.5q112 0 202 -41t150 -116v133h234v-1051q0 -147 -74 -263.5t-200 -179.5t-279 -63q-179 0 -315 86.5t-189 227.5l213 106q30 -88 105 -141t184 -53q133 0 221 76.5t88 203.5v137q-123 -135 -336 -135q-111 0 -211 40.5 t-173.5 110.5t-117 171t-43.5 217zM313 592q0 -136 88.5 -222.5t225.5 -86.5q136 0 223.5 87t87.5 222t-89 222t-224 87q-133 0 -222.5 -86.5t-89.5 -222.5z" />
<glyph unicode="h" horiz-adv-x="1177" d="M119 0v1526h246v-531q47 64 125 98.5t174 34.5q185 0 300 -114t115 -297v-717h-245v655q0 112 -64.5 179t-169.5 67q-106 0 -170.5 -67t-64.5 -179v-655h-246z" />
<glyph unicode="i" horiz-adv-x="466" d="M111 0v1104h245v-1104h-245zM111 1249v277h245v-277h-245z" />
<glyph unicode="j" horiz-adv-x="454" d="M-133 -231q44 -7 78 -7q88 0 137 43.5t49 128.5v1170h246v-1170q0 -184 -109.5 -285.5t-294.5 -101.5q-65 0 -106 9v213zM131 1249v277h246v-277h-246z" />
<glyph unicode="k" horiz-adv-x="1095" d="M119 0v1526h246v-897l446 475h289l-404 -445l404 -659h-273l-290 483l-172 -186v-297h-246z" />
<glyph unicode="l" horiz-adv-x="481" d="M119 0v1526h246v-1526h-246z" />
<glyph unicode="m" horiz-adv-x="1820" d="M119 0v1104h231v-135q42 77 119 118t178 41q110 0 197.5 -47.5t140.5 -134.5q50 85 140.5 133.5t203.5 48.5q173 0 283 -114t110 -297v-717h-245v655q0 115 -59 180.5t-158 65.5q-98 0 -158 -66t-60 -180v-655h-245v655q0 115 -59 180.5t-158 65.5q-98 0 -156.5 -66 t-58.5 -180v-655h-246z" />
<glyph unicode="n" horiz-adv-x="1177" d="M119 0v1104h231v-133q45 76 127.5 116.5t186.5 40.5q184 0 299.5 -114.5t115.5 -296.5v-717h-245v655q0 112 -64.5 179t-169.5 67q-106 0 -170.5 -67t-64.5 -179v-655h-246z" />
<glyph unicode="o" horiz-adv-x="1271" d="M57 553q0 164 76.5 296t209.5 205.5t294 73.5t293.5 -73.5t209.5 -205.5t77 -296q0 -123 -45.5 -231t-123.5 -184t-185 -119.5t-226 -43.5q-160 0 -293 74t-210 207t-77 297zM313 551q0 -152 91.5 -250t232.5 -98q140 0 232 98t92 250t-92 251t-232 99q-141 0 -232.5 -99 t-91.5 -251z" />
<glyph unicode="p" horiz-adv-x="1329" d="M119 -410v1514h231v-139q57 77 153 120t212 43q115 0 218.5 -44t178 -120t118.5 -183t44 -228q0 -161 -74 -294t-203 -208.5t-284 -75.5q-108 0 -198.5 36.5t-149.5 101.5v-523h-246zM365 551q0 -152 91.5 -250t233.5 -98q141 0 234.5 99t93.5 249q0 152 -93.5 251 t-234.5 99q-143 0 -234 -98t-91 -252z" />
<glyph unicode="q" horiz-adv-x="1329" d="M57 553q0 121 43.5 228t118 183t177.5 120t218 44q116 0 211 -42t154 -119v137h233v-1514h-245v525q-60 -67 -151.5 -103.5t-199.5 -36.5q-155 0 -283.5 75.5t-202 208.5t-73.5 294zM313 551q0 -151 93 -249.5t235 -98.5q141 0 233.5 98t92.5 250q0 153 -92 251.5 t-234 98.5q-143 0 -235.5 -99t-92.5 -251z" />
<glyph unicode="r" horiz-adv-x="786" d="M119 0v1104h231v-154q78 166 299 166h103v-221h-134q-116 0 -184.5 -71.5t-68.5 -198.5v-625h-246z" />
<glyph unicode="s" horiz-adv-x="1011" d="M49 285l191 92q42 -97 120 -149t177 -52q83 0 132.5 35t49.5 92q0 88 -146 127l-188 49q-143 39 -216 120.5t-73 195.5q0 149 113.5 241t296.5 92q162 0 284 -76t173 -208l-193 -90q-31 78 -101 123t-163 45q-76 0 -121 -32t-45 -85q0 -85 133 -123l197 -55 q143 -40 218 -121.5t75 -196.5q0 -149 -118.5 -241.5t-307.5 -92.5q-173 0 -304.5 83t-183.5 227z" />
<glyph unicode="t" horiz-adv-x="798" d="M29 883v221h32q80 0 124 43.5t44 122.5v176h246v-342h262v-221h-262v-512q0 -183 195 -183q26 0 73 7v-197q-65 -10 -127 -10q-186 0 -286.5 100t-100.5 283v512h-200z" />
<glyph unicode="u" horiz-adv-x="1177" d="M98 418v686h246v-655q0 -112 65 -179t171 -67q105 0 169 67t64 179v655h246v-1104h-234v127q-46 -72 -127 -112t-182 -40q-183 0 -300.5 125.5t-117.5 317.5z" />
<glyph unicode="v" horiz-adv-x="1122" d="M16 1104h260l285 -776l285 776h260l-436 -1104h-219z" />
<glyph unicode="w" d="M16 1104h260l234 -742l233 742h273l233 -742l232 742h262l-383 -1104h-219l-260 791l-263 -791h-221z" />
<glyph unicode="x" horiz-adv-x="1122" d="M27 0l389 553l-389 551h286l248 -361l250 361h287l-391 -551l389 -553h-289l-246 360l-246 -360h-288z" />
<glyph unicode="y" horiz-adv-x="1163" d="M16 1104h269l297 -780l297 780h268l-492 -1233q-14 -35 -24 -57t-30.5 -59.5t-41 -62t-53 -54t-69 -47.5t-87 -30t-108.5 -12q-97 0 -162 29v207q62 -16 127 -16q50 0 86.5 12.5t60 38t35 45t25.5 53.5l37 86z" />
<glyph unicode="z" horiz-adv-x="970" d="M33 0v201l579 682h-553v221h877v-201l-571 -682h573v-221h-905z" />
<glyph unicode="{" horiz-adv-x="727" d="M72 475v221h63q54 0 82.5 33t28.5 92v383q0 150 92.5 236t257.5 86h90v-219h-90q-45 0 -71.5 -29.5t-26.5 -79.5v-356q2 -80 -28.5 -146.5t-88.5 -107.5q57 -37 88 -101t29 -141v-356q0 -50 26.5 -79.5t71.5 -29.5h90v-219h-90q-165 0 -257.5 86t-92.5 236v366 q0 59 -28.5 92t-82.5 33h-63z" />
<glyph unicode="|" horiz-adv-x="735" d="M242 -389v2120h252v-2120h-252z" />
<glyph unicode="}" horiz-adv-x="727" d="M41 -119h90q46 0 72.5 30t25.5 79v356q-2 77 29 141t88 101q-58 41 -88.5 107.5t-28.5 146.5v356q1 49 -25.5 79t-72.5 30h-90v219h90q165 0 258.5 -86t93.5 -236v-383q0 -59 28 -92t83 -33h61v-221h-61q-55 0 -83 -32.5t-28 -92.5v-366q0 -150 -93.5 -236t-258.5 -86 h-90v219z" />
<glyph unicode="~" horiz-adv-x="1398" d="M211 582q10 165 87.5 251.5t211.5 86.5q51 0 96 -14t77 -34t61 -40t60.5 -34t63.5 -14q98 0 117 127h205q-12 -167 -86 -253.5t-205 -86.5q-63 0 -118 21.5t-88 47.5t-74.5 47.5t-79.5 21.5q-52 0 -84 -32.5t-39 -94.5h-205z" />
<glyph unicode="&#xa1;" horiz-adv-x="561" d="M154 -424l16 1067h221l17 -1067h-254zM154 825v277h254v-277h-254z" />
<glyph unicode="&#xa2;" horiz-adv-x="1153" d="M57 553q0 215 125.5 369.5t325.5 193.5v254h182v-248q151 -17 266.5 -101.5t161.5 -209.5l-213 -106q-26 74 -82.5 123.5t-132.5 64.5v-684q76 15 132.5 64.5t82.5 123.5l213 -106q-46 -125 -161.5 -209.5t-266.5 -101.5v-248h-182v254q-200 40 -325.5 196t-125.5 371z M313 551q0 -116 52.5 -203.5t142.5 -122.5v652q-90 -36 -142.5 -122.5t-52.5 -203.5z" />
<glyph unicode="&#xa3;" horiz-adv-x="1603" d="M207 649l51 182h244v230q0 220 137 354.5t362 134.5q180 0 313.5 -90t184.5 -246l-205 -112q-34 104 -109.5 159.5t-183.5 55.5q-117 0 -181 -66.5t-64 -189.5v-230h485l-51 -182h-434v-428h665v-221h-1165v221h246v428h-295z" />
<glyph unicode="&#xa4;" horiz-adv-x="1323" d="M139 174l160 160q-61 99 -61 217q0 116 61 215l-160 162l146 145l161 -160q100 62 216 62q112 0 217 -62l159 160l146 -145l-160 -162q61 -99 61 -215q0 -118 -61 -217l160 -160l-146 -145l-159 159q-99 -61 -217 -61q-122 0 -216 61l-161 -159zM461 551q0 -83 59 -141 t142 -58q82 0 140 58t58 141t-58 142t-140 59q-83 0 -142 -59t-59 -142z" />
<glyph unicode="&#xa5;" horiz-adv-x="1345" d="M27 1526h288l359 -590l356 590h291l-469 -764h391v-182h-438v-125h438v-183h-438v-272h-260v272h-410v183h410v125h-410v182h361z" />
<glyph unicode="&#xa6;" horiz-adv-x="735" d="M242 381h252v-770h-252v770zM242 961v770h252v-770h-252z" />
<glyph unicode="&#xa7;" horiz-adv-x="1282" d="M190 244l191 90q41 -95 118.5 -147t178.5 -52q82 0 132 34t50 91q0 45 -35.5 76t-111.5 51l-187 51q-141 38 -215.5 118.5t-74.5 195.5q0 154 137 235q-137 80 -137 232q0 149 113 240t298 91q162 0 283 -75.5t172 -208.5l-191 -88q-32 78 -101.5 121.5t-162.5 43.5 q-78 0 -123 -30.5t-45 -83.5q0 -43 31.5 -73t101.5 -50l197 -55q144 -41 218.5 -122.5t74.5 -195.5q0 -155 -141 -231q141 -83 141 -236q0 -148 -117.5 -241t-306.5 -93q-175 0 -306 83.5t-182 228.5zM459 764q0 -48 37 -80t110 -55l137 -37q63 11 100.5 46.5t37.5 84.5 q0 98 -162 141l-117 31q-67 -10 -105 -45t-38 -86z" />
<glyph unicode="&#xa8;" horiz-adv-x="776" d="M41 1456q0 59 42 101t103 42q59 0 101.5 -42.5t42.5 -100.5q0 -61 -42.5 -103t-101.5 -42q-62 0 -103.5 41.5t-41.5 103.5zM446 1456q0 60 43 101.5t103 41.5t101.5 -42t41.5 -101q0 -61 -42 -103t-101 -42q-62 0 -104 42t-42 103z" />
<glyph unicode="&#xa9;" horiz-adv-x="1935" d="M180 766q0 159 62 304t167 250.5t251.5 167.5t308.5 62q160 0 305.5 -62t250.5 -167t167.5 -250t62.5 -305q0 -161 -62.5 -307.5t-167.5 -252.5t-250.5 -168.5t-305.5 -62.5q-161 0 -307.5 62.5t-252 168.5t-167.5 252.5t-62 307.5zM360 766q0 -168 81 -308t220.5 -220 t307.5 -80q166 0 304.5 80t219 220t80.5 308q0 165 -80.5 304t-219.5 219.5t-304 80.5q-125 0 -238 -47.5t-194.5 -128.5t-129 -193t-47.5 -235zM578 764q0 174 113 288.5t284 114.5q125 0 217.5 -59.5t124.5 -151.5l-160 -77q-20 56 -67.5 91.5t-114.5 35.5q-99 0 -159 -67 t-60 -175t60.5 -176t158.5 -68q67 0 115.5 36.5t66.5 90.5l160 -78q-32 -92 -124.5 -151.5t-217.5 -59.5q-169 0 -283 116.5t-114 289.5z" />
<glyph unicode="&#xaa;" horiz-adv-x="815" d="M57 965q0 83 62 140t182 83l246 51v25q0 49 -35 78.5t-94 29.5t-104 -31.5t-64 -85.5l-164 82q34 93 124 148t208 55q141 0 230 -76.5t89 -199.5v-512h-178v77q-85 -94 -223 -94q-125 0 -202 63.5t-77 166.5zM256 965q0 -39 28.5 -61.5t80.5 -22.5q77 0 129.5 50.5 t52.5 123.5v45l-209 -47q-82 -21 -82 -88z" />
<glyph unicode="&#xab;" horiz-adv-x="1363" d="M82 551l313 401h279l-312 -401l312 -401h-279zM651 551l314 401h276l-311 -401l311 -401h-276z" />
<glyph unicode="&#xac;" horiz-adv-x="1269" d="M180 633v217h912v-512h-220v295h-692z" />
<glyph unicode="&#xad;" horiz-adv-x="1132" d="M143 440v222h846v-222h-846z" />
<glyph unicode="&#xae;" horiz-adv-x="1935" d="M180 766q0 159 62 304t167 250.5t251.5 167.5t308.5 62q160 0 305.5 -62t250.5 -167t167.5 -250t62.5 -305q0 -161 -62.5 -307.5t-167.5 -252.5t-250.5 -168.5t-305.5 -62.5q-161 0 -307.5 62.5t-252 168.5t-167.5 252.5t-62 307.5zM360 766q0 -168 81 -308t220.5 -220 t307.5 -80q166 0 304.5 80t219 220t80.5 308q0 165 -80.5 304t-219.5 219.5t-304 80.5q-125 0 -238 -47.5t-194.5 -128.5t-129 -193t-47.5 -235zM674 385v784h336q126 0 203 -64.5t77 -186.5q0 -158 -131 -222l178 -311h-202l-156 281h-125v-281h-180zM854 823h158 q44 0 71 26t27 69t-27 69.5t-71 26.5h-158v-191z" />
<glyph unicode="&#xaf;" horiz-adv-x="602" d="M41 1311v170h520v-170h-520z" />
<glyph unicode="&#xb0;" horiz-adv-x="1038" d="M180 1210q0 141 99 240.5t239 99.5q141 0 240.5 -99.5t99.5 -240.5t-99.5 -239.5t-240.5 -98.5q-140 0 -239 98.5t-99 239.5zM356 1210q0 -68 47.5 -115.5t114.5 -47.5q68 0 116 48t48 115q0 68 -48 116t-116 48q-67 0 -114.5 -48t-47.5 -116z" />
<glyph unicode="&#xb1;" horiz-adv-x="1249" d="M170 0v211h911v-211h-911zM170 717v217h346v346h219v-346h346v-217h-346v-348h-219v348h-346z" />
<glyph unicode="&#xb2;" horiz-adv-x="794" d="M72 764l245 252q103 106 137.5 153.5t34.5 90.5q0 46 -29.5 75t-78.5 29q-52 0 -92.5 -30t-57.5 -83l-153 90q31 92 116 145.5t199 53.5q130 0 211.5 -70.5t81.5 -185.5q0 -71 -38.5 -138t-121.5 -155l-213 -217h383v-164h-622z" />
<glyph unicode="&#xb3;" horiz-adv-x="819" d="M70 795l155 90q44 -113 158 -113q66 0 104.5 36.5t38.5 98.5t-38 96.5t-105 34.5q-57 0 -107 -24l-45 96l236 250l-354 2v164h573v-150l-178 -198q98 -17 156.5 -87.5t58.5 -175.5q0 -137 -97 -228t-243 -91q-110 0 -194.5 54t-118.5 145z" />
<glyph unicode="&#xb4;" horiz-adv-x="454" d="M41 1311l145 323h228l-193 -323h-180z" />
<glyph unicode="&#xb5;" horiz-adv-x="1157" d="M98 -410v1512h238v-696q0 -101 54 -155t147 -54q146 0 264 82v823h237v-1102h-237v61q-136 -86 -295 -86q-97 0 -170 37v-422h-238z" />
<glyph unicode="&#xb6;" horiz-adv-x="897" d="M82 1100q0 188 121 307t311 119h260v-1731h-260v879q-191 0 -311.5 118.5t-120.5 307.5z" />
<glyph unicode="&#xb7;" horiz-adv-x="581" d="M164 602v277h254v-277h-254z" />
<glyph unicode="&#xb8;" horiz-adv-x="593" d="M41 -332l70 119q29 -30 74.5 -49t95.5 -19t81 27t31 74q0 55 -53 104t-166 82l94 43q138 -30 211.5 -100.5t73.5 -167.5q0 -101 -74.5 -155t-179.5 -54q-146 0 -258 96z" />
<glyph unicode="&#xb9;" horiz-adv-x="692" d="M49 1360v164l369 2v-916h-197v750h-172z" />
<glyph unicode="&#xba;" horiz-adv-x="929" d="M57 1139q0 172 118 286.5t290 114.5t290.5 -114.5t118.5 -286.5q0 -175 -118.5 -289.5t-290.5 -114.5t-290 115.5t-118 288.5zM256 1137q0 -100 58.5 -164t150.5 -64t151.5 64t59.5 164t-59.5 164.5t-151.5 64.5q-93 0 -151 -64.5t-58 -164.5z" />
<glyph unicode="&#xbb;" horiz-adv-x="1363" d="M123 150l311 401l-311 401h278l314 -401l-314 -401h-278zM692 150l312 401l-312 401h277l313 -401l-313 -401h-277z" />
<glyph unicode="&#xbc;" horiz-adv-x="2015" d="M49 1360v164l369 2v-916h-197v750h-172zM463 0l682 1526h201l-682 -1526h-201zM1186 195v165l399 555h211v-555h154v-165h-154v-195h-197v195h-413zM1376 360h223v318z" />
<glyph unicode="&#xbd;" horiz-adv-x="1910" d="M49 1360v164l369 2v-916h-197v750h-172zM463 0l682 1526h201l-682 -1526h-201zM1188 154l246 252q104 107 138 154t34 89q0 46 -30 75.5t-79 29.5q-52 0 -92 -30t-57 -83l-154 90q31 92 116 145.5t199 53.5q130 0 211.5 -70.5t81.5 -185.5q0 -71 -38.5 -138t-121.5 -155 l-212 -217h382v-164h-622z" />
<glyph unicode="&#xbe;" horiz-adv-x="2142" d="M70 795l155 90q44 -113 158 -113q66 0 104.5 36.5t38.5 98.5t-38 96.5t-105 34.5q-57 0 -107 -24l-45 96l236 250l-354 2v164h573v-150l-178 -198q98 -17 156.5 -87.5t58.5 -175.5q0 -137 -97 -228t-243 -91q-110 0 -194.5 54t-118.5 145zM590 0l682 1526h201l-682 -1526 h-201zM1313 195v165l399 555h211v-555h154v-165h-154v-195h-197v195h-413zM1503 360h223v318z" />
<glyph unicode="&#xbf;" horiz-adv-x="1148" d="M102 406q0 27 3.5 52t13.5 50.5t16.5 43.5t25.5 44t27 38t33 39t32 34.5t36.5 36.5t34.5 34q79 75 121 141t42 148v25h242v-37q0 -65 -15.5 -122t-47.5 -106.5t-60 -82.5t-71 -76q-90 -88 -115 -120q-58 -74 -58 -145q0 -75 56 -122.5t157 -47.5q107 0 180 55t107 161 l205 -113q-47 -152 -182 -244t-310 -92q-108 0 -198.5 34t-150 91t-92 130t-32.5 151zM479 1274v276h252v-276h-252z" />
<glyph unicode="&#xc0;" horiz-adv-x="1449" d="M27 0l534 1526h328l536 -1526h-274l-115 336h-622l-113 -336h-274zM451 2058h229l143 -323h-180zM489 563h472l-236 692z" />
<glyph unicode="&#xc1;" horiz-adv-x="1449" d="M27 0l534 1526h328l536 -1526h-274l-115 336h-622l-113 -336h-274zM489 563h472l-236 692zM635 1735l145 323h228l-193 -323h-180z" />
<glyph unicode="&#xc2;" horiz-adv-x="1449" d="M27 0l534 1526h328l536 -1526h-274l-115 336h-622l-113 -336h-274zM379 1735l239 321h216l241 -321h-192l-156 215l-152 -215h-196zM489 563h472l-236 692z" />
<glyph unicode="&#xc3;" horiz-adv-x="1449" d="M27 0l534 1526h328l536 -1526h-274l-115 336h-622l-113 -336h-274zM342 1749q5 65 29.5 114.5t60.5 77t74.5 41t77.5 13.5q52 0 104.5 -23t97 -46t76.5 -23q30 0 50.5 18.5t23.5 58.5h174q-10 -118 -77.5 -181.5t-166.5 -63.5q-57 0 -108.5 23.5t-93.5 47t-76 23.5 q-62 0 -72 -80h-174zM489 563h472l-236 692z" />
<glyph unicode="&#xc4;" horiz-adv-x="1449" d="M27 0l534 1526h328l536 -1526h-274l-115 336h-622l-113 -336h-274zM379 1880q0 59 42 101t103 42q59 0 101.5 -42.5t42.5 -100.5q0 -61 -42.5 -103t-101.5 -42q-62 0 -103.5 41.5t-41.5 103.5zM489 563h472l-236 692zM784 1880q0 60 43 101.5t103 41.5t101.5 -42 t41.5 -101q0 -61 -42 -103t-101 -42q-62 0 -104 42t-42 103z" />
<glyph unicode="&#xc5;" horiz-adv-x="1449" d="M27 0l534 1526h328l536 -1526h-274l-115 336h-622l-113 -336h-274zM489 563h472l-236 692zM498 1950q0 93 65.5 156t163.5 63q97 0 163 -64t66 -155q0 -88 -66 -151.5t-163 -63.5t-163 63t-66 152zM637 1952q0 -36 26 -61t64 -25t64 25t26 61q0 35 -26 59.5t-64 24.5 t-64 -24.5t-26 -59.5z" />
<glyph unicode="&#xc6;" horiz-adv-x="2058" d="M27 0l534 1526h1401v-228h-752v-419h711v-228h-711v-424h752l-2 -227h-1010v336h-536l-113 -336h-274zM489 563h461v735h-209z" />
<glyph unicode="&#xc7;" horiz-adv-x="1562" d="M88 764q0 224 98 404t272 281t390 101q232 0 403.5 -114.5t233.5 -282.5l-230 -111q-49 125 -155.5 200t-251.5 75q-223 0 -362.5 -153.5t-139.5 -399.5q0 -247 139.5 -401t362.5 -154q145 0 251.5 74.5t155.5 199.5l230 -110q-49 -136 -175.5 -240.5t-301.5 -140.5 q131 -78 131 -211q0 -101 -74.5 -155t-179.5 -54q-146 0 -258 96l69 119q29 -30 74.5 -49t95.5 -19t81.5 27t31.5 74q0 92 -135 155q-214 1 -387 103t-271 282.5t-98 403.5z" />
<glyph unicode="&#xc8;" horiz-adv-x="1245" d="M139 0v1526h1010v-228h-752v-419h711v-228h-711v-424h752l-2 -227h-1008zM348 2058h230l143 -323h-180z" />
<glyph unicode="&#xc9;" horiz-adv-x="1245" d="M139 0v1526h1010v-228h-752v-419h711v-228h-711v-424h752l-2 -227h-1008zM532 1735l146 323h227l-192 -323h-181z" />
<glyph unicode="&#xca;" horiz-adv-x="1245" d="M139 0v1526h1010v-228h-752v-419h711v-228h-711v-424h752l-2 -227h-1008zM274 1735l240 321h215l242 -321h-193l-155 215l-152 -215h-197z" />
<glyph unicode="&#xcb;" horiz-adv-x="1245" d="M139 0v1526h1010v-228h-752v-419h711v-228h-711v-424h752l-2 -227h-1008zM276 1880q0 59 42.5 101t103.5 42q58 0 100.5 -42.5t42.5 -100.5q0 -61 -42 -103t-101 -42q-62 0 -104 42t-42 103zM682 1880q0 60 42.5 101.5t102.5 41.5t102 -42t42 -101q0 -61 -42.5 -103 t-101.5 -42q-61 0 -103 41.5t-42 103.5z" />
<glyph unicode="&#xcc;" horiz-adv-x="536" d="M-8 2058h229l144 -323h-181zM139 0v1526h258v-1526h-258z" />
<glyph unicode="&#xcd;" horiz-adv-x="536" d="M139 0v1526h258v-1526h-258zM178 1735l146 323h227l-193 -323h-180z" />
<glyph unicode="&#xce;" horiz-adv-x="536" d="M-80 1735l240 321h215l241 -321h-192l-156 215l-151 -215h-197zM139 0v1526h258v-1526h-258z" />
<glyph unicode="&#xcf;" horiz-adv-x="536" d="M-78 1880q0 59 42.5 101t103.5 42q58 0 100.5 -42.5t42.5 -100.5q0 -61 -42 -103t-101 -42q-62 0 -104 42t-42 103zM139 0v1526h258v-1526h-258zM328 1880q0 60 42.5 101.5t102.5 41.5t101.5 -42t41.5 -101q0 -61 -42 -103t-101 -42q-61 0 -103 41.5t-42 103.5z" />
<glyph unicode="&#xd0;" horiz-adv-x="1513" d="M-96 653v221h235v652h498q236 0 415.5 -96t276 -269t96.5 -397t-96.5 -397.5t-276 -270t-415.5 -96.5h-498v653h-235zM397 227h246q238 0 379 146t141 391q0 244 -141.5 389t-378.5 145h-246v-424h385v-221h-385v-426z" />
<glyph unicode="&#xd1;" horiz-adv-x="1486" d="M139 0v1526h205l746 -1026v1026h260v-1526h-207l-746 1036v-1036h-258zM358 1749q5 65 29.5 114.5t60.5 77t74.5 41t77.5 13.5q52 0 104.5 -23t97.5 -46t77 -23q68 0 73 77h174q-10 -118 -77 -181.5t-166 -63.5q-45 0 -88 14.5t-70 32.5t-60.5 32.5t-60.5 14.5 q-62 0 -72 -80h-174z" />
<glyph unicode="&#xd2;" d="M88 764q0 167 61 313.5t166 250t251.5 163t312.5 59.5t312.5 -59.5t252 -163t166.5 -250t61 -313.5q0 -223 -104 -404t-285 -283t-403 -102q-165 0 -311.5 60t-251.5 164t-166.5 251t-61.5 314zM346 764q0 -155 69 -281.5t191.5 -198t272.5 -71.5q151 0 273 71.5 t190.5 197.5t68.5 282q0 155 -68.5 280.5t-190.5 197t-273 71.5t-273.5 -71.5t-191 -197t-68.5 -280.5zM604 2058h230l143 -323h-180z" />
<glyph unicode="&#xd3;" d="M88 764q0 167 61 313.5t166 250t251.5 163t312.5 59.5t312.5 -59.5t252 -163t166.5 -250t61 -313.5q0 -223 -104 -404t-285 -283t-403 -102q-165 0 -311.5 60t-251.5 164t-166.5 251t-61.5 314zM346 764q0 -155 69 -281.5t191.5 -198t272.5 -71.5q151 0 273 71.5 t190.5 197.5t68.5 282q0 155 -68.5 280.5t-190.5 197t-273 71.5t-273.5 -71.5t-191 -197t-68.5 -280.5zM788 1735l146 323h227l-192 -323h-181z" />
<glyph unicode="&#xd4;" d="M88 764q0 167 61 313.5t166 250t251.5 163t312.5 59.5t312.5 -59.5t252 -163t166.5 -250t61 -313.5q0 -223 -104 -404t-285 -283t-403 -102q-165 0 -311.5 60t-251.5 164t-166.5 251t-61.5 314zM346 764q0 -155 69 -281.5t191.5 -198t272.5 -71.5q151 0 273 71.5 t190.5 197.5t68.5 282q0 155 -68.5 280.5t-190.5 197t-273 71.5t-273.5 -71.5t-191 -197t-68.5 -280.5zM530 1735l240 321h215l242 -321h-193l-155 215l-152 -215h-197z" />
<glyph unicode="&#xd5;" d="M88 764q0 167 61 313.5t166 250t251.5 163t312.5 59.5t312.5 -59.5t252 -163t166.5 -250t61 -313.5q0 -223 -104 -404t-285 -283t-403 -102q-165 0 -311.5 60t-251.5 164t-166.5 251t-61.5 314zM346 764q0 -155 69 -281.5t191.5 -198t272.5 -71.5q151 0 273 71.5 t190.5 197.5t68.5 282q0 155 -68.5 280.5t-190.5 197t-273 71.5t-273.5 -71.5t-191 -197t-68.5 -280.5zM494 1749q5 65 29.5 114.5t60 77t74 41t77.5 13.5q52 0 104.5 -23t97.5 -46t77 -23q68 0 73 77h175q-10 -118 -77.5 -181.5t-166.5 -63.5q-45 0 -88 14.5t-70 32.5 t-60.5 32.5t-60.5 14.5q-61 0 -71 -80h-174z" />
<glyph unicode="&#xd6;" d="M88 764q0 167 61 313.5t166 250t251.5 163t312.5 59.5t312.5 -59.5t252 -163t166.5 -250t61 -313.5q0 -223 -104 -404t-285 -283t-403 -102q-165 0 -311.5 60t-251.5 164t-166.5 251t-61.5 314zM346 764q0 -155 69 -281.5t191.5 -198t272.5 -71.5q151 0 273 71.5 t190.5 197.5t68.5 282q0 155 -68.5 280.5t-190.5 197t-273 71.5t-273.5 -71.5t-191 -197t-68.5 -280.5zM532 1880q0 59 42.5 101t103.5 42q58 0 100.5 -42.5t42.5 -100.5q0 -61 -42 -103t-101 -42q-62 0 -104 42t-42 103zM938 1880q0 60 42.5 101.5t102.5 41.5t102 -42 t42 -101q0 -61 -42.5 -103t-101.5 -42q-61 0 -103 41.5t-42 103.5z" />
<glyph unicode="&#xd7;" horiz-adv-x="1224" d="M170 453l289 290l-289 287l154 154l288 -287l287 287l156 -154l-289 -287l289 -290l-154 -154l-289 289l-290 -289z" />
<glyph unicode="&#xd8;" d="M88 127l156 156q-156 209 -156 481q0 167 61 313.5t166 250t251.5 163t312.5 59.5q273 0 479 -151l155 155l156 -155l-153 -154q155 -207 155 -481q0 -223 -104 -404t-285 -283t-403 -102q-269 0 -480 152l-155 -156zM346 764q0 -167 80 -299l756 758q-133 90 -303 90 q-151 0 -273.5 -71.5t-191 -197t-68.5 -280.5zM575 305q134 -92 304 -92q151 0 273 71.5t190.5 197.5t68.5 282q0 165 -80 297z" />
<glyph unicode="&#xd9;" horiz-adv-x="1464" d="M139 541v985h260v-985q0 -148 93 -240t241 -92q146 0 239 93t93 239v985h262v-985q0 -248 -164.5 -407t-429.5 -159q-266 0 -430 159t-164 407zM457 2058h229l143 -323h-180z" />
<glyph unicode="&#xda;" horiz-adv-x="1464" d="M139 541v985h260v-985q0 -148 93 -240t241 -92q146 0 239 93t93 239v985h262v-985q0 -248 -164.5 -407t-429.5 -159q-266 0 -430 159t-164 407zM641 1735l145 323h228l-193 -323h-180z" />
<glyph unicode="&#xdb;" horiz-adv-x="1464" d="M139 541v985h260v-985q0 -148 93 -240t241 -92q146 0 239 93t93 239v985h262v-985q0 -248 -164.5 -407t-429.5 -159q-266 0 -430 159t-164 407zM385 1735l240 321h215l241 -321h-192l-156 215l-151 -215h-197z" />
<glyph unicode="&#xdc;" horiz-adv-x="1464" d="M139 541v985h260v-985q0 -148 93 -240t241 -92q146 0 239 93t93 239v985h262v-985q0 -248 -164.5 -407t-429.5 -159q-266 0 -430 159t-164 407zM385 1880q0 59 42 101t103 42q59 0 101.5 -42.5t42.5 -100.5q0 -61 -42.5 -103t-101.5 -42q-62 0 -103.5 41.5t-41.5 103.5z M791 1880q0 60 42.5 101.5t102.5 41.5t101.5 -42t41.5 -101q0 -61 -42 -103t-101 -42q-62 0 -103.5 41.5t-41.5 103.5z" />
<glyph unicode="&#xdd;" horiz-adv-x="1345" d="M27 1526h288l359 -590l356 590h291l-516 -842v-684h-260v682zM584 1735l145 323h227l-192 -323h-180z" />
<glyph unicode="&#xde;" horiz-adv-x="1327" d="M139 0v1526h258v-277h330q239 0 386 -128t147 -351q0 -222 -147.5 -350.5t-385.5 -128.5h-330v-291h-258zM397 518h330q122 0 196 69t74 183t-74 183t-196 69h-330v-504z" />
<glyph unicode="&#xdf;" horiz-adv-x="1269" d="M139 -328v1389q0 207 141 336t371 129q221 0 354.5 -115.5t133.5 -306.5q0 -172 -133 -281q194 -120 194 -360q0 -217 -143 -340t-393 -123h-109v227h131q114 0 183 65t69 171t-69 170.5t-183 64.5h-131v228h119q92 0 146 51.5t54 138.5q0 85 -61 138t-162 53 q-114 0 -184 -68.5t-70 -177.5v-1389h-258z" />
<glyph unicode="&#xe0;" horiz-adv-x="1095" d="M57 303q0 121 91.5 203t261.5 119l362 77v35q0 76 -57.5 123t-149.5 47q-88 0 -155.5 -45.5t-98.5 -124.5l-213 107q48 127 176 205.5t291 78.5q201 0 327 -109.5t126 -281.5v-737h-232v123q-124 -148 -327 -148q-182 0 -292 92.5t-110 235.5zM285 1636h229l143 -323 h-180zM313 305q0 -63 47 -99t127 -36q123 0 204 78.5t81 195.5v72l-313 -70q-69 -15 -107.5 -52.5t-38.5 -88.5z" />
<glyph unicode="&#xe1;" horiz-adv-x="1095" d="M57 303q0 121 91.5 203t261.5 119l362 77v35q0 76 -57.5 123t-149.5 47q-88 0 -155.5 -45.5t-98.5 -124.5l-213 107q48 127 176 205.5t291 78.5q201 0 327 -109.5t126 -281.5v-737h-232v123q-124 -148 -327 -148q-182 0 -292 92.5t-110 235.5zM313 305q0 -63 47 -99 t127 -36q123 0 204 78.5t81 195.5v72l-313 -70q-69 -15 -107.5 -52.5t-38.5 -88.5zM469 1313l145 323h228l-193 -323h-180z" />
<glyph unicode="&#xe2;" horiz-adv-x="1095" d="M57 303q0 121 91.5 203t261.5 119l362 77v35q0 76 -57.5 123t-149.5 47q-88 0 -155.5 -45.5t-98.5 -124.5l-213 107q48 127 176 205.5t291 78.5q201 0 327 -109.5t126 -281.5v-737h-232v123q-124 -148 -327 -148q-182 0 -292 92.5t-110 235.5zM213 1313l240 321h215 l241 -321h-192l-156 215l-151 -215h-197zM313 305q0 -63 47 -99t127 -36q123 0 204 78.5t81 195.5v72l-313 -70q-69 -15 -107.5 -52.5t-38.5 -88.5z" />
<glyph unicode="&#xe3;" horiz-adv-x="1095" d="M57 303q0 121 91.5 203t261.5 119l362 77v35q0 76 -57.5 123t-149.5 47q-88 0 -155.5 -45.5t-98.5 -124.5l-213 107q48 127 176 205.5t291 78.5q201 0 327 -109.5t126 -281.5v-737h-232v123q-124 -148 -327 -148q-182 0 -292 92.5t-110 235.5zM176 1327q5 65 29.5 114.5 t60.5 77t74.5 41t77.5 13.5q52 0 104.5 -23t97 -46t76.5 -23q30 0 50.5 19t23.5 59h174q-10 -118 -77.5 -182t-166.5 -64q-57 0 -108.5 23.5t-93.5 47t-76 23.5q-62 0 -72 -80h-174zM313 305q0 -63 47 -99t127 -36q123 0 204 78.5t81 195.5v72l-313 -70 q-69 -15 -107.5 -52.5t-38.5 -88.5z" />
<glyph unicode="&#xe4;" horiz-adv-x="1095" d="M57 303q0 121 91.5 203t261.5 119l362 77v35q0 76 -57.5 123t-149.5 47q-88 0 -155.5 -45.5t-98.5 -124.5l-213 107q48 127 176 205.5t291 78.5q201 0 327 -109.5t126 -281.5v-737h-232v123q-124 -148 -327 -148q-182 0 -292 92.5t-110 235.5zM213 1458q0 59 42 101.5 t103 42.5q58 0 101 -43t43 -101q0 -61 -42.5 -103t-101.5 -42q-62 0 -103.5 41.5t-41.5 103.5zM313 305q0 -63 47 -99t127 -36q123 0 204 78.5t81 195.5v72l-313 -70q-69 -15 -107.5 -52.5t-38.5 -88.5zM618 1458q0 60 43 102t103 42t101.5 -42.5t41.5 -101.5 q0 -61 -42 -103t-101 -42q-62 0 -104 42t-42 103z" />
<glyph unicode="&#xe5;" horiz-adv-x="1095" d="M57 303q0 121 91.5 203t261.5 119l362 77v35q0 76 -57.5 123t-149.5 47q-88 0 -155.5 -45.5t-98.5 -124.5l-213 107q48 127 176 205.5t291 78.5q201 0 327 -109.5t126 -281.5v-737h-232v123q-124 -148 -327 -148q-182 0 -292 92.5t-110 235.5zM313 305q0 -63 47 -99 t127 -36q123 0 204 78.5t81 195.5v72l-313 -70q-69 -15 -107.5 -52.5t-38.5 -88.5zM332 1528q0 93 65.5 156t163.5 63t164 -64t66 -155q0 -88 -66.5 -151.5t-163.5 -63.5t-163 63t-66 152zM471 1530q0 -36 26 -61t64 -25t64 25t26 61q0 35 -26 59.5t-64 24.5t-64 -24.5 t-26 -59.5z" />
<glyph unicode="&#xe6;" horiz-adv-x="1894" d="M57 303q0 243 353 322l358 77v35q0 75 -57 122.5t-146 47.5t-156 -45.5t-96 -124.5l-213 107q48 127 175 205.5t290 78.5q122 0 218.5 -43t154.5 -120q157 163 389 163q152 0 275 -73t190.5 -195t67.5 -268q0 -57 -13 -111h-811q10 -130 97 -209t213 -79q97 0 166 42.5 t104 110.5l203 -98q-52 -123 -180.5 -198t-295.5 -75q-196 0 -342 115v-90h-223v119q-120 -144 -327 -144q-172 0 -283 93t-111 235zM313 303q0 -60 46.5 -96.5t125.5 -36.5q120 0 201.5 78.5t81.5 195.5v74l-311 -72q-68 -15 -106 -52t-38 -91zM1042 672h553 q-6 108 -82.5 177t-187.5 69q-107 0 -185 -66t-98 -180z" />
<glyph unicode="&#xe7;" horiz-adv-x="1155" d="M57 553q0 163 73.5 294.5t203.5 206t291 74.5q173 0 307 -88t186 -229l-213 -106q-33 90 -107 143t-173 53q-135 0 -223.5 -98.5t-88.5 -251.5q0 -151 88.5 -249.5t223.5 -98.5q100 0 173.5 52t106.5 144l213 -108q-39 -105 -128.5 -184t-211.5 -111q137 -78 137 -215 q0 -101 -74 -155t-179 -54q-147 0 -259 96l70 119q29 -30 74.5 -49t95.5 -19t81.5 27t31.5 74q0 92 -135 155q-159 1 -288 76.5t-202.5 207.5t-73.5 294z" />
<glyph unicode="&#xe8;" horiz-adv-x="1173" d="M57 553q0 248 156.5 411.5t390.5 163.5q152 0 275 -73t190.5 -195t67.5 -268q0 -57 -13 -111h-811q9 -130 96 -209t216 -79q185 0 268 153l203 -98q-52 -121 -180 -197t-293 -76q-123 0 -229 45t-179.5 122.5t-115.5 184t-42 226.5zM317 672h555q-6 109 -83.5 180.5 t-184.5 71.5q-110 0 -188 -66.5t-99 -185.5zM328 1636h229l143 -323h-180z" />
<glyph unicode="&#xe9;" horiz-adv-x="1173" d="M57 553q0 248 156.5 411.5t390.5 163.5q152 0 275 -73t190.5 -195t67.5 -268q0 -57 -13 -111h-811q9 -130 96 -209t216 -79q185 0 268 153l203 -98q-52 -121 -180 -197t-293 -76q-123 0 -229 45t-179.5 122.5t-115.5 184t-42 226.5zM317 672h555q-6 109 -83.5 180.5 t-184.5 71.5q-110 0 -188 -66.5t-99 -185.5zM514 1313l145 323h228l-193 -323h-180z" />
<glyph unicode="&#xea;" horiz-adv-x="1173" d="M57 553q0 248 156.5 411.5t390.5 163.5q152 0 275 -73t190.5 -195t67.5 -268q0 -57 -13 -111h-811q9 -130 96 -209t216 -79q185 0 268 153l203 -98q-52 -121 -180 -197t-293 -76q-123 0 -229 45t-179.5 122.5t-115.5 184t-42 226.5zM256 1313l240 321h215l241 -321h-192 l-156 215l-151 -215h-197zM317 672h555q-6 109 -83.5 180.5t-184.5 71.5q-110 0 -188 -66.5t-99 -185.5z" />
<glyph unicode="&#xeb;" horiz-adv-x="1173" d="M57 553q0 248 156.5 411.5t390.5 163.5q152 0 275 -73t190.5 -195t67.5 -268q0 -57 -13 -111h-811q9 -130 96 -209t216 -79q185 0 268 153l203 -98q-52 -121 -180 -197t-293 -76q-123 0 -229 45t-179.5 122.5t-115.5 184t-42 226.5zM256 1458q0 59 42 101.5t103 42.5 q59 0 101.5 -43t42.5 -101q0 -61 -42.5 -103t-101.5 -42q-61 0 -103 41.5t-42 103.5zM317 672h555q-6 109 -83.5 180.5t-184.5 71.5q-110 0 -188 -66.5t-99 -185.5zM662 1458q0 60 42.5 102t102.5 42t101.5 -42.5t41.5 -101.5q0 -61 -42 -103t-101 -42q-61 0 -103 41.5 t-42 103.5z" />
<glyph unicode="&#xec;" horiz-adv-x="548" d="M-2 1636h229l144 -323h-181zM152 0v1104h245v-1104h-245z" />
<glyph unicode="&#xed;" horiz-adv-x="548" d="M152 0v1104h245v-1104h-245zM182 1313l146 323h227l-193 -323h-180z" />
<glyph unicode="&#xee;" horiz-adv-x="548" d="M-74 1313l240 321h215l242 -321h-193l-156 215l-151 -215h-197zM152 0v1104h245v-1104h-245z" />
<glyph unicode="&#xef;" horiz-adv-x="548" d="M-74 1458q0 59 42.5 101.5t103.5 42.5q58 0 100.5 -42.5t42.5 -101.5q0 -61 -42 -103t-101 -42q-62 0 -104 42t-42 103zM152 0v1104h245v-1104h-245zM332 1458q0 60 42.5 102t102.5 42t102 -42.5t42 -101.5q0 -61 -42.5 -103t-101.5 -42q-61 0 -103 41.5t-42 103.5z" />
<glyph unicode="&#xf0;" horiz-adv-x="1261" d="M57 549q0 246 162 408.5t408 162.5q178 0 272 -82q-36 149 -145 254l-322 -116v120l213 78q-128 70 -264 70q-117 0 -223 -47l-29 213q116 55 270 55q283 0 494 -201l221 80v-123l-139 -49q110 -141 170.5 -326.5t60.5 -386.5q0 -170 -44.5 -303t-122.5 -215t-180 -124 t-222 -42q-165 0 -297.5 74t-207.5 205t-75 295zM313 547q0 -150 90 -247t232 -97t228.5 95t86.5 247q0 155 -87 251.5t-232 96.5q-138 0 -228 -97.5t-90 -248.5z" />
<glyph unicode="&#xf1;" horiz-adv-x="1177" d="M119 0v1104h231v-133q45 76 127.5 116.5t186.5 40.5q184 0 299.5 -114.5t115.5 -296.5v-717h-245v655q0 112 -64.5 179t-169.5 67q-106 0 -170.5 -67t-64.5 -179v-655h-246zM279 1327q5 65 29.5 114.5t60 77t74 41t77.5 13.5q52 0 104.5 -23t97.5 -46t77 -23q30 0 50 19 t23 59h175q-10 -118 -77.5 -182t-166.5 -64q-45 0 -88 14.5t-70 32.5t-60.5 32.5t-60.5 14.5q-61 0 -71 -80h-174z" />
<glyph unicode="&#xf2;" horiz-adv-x="1271" d="M57 553q0 164 76.5 296t209.5 205.5t294 73.5t293.5 -73.5t209.5 -205.5t77 -296q0 -123 -45.5 -231t-123.5 -184t-185 -119.5t-226 -43.5q-160 0 -293 74t-210 207t-77 297zM313 551q0 -152 91.5 -250t232.5 -98q140 0 232 98t92 250t-92 251t-232 99q-141 0 -232.5 -99 t-91.5 -251zM360 1636h230l143 -323h-180z" />
<glyph unicode="&#xf3;" horiz-adv-x="1271" d="M57 553q0 164 76.5 296t209.5 205.5t294 73.5t293.5 -73.5t209.5 -205.5t77 -296q0 -123 -45.5 -231t-123.5 -184t-185 -119.5t-226 -43.5q-160 0 -293 74t-210 207t-77 297zM313 551q0 -152 91.5 -250t232.5 -98q140 0 232 98t92 250t-92 251t-232 99q-141 0 -232.5 -99 t-91.5 -251zM545 1313l145 323h228l-193 -323h-180z" />
<glyph unicode="&#xf4;" horiz-adv-x="1271" d="M57 553q0 164 76.5 296t209.5 205.5t294 73.5t293.5 -73.5t209.5 -205.5t77 -296q0 -123 -45.5 -231t-123.5 -184t-185 -119.5t-226 -43.5q-160 0 -293 74t-210 207t-77 297zM289 1313l239 321h215l242 -321h-192l-156 215l-152 -215h-196zM313 551q0 -152 91.5 -250 t232.5 -98q140 0 232 98t92 250t-92 251t-232 99q-141 0 -232.5 -99t-91.5 -251z" />
<glyph unicode="&#xf5;" horiz-adv-x="1271" d="M57 553q0 164 76.5 296t209.5 205.5t294 73.5t293.5 -73.5t209.5 -205.5t77 -296q0 -123 -45.5 -231t-123.5 -184t-185 -119.5t-226 -43.5q-160 0 -293 74t-210 207t-77 297zM252 1327q5 65 29.5 114.5t60.5 77t74.5 41t77.5 13.5q52 0 104.5 -23t97 -46t76.5 -23 q30 0 50.5 19t23.5 59h174q-10 -118 -77.5 -182t-166.5 -64q-57 0 -108.5 23.5t-93.5 47t-76 23.5q-62 0 -72 -80h-174zM313 551q0 -152 91.5 -250t232.5 -98q140 0 232 98t92 250t-92 251t-232 99q-141 0 -232.5 -99t-91.5 -251z" />
<glyph unicode="&#xf6;" horiz-adv-x="1271" d="M57 553q0 164 76.5 296t209.5 205.5t294 73.5t293.5 -73.5t209.5 -205.5t77 -296q0 -123 -45.5 -231t-123.5 -184t-185 -119.5t-226 -43.5q-160 0 -293 74t-210 207t-77 297zM289 1458q0 59 42 101.5t103 42.5q58 0 101 -43t43 -101q0 -61 -42.5 -103t-101.5 -42 q-62 0 -103.5 41.5t-41.5 103.5zM313 551q0 -152 91.5 -250t232.5 -98q140 0 232 98t92 250t-92 251t-232 99q-141 0 -232.5 -99t-91.5 -251zM694 1458q0 60 43 102t103 42t101.5 -42.5t41.5 -101.5q0 -61 -42 -103t-101 -42q-62 0 -104 42t-42 103z" />
<glyph unicode="&#xf7;" horiz-adv-x="1366" d="M180 633v217h1006v-217h-1006zM557 150v276h254v-276h-254zM557 1059v276h254v-276h-254z" />
<glyph unicode="&#xf8;" horiz-adv-x="1271" d="M-33 33l189 188q-99 149 -99 332q0 164 76.5 296t209.5 205.5t294 73.5q182 0 330 -96l188 189l150 -152l-187 -186q99 -149 99 -330q0 -123 -45.5 -231t-123.5 -184t-185 -119.5t-226 -43.5q-181 0 -330 97l-190 -191zM313 551q0 -72 27 -145l455 454q-68 41 -158 41 q-141 0 -232.5 -99t-91.5 -251zM479 244q68 -41 158 -41q140 0 232 98t92 250q0 71 -27 147z" />
<glyph unicode="&#xf9;" horiz-adv-x="1177" d="M98 418v686h246v-655q0 -112 65 -179t171 -67q105 0 169 67t64 179v655h246v-1104h-234v127q-46 -72 -127 -112t-182 -40q-183 0 -300.5 125.5t-117.5 317.5zM313 1636h230l143 -323h-180z" />
<glyph unicode="&#xfa;" horiz-adv-x="1177" d="M98 418v686h246v-655q0 -112 65 -179t171 -67q105 0 169 67t64 179v655h246v-1104h-234v127q-46 -72 -127 -112t-182 -40q-183 0 -300.5 125.5t-117.5 317.5zM498 1313l145 323h227l-192 -323h-180z" />
<glyph unicode="&#xfb;" horiz-adv-x="1177" d="M98 418v686h246v-655q0 -112 65 -179t171 -67q105 0 169 67t64 179v655h246v-1104h-234v127q-46 -72 -127 -112t-182 -40q-183 0 -300.5 125.5t-117.5 317.5zM242 1313l239 321h215l242 -321h-193l-155 215l-152 -215h-196z" />
<glyph unicode="&#xfc;" horiz-adv-x="1177" d="M98 418v686h246v-655q0 -112 65 -179t171 -67q105 0 169 67t64 179v655h246v-1104h-234v127q-46 -72 -127 -112t-182 -40q-183 0 -300.5 125.5t-117.5 317.5zM242 1458q0 59 42 101.5t103 42.5q58 0 100.5 -42.5t42.5 -101.5q0 -61 -42 -103t-101 -42q-61 0 -103 41.5 t-42 103.5zM647 1458q0 60 43 102t103 42t101.5 -42.5t41.5 -101.5q0 -61 -42 -103t-101 -42q-62 0 -104 42t-42 103z" />
<glyph unicode="&#xfd;" horiz-adv-x="1163" d="M16 1104h269l297 -780l297 780h268l-492 -1233q-14 -35 -24 -57t-30.5 -59.5t-41 -62t-53 -54t-69 -47.5t-87 -30t-108.5 -12q-97 0 -162 29v207q62 -16 127 -16q50 0 86.5 12.5t60 38t35 45t25.5 53.5l37 86zM489 1313l146 323h227l-192 -323h-181z" />
<glyph unicode="&#xfe;" horiz-adv-x="1329" d="M119 -410v1936h246v-545q58 70 149.5 108.5t200.5 38.5q115 0 218.5 -44t178 -120t118.5 -183t44 -228q0 -161 -74 -294t-203 -208.5t-284 -75.5q-108 0 -198.5 36.5t-149.5 101.5v-523h-246zM365 551q0 -152 91.5 -250t233.5 -98q141 0 234.5 99t93.5 249 q0 152 -93.5 251t-234.5 99q-143 0 -234 -98t-91 -252z" />
<glyph unicode="&#xff;" horiz-adv-x="1163" d="M16 1104h269l297 -780l297 780h268l-492 -1233q-14 -35 -24 -57t-30.5 -59.5t-41 -62t-53 -54t-69 -47.5t-87 -30t-108.5 -12q-97 0 -162 29v207q62 -16 127 -16q50 0 86.5 12.5t60 38t35 45t25.5 53.5l37 86zM233 1458q0 59 42.5 101.5t103.5 42.5q58 0 100.5 -42.5 t42.5 -101.5q0 -61 -42 -103t-101 -42q-62 0 -104 42t-42 103zM639 1458q0 60 42.5 102t102.5 42t102 -42.5t42 -101.5q0 -61 -42.5 -103t-101.5 -42q-62 0 -103.5 41.5t-41.5 103.5z" />
<glyph unicode="&#x152;" horiz-adv-x="2547" d="M88 764q0 167 61 313.5t166 250t251.5 163t312.5 59.5q167 0 311.5 -58.5t251.5 -166.5v201h1009v-228h-751v-419h710v-228h-710v-424h751l-2 -227h-1007v203q-108 -108 -253.5 -168t-309.5 -60q-165 0 -311.5 60t-251.5 164t-166.5 251t-61.5 314zM346 764 q0 -155 69 -281.5t191.5 -198t272.5 -71.5q151 0 273 71.5t190.5 197.5t68.5 282q0 155 -68.5 280.5t-190.5 197t-273 71.5t-273.5 -71.5t-191 -197t-68.5 -280.5z" />
<glyph unicode="&#x153;" horiz-adv-x="2074" d="M57 553q0 163 76.5 295t209 206t292.5 74q136 0 253.5 -54t194.5 -150q74 96 183.5 150t240.5 54q152 0 275 -73t190.5 -195t67.5 -268q0 -62 -12 -111h-811q10 -134 98 -211t213 -77q92 0 161.5 41.5t106.5 111.5l203 -98q-53 -124 -182 -198.5t-295 -74.5 q-135 0 -249 54.5t-190 152.5q-78 -99 -194.5 -153t-253.5 -54q-160 0 -292.5 74t-209 207t-76.5 297zM313 551q0 -152 91 -250t231 -98q141 0 232 98t91 250t-91 251t-232 99q-140 0 -231 -99t-91 -251zM1223 672h553q-6 108 -83 177t-190 69q-106 0 -183 -65.5t-97 -180.5 z" />
<glyph unicode="&#x178;" horiz-adv-x="1345" d="M27 1526h288l359 -590l356 590h291l-516 -842v-684h-260v682zM328 1880q0 59 42 101t103 42q59 0 101 -42.5t42 -100.5q0 -61 -42 -103t-101 -42q-61 0 -103 41.5t-42 103.5zM733 1880q0 60 43 101.5t103 41.5t101.5 -42t41.5 -101q0 -61 -42 -103t-101 -42 q-62 0 -104 42t-42 103z" />
<glyph unicode="&#x2c6;" horiz-adv-x="778" d="M41 1311l240 321h215l241 -321h-192l-156 215l-151 -215h-197z" />
<glyph unicode="&#x2dc;" horiz-adv-x="849" d="M41 1325q5 65 29.5 114.5t60.5 77t74.5 41t77.5 13.5q52 0 104.5 -23t97 -46t76.5 -23q30 0 50.5 18.5t23.5 58.5h174q-10 -118 -77.5 -181.5t-166.5 -63.5q-57 0 -108.5 23.5t-93.5 47t-76 23.5q-62 0 -72 -80h-174z" />
<glyph unicode="&#x2000;" horiz-adv-x="1084" />
<glyph unicode="&#x2001;" horiz-adv-x="2169" />
<glyph unicode="&#x2002;" horiz-adv-x="1084" />
<glyph unicode="&#x2003;" horiz-adv-x="2169" />
<glyph unicode="&#x2004;" horiz-adv-x="723" />
<glyph unicode="&#x2005;" horiz-adv-x="542" />
<glyph unicode="&#x2006;" horiz-adv-x="361" />
<glyph unicode="&#x2007;" horiz-adv-x="361" />
<glyph unicode="&#x2008;" horiz-adv-x="271" />
<glyph unicode="&#x2009;" horiz-adv-x="433" />
<glyph unicode="&#x200a;" horiz-adv-x="120" />
<glyph unicode="&#x2010;" horiz-adv-x="1132" d="M143 440v222h846v-222h-846z" />
<glyph unicode="&#x2011;" horiz-adv-x="1132" d="M143 440v222h846v-222h-846z" />
<glyph unicode="&#x2012;" horiz-adv-x="1132" d="M143 440v222h846v-222h-846z" />
<glyph unicode="&#x2013;" horiz-adv-x="1249" d="M143 440v222h963v-222h-963z" />
<glyph unicode="&#x2014;" horiz-adv-x="1824" d="M143 440v222h1538v-222h-1538z" />
<glyph unicode="&#x2018;" horiz-adv-x="628" d="M143 983l150 543h172l-84 -543h-238z" />
<glyph unicode="&#x2019;" horiz-adv-x="628" d="M143 983l82 543h240l-152 -543h-170z" />
<glyph unicode="&#x201a;" horiz-adv-x="628" d="M143 -266l82 542h240l-152 -542h-170z" />
<glyph unicode="&#x201c;" horiz-adv-x="1038" d="M143 983l150 543h172l-84 -543h-238zM553 983l149 543h172l-83 -543h-238z" />
<glyph unicode="&#x201d;" horiz-adv-x="1038" d="M143 983l82 543h240l-152 -543h-170zM553 983l82 543h239l-151 -543h-170z" />
<glyph unicode="&#x201e;" horiz-adv-x="1038" d="M143 -266l82 542h240l-152 -542h-170zM553 -266l82 542h239l-151 -542h-170z" />
<glyph unicode="&#x2022;" horiz-adv-x="948" d="M164 745q0 130 90 219t223 89q130 0 218.5 -89.5t88.5 -218.5q1 -133 -87.5 -224t-219.5 -91q-133 0 -223 90.5t-90 224.5z" />
<glyph unicode="&#x2026;" horiz-adv-x="1810" d="M164 0v276h254v-276h-254zM778 0v276h254v-276h-254zM1393 0v276h254v-276h-254z" />
<glyph unicode="&#x202f;" horiz-adv-x="433" />
<glyph unicode="&#x2039;" horiz-adv-x="796" d="M82 551l313 401h279l-312 -401l312 -401h-279z" />
<glyph unicode="&#x203a;" horiz-adv-x="796" d="M123 150l311 401l-311 401h278l314 -401l-314 -401h-278z" />
<glyph unicode="&#x205f;" horiz-adv-x="542" />
<glyph unicode="&#x20ac;" horiz-adv-x="1646" d="M57 504l52 182h194q-2 25 -2 78v47h-170l51 182h144q59 256 236 406.5t427 150.5q207 0 363 -106.5t219 -290.5l-230 -111q-41 129 -134.5 202t-217.5 73q-137 0 -242 -87.5t-153 -236.5h569l-51 -182h-551q-2 -16 -2 -47q0 -28 4 -78h527l-52 -182h-436 q52 -138 153.5 -216.5t233.5 -78.5q124 0 217.5 72.5t134.5 201.5l230 -110q-63 -184 -219.5 -291t-362.5 -107q-239 0 -414.5 143.5t-240.5 385.5h-277z" />
<glyph unicode="&#x2122;" horiz-adv-x="2359" d="M170 1323v203h766v-203h-266v-866h-232v866h-268zM1059 457v1069h225l338 -445l344 445h225v-1069h-231v678l-322 -410h-30l-320 426v-694h-229z" />
<glyph unicode="&#x25fc;" horiz-adv-x="1105" d="M0 0v1106h1106v-1106h-1106z" />
</font>
</defs>
</svg>
