<svg width="60" height="60" viewBox="0 0 60 60" fill="none" xmlns="http://www.w3.org/2000/svg">
<g clip-path="url(#clip0)">
<rect width="60" height="60" fill="white"/>
<rect width="60" height="60" fill="#F2EAFF"/>
<g filter="url(#filter0_d)">
<path fill-rule="evenodd" clip-rule="evenodd" d="M30.6145 35.7913H29.9851C25.659 35.7913 22.1524 32.3269 22.1524 28.0566V19.7347C22.1524 15.4627 25.659 12 29.9851 12H30.6145C34.9406 12 38.4489 15.4627 38.4489 19.7347V28.0566C38.4489 32.3269 34.9406 35.7913 30.6145 35.7913ZM42.1126 27.8092C42.1126 26.8569 42.8938 26.0873 43.8563 26.0873C44.8188 26.0873 45.6 26.8569 45.6 27.8092C45.6 35.5559 39.661 41.9527 32.0446 42.812V46.2781C32.0446 47.2286 31.2634 48 30.3009 48C29.3366 48 28.5572 47.2286 28.5572 46.2781V42.812C20.939 41.9527 15 35.5559 15 27.8092C15 26.8569 15.7812 26.0873 16.7437 26.0873C17.7062 26.0873 18.4874 26.8569 18.4874 27.8092C18.4874 34.2404 23.7865 39.4732 30.3009 39.4732C36.8136 39.4732 42.1126 34.2404 42.1126 27.8092Z" fill="#6A35FF" fill-opacity="0.01"/>
</g>
<path fill-rule="evenodd" clip-rule="evenodd" d="M30.6145 35.7913H29.9851C25.659 35.7913 22.1524 32.3269 22.1524 28.0566V19.7347C22.1524 15.4627 25.659 12 29.9851 12H30.6145C34.9406 12 38.4489 15.4627 38.4489 19.7347V28.0566C38.4489 32.3269 34.9406 35.7913 30.6145 35.7913ZM42.1126 27.8092C42.1126 26.8569 42.8938 26.0873 43.8563 26.0873C44.8188 26.0873 45.6 26.8569 45.6 27.8092C45.6 35.5559 39.661 41.9527 32.0446 42.812V46.2781C32.0446 47.2286 31.2634 48 30.3009 48C29.3366 48 28.5572 47.2286 28.5572 46.2781V42.812C20.939 41.9527 15 35.5559 15 27.8092C15 26.8569 15.7812 26.0873 16.7437 26.0873C17.7062 26.0873 18.4874 26.8569 18.4874 27.8092C18.4874 34.2404 23.7865 39.4732 30.3009 39.4732C36.8136 39.4732 42.1126 34.2404 42.1126 27.8092Z" fill="#6A35FF"/>
</g>
<defs>
<filter id="filter0_d" x="3" y="5" width="54.6" height="60" filterUnits="userSpaceOnUse" color-interpolation-filters="sRGB">
<feFlood flood-opacity="0" result="BackgroundImageFix"/>
<feColorMatrix in="SourceAlpha" type="matrix" values="0 0 0 0 0 0 0 0 0 0 0 0 0 0 0 0 0 0 127 0"/>
<feOffset dy="5"/>
<feGaussianBlur stdDeviation="6"/>
<feColorMatrix type="matrix" values="0 0 0 0 0.414166 0 0 0 0 0.208333 0 0 0 0 1 0 0 0 0.37 0"/>
<feBlend mode="normal" in2="BackgroundImageFix" result="effect1_dropShadow"/>
<feBlend mode="normal" in="SourceGraphic" in2="effect1_dropShadow" result="shape"/>
</filter>
<clipPath id="clip0">
<rect width="60" height="60" fill="white"/>
</clipPath>
</defs>
</svg>
