<svg width="37" height="37" viewBox="0 0 37 37" fill="none" xmlns="http://www.w3.org/2000/svg">
<path d="M3.22015 19.9375C3.22827 19.8682 3.27813 19.8196 3.34095 19.8196C3.40149 19.8196 3.45165 19.8682 3.46105 19.9371L3.72199 21.6097L3.46105 23.2538C3.45134 23.3228 3.40179 23.3707 3.34095 23.3707C3.2781 23.3707 3.22827 23.3224 3.22015 23.2532L3 21.6097L3.22015 19.9375Z" fill="white"/>
<path d="M4.45372 18.7845C4.51717 18.7845 4.56865 18.8341 4.57902 18.9059L4.91537 21.6097L4.57868 24.2543C4.56834 24.3258 4.51684 24.3757 4.45372 24.3757C4.38962 24.3757 4.33684 24.3245 4.32842 24.2536L4.03249 21.6097L4.32842 18.9059C4.33715 18.8357 4.38993 18.7845 4.45372 18.7845Z" fill="white"/>
<path d="M9.01494 16.6376C9.02075 16.5114 9.12114 16.412 9.24255 16.412C9.36329 16.412 9.46334 16.5114 9.47049 16.6376L9.73694 21.612L9.47049 24.827V24.826C9.46337 24.9519 9.36332 25.0513 9.24255 25.0513C9.12114 25.0513 9.02109 24.9523 9.01494 24.8267L8.77925 21.612L9.01494 16.6376Z" fill="white"/>
<path d="M6.65206 18.3147C6.65954 18.2154 6.73562 18.1409 6.82886 18.1409C6.92113 18.1409 6.99721 18.2154 7.00533 18.3141L7.30707 21.6107L7.00533 24.7994C6.99721 24.8982 6.92113 24.9726 6.82886 24.9726C6.73559 24.9726 6.65918 24.8982 6.65206 24.7994L6.38658 21.6107L6.65206 18.3147Z" fill="white"/>
<path d="M11.9745 24.7742C11.9683 24.9296 11.846 25.051 11.6954 25.051C11.5439 25.051 11.4212 24.9293 11.4163 24.7751L11.2114 21.6132L11.4163 14.9913C11.4212 14.8359 11.5439 14.7141 11.6957 14.7141C11.8463 14.7141 11.9687 14.8355 11.9748 14.9909L12.2057 21.6136L11.9745 24.7742Z" fill="white"/>
<path d="M17.0991 24.6855C17.0952 24.8953 16.9242 25.0659 16.717 25.0659C16.5098 25.0659 16.3382 24.8953 16.3349 24.6874C16.3349 24.6874 16.1909 21.6178 16.1909 21.6129L16.3349 13.9672C16.3382 13.7571 16.5095 13.5865 16.717 13.5865C16.9242 13.5865 17.0955 13.7574 17.099 13.9669L17.2603 21.6155L17.0991 24.6855Z" fill="white"/>
<path d="M14.5177 24.7247C14.5128 24.9092 14.3675 25.054 14.1871 25.054C14.0055 25.054 13.8601 24.9092 13.8562 24.7266L13.6814 21.6146L13.8559 14.9437C13.8598 14.7592 14.0051 14.6148 14.1868 14.6148C14.3671 14.6148 14.5125 14.7591 14.5173 14.9437L14.7139 21.6143L14.5177 24.7269V24.7247Z" fill="white"/>
<path d="M8.23306 24.826C8.22496 24.939 8.13818 25.0248 8.031 25.0248C7.92222 25.0248 7.8358 24.939 7.82868 24.8257L7.57838 21.6107L7.82868 18.5534C7.83546 18.4397 7.92225 18.3539 8.031 18.3539C8.13854 18.3539 8.2253 18.4391 8.23306 18.5521L8.51733 21.6107L8.23306 24.826Z" fill="white"/>
<path d="M5.78731 24.7014C5.77824 24.7868 5.71478 24.8487 5.63645 24.8487C5.55678 24.8487 5.49333 24.7865 5.48554 24.7007L5.20452 21.61L5.48554 18.4022C5.49363 18.3167 5.55709 18.2545 5.63642 18.2545C5.71475 18.2545 5.77821 18.3164 5.78761 18.4022L6.10654 21.61L5.78731 24.7014Z" fill="white"/>
<path d="M15.0904 15.1878C15.0943 14.9884 15.2513 14.8326 15.4472 14.8326C15.6427 14.8326 15.7988 14.9884 15.8034 15.1871L15.9821 21.6152L15.8034 24.7078V24.7052C15.7989 24.9047 15.6428 25.0601 15.4472 25.0601C15.251 25.0601 15.0943 24.9043 15.0904 24.7075L14.9311 21.6149L15.0904 15.1878Z" fill="white"/>
<path d="M10.718 24.8062C10.7115 24.9471 10.5998 25.0575 10.4644 25.0575C10.3278 25.0575 10.2164 24.9471 10.2109 24.8075L9.99046 21.6129L10.2106 15.5009C10.2164 15.36 10.3278 15.2496 10.4644 15.2496C10.5998 15.2496 10.7111 15.3597 10.718 15.5009L10.9666 21.6129L10.718 24.8062Z" fill="white"/>
<path d="M13.2411 24.7561V24.7557C13.2351 24.9246 13.1019 25.0571 12.9364 25.0571C12.7703 25.0571 12.6362 24.9241 12.6317 24.7557L12.4417 21.6136L12.6314 14.7682C12.6359 14.5979 12.7699 14.4649 12.9364 14.4649C13.1018 14.4649 13.2359 14.5982 13.2411 14.7682L13.4547 21.6139L13.2411 24.7544V24.7557C13.2411 24.7554 13.2411 24.7551 13.2411 24.7548V24.7561H13.2411Z" fill="white"/>
<path d="M27.9705 17.9554C28.4114 17.7705 28.8955 17.6678 29.4028 17.6678C31.4477 17.6678 33.1054 19.3262 33.1054 21.3714C33.1054 23.4166 31.4474 25.0746 29.4025 25.0746C29.3365 25.0746 19.1476 25.0695 19.1382 25.0685C18.917 25.0461 18.7412 24.8574 18.7383 24.6307V12.878C18.7409 12.6621 18.8153 12.5507 19.0947 12.4426C19.8138 12.1645 20.6281 12 21.4634 12C24.8772 12 27.6758 14.618 27.9705 17.9554Z" fill="white"/>
<path d="M17.573 13.2747C17.5763 13.0503 17.7589 12.8677 17.9813 12.8677C18.2031 12.8677 18.3857 13.0503 18.3889 13.274L18.5705 21.6165L18.3889 24.6444V24.6408C18.3857 24.8652 18.2031 25.0475 17.9813 25.0475C17.7589 25.0475 17.5763 24.8652 17.5734 24.644L17.406 21.6165L17.573 13.2747Z" fill="white"/>
</svg>
