<svg width="37" height="37" viewBox="0 0 37 37" fill="none" xmlns="http://www.w3.org/2000/svg">
<path d="M18.9808 4.01263C16.1533 4.01263 13.3893 4.85109 11.0382 6.42198C8.68725 7.99287 6.85486 10.2256 5.77281 12.8379C4.69076 15.4502 4.40765 18.3247 4.95927 21.0979C5.5109 23.8711 6.87248 26.4185 8.87185 28.4178C10.8712 30.4172 13.4186 31.7788 16.1918 32.3304C18.965 32.882 21.8395 32.5989 24.4517 31.5169C27.064 30.4348 29.2968 28.6024 30.8677 26.2514C32.4386 23.9004 33.277 21.1364 33.277 18.3089C33.277 14.5173 31.7708 10.881 29.0898 8.1999C26.4087 5.51884 22.7724 4.01263 18.9808 4.01263V4.01263ZM25.5413 24.6298C25.4805 24.7308 25.4002 24.8187 25.3051 24.8884C25.2099 24.9582 25.1019 25.0083 24.9873 25.0359C24.8726 25.0635 24.7536 25.068 24.6372 25.0492C24.5208 25.0304 24.4092 24.9887 24.3091 24.9264C20.9547 22.8727 16.7331 22.4163 11.7585 23.5459C11.6454 23.5729 11.528 23.5772 11.4132 23.5584C11.2983 23.5397 11.1884 23.4984 11.0897 23.4368C10.9909 23.3752 10.9054 23.2947 10.8381 23.1998C10.7708 23.1049 10.723 22.9976 10.6974 22.8841C10.6703 22.7702 10.6659 22.6521 10.6845 22.5365C10.7031 22.421 10.7443 22.3102 10.8058 22.2106C10.8673 22.1109 10.9478 22.0244 11.0427 21.956C11.1377 21.8875 11.2452 21.8384 11.3592 21.8116C16.8016 20.568 21.4795 21.1042 25.2447 23.409C25.4456 23.5318 25.5896 23.7293 25.6452 23.9581C25.7008 24.1869 25.6635 24.4285 25.5413 24.6298V24.6298ZM27.287 20.7391C27.1276 20.9844 26.88 21.159 26.5955 21.2269C26.3109 21.2949 26.0112 21.251 25.7581 21.1042C21.4199 18.6843 16.2986 18.0851 11.5189 19.4384C11.3702 19.5213 11.2048 19.5699 11.0349 19.5806C10.8649 19.5912 10.6947 19.5637 10.5368 19.5C10.3789 19.4364 10.2372 19.3382 10.1222 19.2126C10.0071 19.0871 9.92166 18.9374 9.87201 18.7745C9.82237 18.6116 9.8098 18.4397 9.83525 18.2713C9.8607 18.103 9.9235 17.9424 10.0191 17.8015C10.1146 17.6606 10.2405 17.5428 10.3875 17.4569C10.5345 17.3709 10.6989 17.319 10.8686 17.3048C13.5364 16.5368 16.3308 16.3098 19.0876 16.637C21.8444 16.9642 24.508 17.8391 26.9219 19.2102C27.1671 19.3697 27.3418 19.6172 27.4097 19.9018C27.4777 20.1863 27.4337 20.4861 27.287 20.7391V20.7391ZM27.4353 16.6887C22.8715 13.9504 15.2385 13.6994 10.8344 15.0343C10.4954 15.1372 10.1295 15.1012 9.81714 14.9343C9.50474 14.7674 9.27144 14.4833 9.16855 14.1444C9.06567 13.8054 9.10163 13.4395 9.26853 13.1271C9.43543 12.8147 9.71959 12.5814 10.0585 12.4786C15.113 10.9497 23.499 11.2463 28.8045 14.384C29.0772 14.5792 29.2665 14.8699 29.3347 15.1983C29.4028 15.5267 29.3449 15.8687 29.1723 16.1564C28.9997 16.444 28.7252 16.6561 28.4034 16.7505C28.0815 16.8449 27.7359 16.8147 27.4353 16.6659V16.6887Z" fill="white"/>
</svg>
