<svg width="72" height="72" viewBox="0 0 72 72" fill="none" xmlns="http://www.w3.org/2000/svg">
<mask id="mask0_2315_2669" style="mask-type:alpha" maskUnits="userSpaceOnUse" x="0" y="0" width="72" height="72">
<rect x="0.5" y="0.5" width="71" height="71" rx="18.5" fill="#F62626" stroke="#F4F5FA"/>
</mask>
<g mask="url(#mask0_2315_2669)">
<rect width="136" height="90" transform="matrix(-1 0 0 1 108 -12)" fill="#1781FE"/>
<path fill-rule="evenodd" clip-rule="evenodd" d="M51.9766 36.9145C51.8139 39.7579 50.8946 42.5125 49.3061 44.8898C47.5479 47.5211 45.0489 49.572 42.1252 50.7831C39.2014 51.9941 35.9841 52.311 32.8803 51.6936C29.7764 51.0762 26.9253 49.5523 24.6875 47.3145C22.4498 45.0767 20.9258 42.2256 20.3084 39.1218C19.691 36.0179 20.0079 32.8007 21.219 29.8769C22.43 26.9531 24.4809 24.4541 27.1123 22.6959C29.4895 21.1074 32.2441 20.1881 35.0876 20.0254V28.0521C33.8288 28.1969 32.6178 28.6392 31.5571 29.348C30.2414 30.2271 29.216 31.4766 28.6104 32.9385C28.0049 34.4004 27.8465 36.009 28.1552 37.561C28.4639 39.1129 29.2258 40.5384 30.3447 41.6573C31.4636 42.7762 32.8891 43.5382 34.4411 43.8469C35.993 44.1556 37.6016 43.9971 39.0635 43.3916C40.5254 42.7861 41.7749 41.7606 42.654 40.445C43.3628 39.3842 43.8051 38.1732 43.9499 36.9145H51.9766Z" fill="white"/>
<path fill-rule="evenodd" clip-rule="evenodd" d="M43.9978 19.998H37.4521V27.9985H43.9978V34.544L51.9983 34.544L51.9983 27.9985H51.9985V19.998H50.169H43.9978Z" fill="white"/>
</g>
</svg>
