<svg width="60" height="60" viewBox="0 0 60 60" fill="none" xmlns="http://www.w3.org/2000/svg">
<g clip-path="url(#clip0)">
<rect width="60" height="60" fill="white"/>
<rect width="60" height="60" fill="#FFF1F3"/>
<g filter="url(#filter0_d)">
<path fill-rule="evenodd" clip-rule="evenodd" d="M39.7711 20.25C39.8299 20.1189 39.8575 19.976 39.8517 19.8325H39.9C39.6931 14.8959 35.6171 11 30.6591 11C25.7012 11 21.6252 14.8959 21.4183 19.8325C21.3939 19.9706 21.3939 20.1119 21.4183 20.25H21.2737C18.9029 20.25 16.3686 21.815 15.6329 26.0221L14.1941 37.4823C13.0169 45.8965 17.3496 48 23.0068 48H38.3432C43.984 48 48.1859 44.9541 47.1395 37.4823L45.7171 26.0221C44.8505 21.9328 42.398 20.25 40.0599 20.25H39.7711ZM37.1124 20.25C37.0609 20.1167 37.0337 19.9753 37.0319 19.8325C37.0319 16.2851 34.1462 13.4094 30.5866 13.4094C27.027 13.4094 24.1414 16.2851 24.1414 19.8325C24.1658 19.9706 24.1658 20.1119 24.1414 20.25H37.1124ZM25.2794 29.7749C24.3765 29.7749 23.6444 29.0214 23.6444 28.092C23.6444 27.1626 24.3765 26.4092 25.2794 26.4092C26.1824 26.4092 26.9145 27.1626 26.9145 28.092C26.9145 29.0214 26.1824 29.7749 25.2794 29.7749ZM34.3538 28.092C34.3538 29.0214 35.0858 29.7749 35.9888 29.7749C36.8918 29.7749 37.6238 29.0214 37.6238 28.092C37.6238 27.1626 36.8918 26.4092 35.9888 26.4092C35.0858 26.4092 34.3538 27.1626 34.3538 28.092Z" fill="#FF3951" fill-opacity="0.01"/>
</g>
<path fill-rule="evenodd" clip-rule="evenodd" d="M39.7711 20.25C39.8299 20.1189 39.8575 19.976 39.8517 19.8325H39.9C39.6931 14.8959 35.6171 11 30.6591 11C25.7012 11 21.6252 14.8959 21.4183 19.8325C21.3939 19.9706 21.3939 20.1119 21.4183 20.25H21.2737C18.9029 20.25 16.3686 21.815 15.6329 26.0221L14.1941 37.4823C13.0169 45.8965 17.3496 48 23.0068 48H38.3432C43.984 48 48.1859 44.9541 47.1395 37.4823L45.7171 26.0221C44.8505 21.9328 42.398 20.25 40.0599 20.25H39.7711ZM37.1124 20.25C37.0609 20.1167 37.0337 19.9753 37.0319 19.8325C37.0319 16.2851 34.1462 13.4094 30.5866 13.4094C27.027 13.4094 24.1414 16.2851 24.1414 19.8325C24.1658 19.9706 24.1658 20.1119 24.1414 20.25H37.1124ZM25.2794 29.7749C24.3765 29.7749 23.6444 29.0214 23.6444 28.092C23.6444 27.1626 24.3765 26.4092 25.2794 26.4092C26.1824 26.4092 26.9145 27.1626 26.9145 28.092C26.9145 29.0214 26.1824 29.7749 25.2794 29.7749ZM34.3538 28.092C34.3538 29.0214 35.0858 29.7749 35.9888 29.7749C36.8918 29.7749 37.6238 29.0214 37.6238 28.092C37.6238 27.1626 36.8918 26.4092 35.9888 26.4092C35.0858 26.4092 34.3538 27.1626 34.3538 28.092Z" fill="#FF3951"/>
</g>
<defs>
<filter id="filter0_d" x="0" y="3" width="61.3" height="65" filterUnits="userSpaceOnUse" color-interpolation-filters="sRGB">
<feFlood flood-opacity="0" result="BackgroundImageFix"/>
<feColorMatrix in="SourceAlpha" type="matrix" values="0 0 0 0 0 0 0 0 0 0 0 0 0 0 0 0 0 0 127 0"/>
<feOffset dy="6"/>
<feGaussianBlur stdDeviation="7"/>
<feColorMatrix type="matrix" values="0 0 0 0 1 0 0 0 0 0.223529 0 0 0 0 0.317647 0 0 0 0.33 0"/>
<feBlend mode="normal" in2="BackgroundImageFix" result="effect1_dropShadow"/>
<feBlend mode="normal" in="SourceGraphic" in2="effect1_dropShadow" result="shape"/>
</filter>
<clipPath id="clip0">
<rect width="60" height="60" fill="white"/>
</clipPath>
</defs>
</svg>
