<svg width="36" height="37" viewBox="0 0 36 37" fill="none" xmlns="http://www.w3.org/2000/svg">
<path d="M22.3474 7.8254V7.82074H23.5597L24.0027 7.90921C24.298 7.96664 24.5661 8.04191 24.807 8.13503C25.0479 8.22816 25.2811 8.33681 25.5064 8.46097C25.7318 8.58513 25.9362 8.71164 26.1196 8.84045C26.3014 8.96773 26.4646 9.10276 26.6091 9.24554C26.7521 9.38989 26.9751 9.42714 27.2782 9.35729C27.5813 9.28745 27.9077 9.19044 28.2574 9.06628C28.6071 8.94212 28.9529 8.80243 29.2948 8.64722C29.6368 8.492 29.845 8.39345 29.9196 8.35155C29.9927 8.30811 30.0315 8.28483 30.0362 8.28171L30.0408 8.27472L30.0642 8.26308L30.0875 8.25144L30.1108 8.2398L30.1341 8.22816L30.1388 8.22117L30.1458 8.21652L30.1528 8.21186L30.1574 8.20488L30.1807 8.19789L30.204 8.19324L30.1994 8.22816L30.1924 8.26308L30.1807 8.298L30.1691 8.33292L30.1574 8.35621L30.1458 8.37949L30.1341 8.41441C30.1263 8.43769 30.1186 8.46872 30.1108 8.50753C30.103 8.54634 30.0292 8.70153 29.8893 8.97315C29.7494 9.24478 29.5746 9.52026 29.3648 9.79963C29.1549 10.079 28.9669 10.2901 28.8006 10.4329C28.6327 10.5772 28.5216 10.6781 28.4672 10.7355C28.4128 10.7945 28.3468 10.8488 28.269 10.8985L28.1525 10.9753L28.1291 10.987L28.1058 10.9986L28.1012 11.0056L28.0942 11.0103L28.0872 11.0149L28.0825 11.0219L28.0592 11.0335L28.0359 11.0452L28.0313 11.0522L28.0242 11.0568L28.0172 11.0615L28.0126 11.0685L28.0079 11.0754L28.0009 11.0801L27.9939 11.0848L27.9893 11.0917H28.1058L28.7586 10.952C29.1938 10.8589 29.6095 10.7464 30.0059 10.6145L30.6353 10.4049L30.7053 10.3817L30.7402 10.37L30.7636 10.3584L30.7869 10.3467L30.8102 10.3351L30.8335 10.3235L30.8801 10.3165L30.9267 10.3118V10.3584L30.9151 10.363L30.9034 10.37L30.8988 10.377L30.8918 10.3817L30.8848 10.3863L30.8801 10.3933L30.8755 10.4003L30.8685 10.4049L30.8615 10.4096L30.8568 10.4166L30.8522 10.4236L30.8452 10.4282L30.8335 10.4515L30.8218 10.4748L30.8148 10.4794C30.8117 10.4841 30.7131 10.616 30.5188 10.8752C30.3245 11.136 30.2196 11.2679 30.204 11.271C30.1885 11.2757 30.1667 11.2989 30.1388 11.3408C30.1123 11.3843 29.9476 11.5574 29.6445 11.86C29.3414 12.1627 29.0446 12.4319 28.754 12.6679C28.4618 12.9053 28.3141 13.1971 28.311 13.5432C28.3064 13.8878 28.2885 14.2774 28.2574 14.7119C28.2263 15.1465 28.168 15.616 28.0825 16.1205C27.9971 16.6249 27.8649 17.1953 27.6862 17.8316C27.5075 18.468 27.2899 19.0888 27.0334 19.6941C26.777 20.2994 26.5089 20.8426 26.2291 21.3238C25.9494 21.8049 25.6929 22.2124 25.4598 22.546C25.2266 22.8797 24.9896 23.194 24.7487 23.4889C24.5078 23.7838 24.2032 24.116 23.8349 24.4854C23.4649 24.8532 23.2629 25.055 23.2287 25.0907C23.193 25.1248 23.0407 25.2521 22.7717 25.4725C22.5044 25.6944 22.2169 25.9164 21.9092 26.1383C21.603 26.3587 21.3217 26.5426 21.0652 26.6901C20.8088 26.8375 20.4995 27.0059 20.1373 27.1953C19.7768 27.3862 19.3866 27.5631 18.967 27.7261C18.5474 27.8891 18.1044 28.0404 17.6381 28.1801C17.1719 28.3198 16.7212 28.4284 16.286 28.506C15.8508 28.5836 15.3573 28.6496 14.8056 28.7039L13.978 28.7854V28.797H12.4626V28.7854L12.2644 28.7737C12.1323 28.766 12.0235 28.7582 11.938 28.7505C11.8526 28.7427 11.5301 28.7 10.9705 28.6224C10.411 28.5448 9.97196 28.4672 9.65333 28.3896C9.33473 28.312 8.86068 28.1645 8.23122 27.9473C7.60176 27.73 7.06322 27.5103 6.61561 27.2884C6.16955 27.068 5.88979 26.9283 5.77633 26.8693C5.66442 26.8119 5.53853 26.7405 5.39865 26.6552L5.18883 26.5271L5.18419 26.5201L5.17718 26.5155L5.17018 26.5108L5.16552 26.5038L5.14221 26.4922L5.11889 26.4805L5.11425 26.4736L5.10724 26.4689L5.10024 26.4643L5.09558 26.4573L5.09094 26.4503L5.08392 26.4456H5.07227V26.3991L5.09558 26.4037L5.11889 26.4107L5.2238 26.4223C5.29374 26.4301 5.48414 26.4417 5.79498 26.4573C6.10584 26.4728 6.4361 26.4728 6.7858 26.4573C7.1355 26.4417 7.49298 26.4068 7.85821 26.3525C8.22346 26.2982 8.65475 26.2051 9.1521 26.0731C9.64946 25.9412 10.1064 25.7844 10.5229 25.6029C10.9379 25.4197 11.2332 25.2831 11.4089 25.1931C11.5829 25.1046 11.8487 24.9401 12.2061 24.6995L12.7424 24.3387L12.747 24.3317L12.754 24.327L12.761 24.3224L12.7657 24.3154L12.7703 24.3084L12.7773 24.3038L12.7843 24.2991L12.789 24.2921L12.8123 24.2851L12.8356 24.2805L12.8403 24.2572L12.8473 24.2339L12.8543 24.2293L12.8589 24.2223L12.6724 24.2106C12.5481 24.2029 12.4276 24.1951 12.3111 24.1874C12.1945 24.1796 12.0119 24.1447 11.7632 24.0826C11.5145 24.0205 11.2464 23.9274 10.9589 23.8032C10.6714 23.6791 10.3916 23.5316 10.1196 23.3609C9.84763 23.1902 9.651 23.0481 9.52977 22.9348C9.41011 22.8231 9.25468 22.6648 9.06351 22.4599C8.8739 22.2535 8.70914 22.0416 8.56926 21.8243C8.42938 21.607 8.29573 21.3564 8.1683 21.0723L7.97478 20.6486L7.96312 20.6137L7.95146 20.5788L7.94447 20.5555L7.93981 20.5322L7.97478 20.5369L8.00975 20.5439L8.26619 20.5788C8.43717 20.6021 8.70527 20.6098 9.0705 20.6021C9.43575 20.5943 9.6883 20.5788 9.82818 20.5555C9.96806 20.5322 10.0536 20.5167 10.0846 20.5089L10.1313 20.4973L10.1895 20.4857L10.2478 20.474L10.2525 20.467L10.2595 20.4624L10.2665 20.4577L10.2711 20.4507L10.2245 20.4391L10.1779 20.4275L10.1313 20.4158L10.0846 20.4042L10.038 20.3925C10.0069 20.3848 9.95254 20.3693 9.87481 20.346C9.79711 20.3227 9.58729 20.2373 9.24535 20.0899C8.90344 19.9424 8.63144 19.7989 8.42938 19.6592C8.22683 19.5191 8.03369 19.3659 7.85121 19.2005C7.66937 19.0329 7.46967 18.8172 7.25206 18.5533C7.03448 18.2895 6.84021 17.9829 6.66923 17.6337C6.49827 17.2845 6.37005 16.9508 6.28456 16.6326C6.19941 16.3163 6.14324 15.9929 6.11673 15.6665L6.07474 15.1776L6.09805 15.1822L6.12137 15.1892L6.14468 15.2009L6.16799 15.2125L6.19131 15.2241L6.21462 15.2358L6.57598 15.3987C6.8169 15.5074 7.11608 15.6005 7.47354 15.6781C7.83103 15.7557 8.04472 15.7984 8.11466 15.8062L8.21956 15.8178H8.42938L8.42475 15.8108L8.41773 15.8062L8.41073 15.8015L8.40607 15.7945L8.40143 15.7875L8.39441 15.7829L8.38742 15.7782L8.38276 15.7712L8.35944 15.7596L8.33613 15.748L8.33149 15.741L8.32447 15.7363L8.31748 15.7317L8.31282 15.7247L8.2895 15.713L8.26619 15.7014L8.26155 15.6944C8.25689 15.6913 8.19005 15.6416 8.06103 15.5454C7.93358 15.4476 7.79993 15.3211 7.66005 15.1659C7.52017 15.0107 7.38029 14.8477 7.24041 14.677C7.10027 14.5059 6.97545 14.3228 6.86739 14.1299C6.75861 13.9359 6.64358 13.6891 6.52235 13.3896C6.40269 13.0916 6.31177 12.7913 6.24959 12.4886C6.18744 12.1859 6.15247 11.8872 6.14468 11.5923C6.13692 11.2974 6.14468 11.0452 6.16799 10.8356C6.19131 10.6261 6.23793 10.3894 6.30787 10.1256C6.37781 9.86172 6.47885 9.58235 6.61095 9.28745L6.80911 8.84511L6.82077 8.81019L6.83242 8.77527L6.83944 8.77061L6.84408 8.76362L6.84874 8.75664L6.85574 8.75198L6.86275 8.75664L6.86739 8.76362L6.87205 8.77061L6.87905 8.77527L6.88607 8.77992L6.89071 8.78691L6.89537 8.79389L6.90236 8.79855L6.91402 8.82183L6.92568 8.84511L6.93269 8.84976L6.93733 8.85675L7.25206 9.20597C7.46188 9.43878 7.71057 9.69876 7.99809 9.98588C8.28563 10.273 8.44493 10.422 8.47601 10.4329C8.50711 10.4453 8.54595 10.481 8.59258 10.54C8.6392 10.5974 8.79463 10.7348 9.05884 10.952C9.32308 11.1693 9.66888 11.4216 10.0963 11.7087C10.5237 11.9958 10.9977 12.2791 11.5184 12.5584C12.0391 12.8378 12.5986 13.09 13.197 13.3151C13.7953 13.5401 14.215 13.6876 14.4559 13.7574C14.6968 13.8273 15.1087 13.9165 15.6915 14.0252C16.2743 14.1338 16.7134 14.2037 17.0087 14.2347C17.304 14.2657 17.5061 14.2836 17.6148 14.2882L17.778 14.2929L17.7734 14.258L17.7664 14.223L17.7197 13.932C17.6887 13.738 17.6731 13.4664 17.6731 13.1172C17.6731 12.768 17.7003 12.4459 17.7547 12.151C17.8091 11.8561 17.8907 11.5574 17.9995 11.2547C18.1083 10.952 18.2148 10.7091 18.3189 10.526C18.4246 10.3444 18.5629 10.1372 18.7339 9.9044C18.9049 9.67159 19.1263 9.43102 19.3983 9.18268C19.6703 8.93435 19.9811 8.71317 20.3308 8.51917C20.6805 8.32517 21.0031 8.17771 21.2983 8.07683C21.5937 7.97595 21.8423 7.90998 22.0444 7.87894C22.2464 7.84791 22.3474 7.83005 22.3474 7.8254V7.8254Z" fill="white"/>
</svg>
