<svg width="60" height="60" viewBox="0 0 60 60" fill="none" xmlns="http://www.w3.org/2000/svg">
<g clip-path="url(#clip0)">
<rect width="60" height="60" fill="white"/>
<rect width="60" height="60" fill="#FFF1F3"/>
<g filter="url(#filter0_d)">
<rect x="19.7998" y="14.1777" width="20.4002" height="31.6409" fill="#C4C4C4"/>
</g>
<rect x="20.1816" y="15.0273" width="20.1756" height="31.1351" fill="white"/>
<path d="M37.4966 12.0586H22.5037C21.3108 12.0586 20.1668 12.5325 19.3233 13.376C18.4797 14.2195 18.0059 15.3636 18.0059 16.5565V43.4418C18.0059 44.6347 18.4797 45.7787 19.3233 46.6222C20.1668 47.4658 21.3108 47.9396 22.5037 47.9396H37.4966C38.6896 47.9396 39.8336 47.4658 40.6771 46.6222C41.5206 45.7787 41.9945 44.6347 41.9945 43.4418V16.5565C41.9945 15.3636 41.5206 14.2195 40.6771 13.376C39.8336 12.5325 38.6896 12.0586 37.4966 12.0586V12.0586ZM30.0002 45.6907C29.7037 45.6907 29.4138 45.6028 29.1672 45.438C28.9207 45.2733 28.7285 45.0391 28.615 44.7652C28.5015 44.4912 28.4719 44.1897 28.5297 43.8989C28.5876 43.6081 28.7304 43.3409 28.94 43.1312C29.1497 42.9216 29.4169 42.7788 29.7077 42.7209C29.9985 42.6631 30.3 42.6928 30.5739 42.8062C30.8479 42.9197 31.0821 43.1119 31.2468 43.3584C31.4115 43.605 31.4995 43.8949 31.4995 44.1914C31.4995 44.589 31.3415 44.9704 31.0603 45.2516C30.7792 45.5327 30.3978 45.6907 30.0002 45.6907ZM38.9959 38.9439C38.9959 39.3415 38.838 39.7229 38.5568 40.004C38.2756 40.2852 37.8943 40.4432 37.4966 40.4432H22.5037C22.1061 40.4432 21.7247 40.2852 21.4436 40.004C21.1624 39.7229 21.0044 39.3415 21.0044 38.9439V17.3061C21.0044 16.9085 21.1624 16.5271 21.4436 16.246C21.7247 15.9648 22.1061 15.8068 22.5037 15.8068H37.4966C37.8943 15.8068 38.2756 15.9648 38.5568 16.246C38.838 16.5271 38.9959 16.9085 38.9959 17.3061V38.9439Z" fill="#FF3951"/>
</g>
<defs>
<filter id="filter0_d" x="6.8698" y="5.24773" width="46.2603" height="57.5009" filterUnits="userSpaceOnUse" color-interpolation-filters="sRGB">
<feFlood flood-opacity="0" result="BackgroundImageFix"/>
<feColorMatrix in="SourceAlpha" type="matrix" values="0 0 0 0 0 0 0 0 0 0 0 0 0 0 0 0 0 0 127 0"/>
<feOffset dy="4"/>
<feGaussianBlur stdDeviation="6.465"/>
<feColorMatrix type="matrix" values="0 0 0 0 1 0 0 0 0 0.223529 0 0 0 0 0.317647 0 0 0 0.47 0"/>
<feBlend mode="normal" in2="BackgroundImageFix" result="effect1_dropShadow"/>
<feBlend mode="normal" in="SourceGraphic" in2="effect1_dropShadow" result="shape"/>
</filter>
<clipPath id="clip0">
<rect width="60" height="60" fill="white"/>
</clipPath>
</defs>
</svg>
