<svg width="34" height="34" viewBox="0 0 34 34" fill="none" xmlns="http://www.w3.org/2000/svg">
<g clip-path="url(#clip0)">
<path fill-rule="evenodd" clip-rule="evenodd" d="M20.7633 9.79607C20.7633 14.2905 17.0855 17.8922 12.4962 17.8922C7.90847 17.8922 4.229 14.2905 4.229 9.79607C4.229 5.30166 7.90847 1.69995 12.4962 1.69995C17.0855 1.69995 20.7633 5.30166 20.7633 9.79607ZM0 27.0595C0 22.899 5.75541 21.8581 12.4939 21.8581C19.269 21.8581 24.9878 22.9349 24.9878 27.0986C24.9878 31.259 19.2324 32.3 12.4939 32.3C5.71881 32.3 0 31.2232 0 27.0595ZM24.0968 9.94279C24.0968 12.2315 23.3948 14.3672 22.1639 16.1411C22.0358 16.3236 22.1489 16.5696 22.3718 16.6087C22.6812 16.6592 22.9989 16.6901 23.3233 16.6966C26.5503 16.7797 29.4463 14.7451 30.2464 11.6809C31.4324 7.1344 27.9525 3.05214 23.5196 3.05214C23.0388 3.05214 22.5781 3.10101 22.1289 3.1906C22.0674 3.20363 22.0009 3.23295 21.9676 3.28508C21.9243 3.35187 21.9559 3.43821 21.9992 3.49522C23.3316 5.32459 24.0968 7.55143 24.0968 9.94279ZM29.4399 19.8939C31.609 20.3092 33.0346 21.1547 33.6251 22.3879C34.1258 23.3978 34.1258 24.5707 33.6251 25.5807C32.7219 27.4899 29.8076 28.104 28.6748 28.262C28.4402 28.2946 28.2523 28.0991 28.2772 27.8678C28.8561 22.5768 24.2534 20.0682 23.0624 19.4915C23.0125 19.4638 23.0009 19.4247 23.0059 19.3986C23.0092 19.3824 23.0308 19.3563 23.0691 19.3514C25.6457 19.3025 28.4169 19.6495 29.4399 19.8939Z" fill="#FF3951"/>
</g>
<defs>
<clipPath id="clip0">
<rect width="34" height="34" fill="white"/>
</clipPath>
</defs>
</svg>
