<svg width="82" height="82" viewBox="0 0 82 82" fill="none" xmlns="http://www.w3.org/2000/svg">
<rect width="82" height="82" rx="19" fill="white"/>
<path fill-rule="evenodd" clip-rule="evenodd" d="M36.4197 20.9043C34.7801 20.9043 33.451 22.2334 33.451 23.873V33.1453H24.0077C22.3682 33.1453 21.0391 34.4744 21.0391 36.114V58.002C21.0391 59.6416 22.3682 60.9707 24.0077 60.9707H45.6358C47.2753 60.9707 48.6045 59.6416 48.6045 58.002V48.7297H58.0477C59.6873 48.7297 61.0164 47.4006 61.0164 45.7611V23.873C61.0164 22.2334 59.6873 20.9043 58.0477 20.9043H36.4197ZM48.6045 48.7297V36.114C48.6045 34.4744 47.2753 33.1453 45.6358 33.1453H33.451V45.7611C33.451 47.4006 34.7801 48.7297 36.4197 48.7297H48.6045Z" fill="#FF3951"/>
</svg>
