<svg width="60" height="60" viewBox="0 0 60 60" fill="none" xmlns="http://www.w3.org/2000/svg">
<g clip-path="url(#clip0)">
<rect width="60" height="60" fill="white"/>
<rect width="60" height="60" fill="#ECF4FF"/>
<g filter="url(#filter0_d)">
<rect x="16.1689" y="16.1035" width="28.885" height="28.885" fill="white"/>
</g>
<rect x="15.9785" y="16.1035" width="29.4084" height="29.4084" fill="white"/>
<path d="M22.2208 19.4063C22.2208 17.8621 20.968 16.6094 19.4239 16.6094C17.8797 16.6094 16.627 17.8621 16.627 19.4063C16.627 20.9505 17.8797 22.2032 19.4239 22.2032C20.968 22.2032 22.2208 20.9505 22.2208 19.4063ZM22.2208 19.4063C22.2208 17.8621 23.4735 16.6094 25.0177 16.6094C26.5618 16.6094 27.8146 17.8621 27.8146 19.4063C27.8146 20.9505 26.5618 22.2032 25.0177 22.2032C23.4735 22.2032 22.2208 20.9505 22.2208 19.4063ZM17.5593 14.7448H43.6637C45.2092 14.7448 46.4606 15.9962 46.4606 17.5417V24.0678H14.7624V17.5417C14.7624 15.9962 16.0138 14.7448 17.5593 14.7448ZM31.6115 22.2032H42.6637C43.7309 22.2032 44.596 21.3381 44.596 20.2709V18.5417C44.596 17.4745 43.7309 16.6094 42.6637 16.6094H31.6115C30.5443 16.6094 29.6792 17.4745 29.6792 18.5417V20.2709C29.6792 21.3381 30.5443 22.2032 31.6115 22.2032Z" fill="#3F80FD" stroke="#3F80FD" stroke-width="1.8646"/>
<path d="M43.6633 45.5119C44.6926 45.5119 45.5279 44.6766 45.5279 43.6473V23.1367H15.6943V43.6473C15.6943 44.6766 16.5297 45.5119 17.5589 45.5119H43.6633Z" stroke="#3F80FD" stroke-width="3.7292" stroke-linejoin="round"/>
<path d="M35.3408 29.6628H38.9346C38.972 29.6628 39.0023 29.6931 39.0023 29.7305V38.9181C39.0023 38.9555 38.972 38.9858 38.9346 38.9858H35.3408C35.3034 38.9858 35.2731 38.9555 35.2731 38.9181V29.7305C35.2731 29.6931 35.3034 29.6628 35.3408 29.6628Z" fill="#3F80FD" stroke="#3F80FD" stroke-width="1.8646"/>
<path d="M29.679 29.7305V31.4597C29.679 31.4971 29.6487 31.5274 29.6113 31.5274H22.2883C22.2509 31.5274 22.2206 31.4971 22.2206 31.4597V29.7305C22.2206 29.6931 22.2509 29.6628 22.2883 29.6628H29.6113C29.6487 29.6628 29.679 29.6931 29.679 29.7305Z" fill="#5B5B5B" stroke="#3F80FD" stroke-width="1.8646"/>
<path d="M29.679 37.1895V38.9187C29.679 38.956 29.6487 38.9864 29.6113 38.9864H22.2883C22.2509 38.9864 22.2206 38.956 22.2206 38.9187V37.1895C22.2206 37.1521 22.2509 37.1218 22.2883 37.1218H29.6113C29.6487 37.1218 29.679 37.1521 29.679 37.1895Z" fill="#5B5B5B" stroke="#3F80FD" stroke-width="1.8646"/>
</g>
<defs>
<filter id="filter0_d" x="-0.718826" y="3.43593" width="62.6605" height="62.6605" filterUnits="userSpaceOnUse" color-interpolation-filters="sRGB">
<feFlood flood-opacity="0" result="BackgroundImageFix"/>
<feColorMatrix in="SourceAlpha" type="matrix" values="0 0 0 0 0 0 0 0 0 0 0 0 0 0 0 0 0 0 127 0"/>
<feOffset dy="4.22019"/>
<feGaussianBlur stdDeviation="8.44389"/>
<feColorMatrix type="matrix" values="0 0 0 0 0.247059 0 0 0 0 0.501961 0 0 0 0 0.992157 0 0 0 0.36 0"/>
<feBlend mode="normal" in2="BackgroundImageFix" result="effect1_dropShadow"/>
<feBlend mode="normal" in="SourceGraphic" in2="effect1_dropShadow" result="shape"/>
</filter>
<clipPath id="clip0">
<rect width="60" height="60" fill="white"/>
</clipPath>
</defs>
</svg>
