<svg width="256" height="256" viewBox="0 0 256 256" fill="none" xmlns="http://www.w3.org/2000/svg">
<g clip-path="url(#clip0)">
<g filter="url(#filter0_d)">
<path d="M62.9703 90.552C38.7131 103.651 0.823235 140.401 43.3222 182.61C58.7256 198.135 106.707 211.646 175.404 141.493" stroke="#FF0000" stroke-opacity="0.01" stroke-width="20.1483"/>
</g>
<g filter="url(#filter1_d)">
<path d="M202.791 185.433C227.049 172.334 264.938 135.584 222.44 93.3753C207.036 77.8505 159.055 64.339 90.3572 134.492" stroke="#FF0000" stroke-opacity="0.01" stroke-width="20.1483"/>
</g>
<path d="M104.321 152.694L155.422 115.068C164.039 108.726 176.169 110.57 182.512 119.186C188.855 127.803 187.005 139.929 178.389 146.271L130.464 181.546C124.854 185.675 118.915 189.349 112.599 192.287C108.655 194.12 104.493 195.959 102.33 196.615C91.4944 199.902 80.0166 200.466 68.9086 198.256C57.8007 196.047 47.4108 191.132 38.6528 183.948C29.9057 176.763 23.0516 167.53 18.7216 157.068C14.3807 146.604 12.6944 135.234 13.8041 123.964C14.9247 112.693 18.7869 101.87 25.0861 92.4539C31.3744 83.0377 39.8931 75.318 49.8804 69.9796C54.2856 67.625 58.9172 65.7655 63.6904 64.4224C73.7332 61.5966 82.3448 70.3053 82.3448 80.7381V84.3682C82.3448 92.7961 75.1217 99.3237 67.6901 103.299V103.299C66.167 104.112 64.72 105.048 63.3601 106.094C60.7055 108.148 58.3773 110.628 56.4951 113.444C55.2222 115.354 54.1669 117.392 53.351 119.52C52.3392 122.126 51.6755 124.866 51.4036 127.667C50.9031 132.754 51.6647 137.887 53.623 142.61C55.5813 147.333 58.671 151.5 62.6203 154.743C64.6983 156.449 66.983 157.872 69.4091 158.983C71.5959 159.983 73.9023 160.729 76.274 161.202C81.2895 162.199 86.479 161.945 91.3639 160.461C92.8044 160.025 94.2047 159.486 95.5548 158.852C96.8251 158.255 97.9341 157.378 99.0665 156.548V156.548L104.321 152.694Z" fill="#FF3951"/>
<path d="M150.784 103.306L99.6833 140.932C91.0667 147.274 78.9361 145.43 72.5934 136.814C66.2506 128.197 68.1001 116.071 76.7167 109.728L127.536 72.3234C131.224 69.609 135.046 67.0774 139.126 64.9985C143.364 62.8391 148.933 60.2479 152.775 59.3851C163.611 56.0981 175.089 55.5337 186.197 57.7436C197.305 59.9529 207.695 64.8677 216.453 72.0522C225.2 79.2367 232.054 88.4693 236.384 98.932C240.725 109.395 242.411 120.766 241.301 132.036C240.181 143.307 236.319 154.13 230.019 163.546C223.731 172.962 215.212 180.682 205.225 186.02C200.82 188.375 196.188 190.234 191.415 191.577C181.372 194.403 172.761 185.694 172.761 175.262V171.632C172.761 163.204 179.984 156.676 187.415 152.701V152.701C188.938 151.888 190.385 150.952 191.745 149.906C194.4 147.852 196.728 145.372 198.61 142.556C199.883 140.646 200.939 138.607 201.754 136.48C202.766 133.873 203.43 131.134 203.702 128.333C204.202 123.246 203.441 118.113 201.483 113.39C199.524 108.667 196.434 104.5 192.485 101.257C190.407 99.5507 188.123 98.1283 185.696 97.0172C183.51 96.017 181.203 95.2703 178.831 94.7978C173.816 93.8009 168.626 94.0552 163.742 95.5389C162.301 95.9752 160.901 96.5134 159.551 97.1478C158.28 97.7447 157.171 98.6222 156.039 99.4515V99.4515L150.784 103.306Z" fill="#FF3951"/>
</g>
<defs>
<filter id="filter0_d" x="-2.06301" y="71.6136" width="200.784" height="155.745" filterUnits="userSpaceOnUse" color-interpolation-filters="sRGB">
<feFlood flood-opacity="0" result="BackgroundImageFix"/>
<feColorMatrix in="SourceAlpha" type="matrix" values="0 0 0 0 0 0 0 0 0 0 0 0 0 0 0 0 0 0 127 0"/>
<feOffset dy="6.0445"/>
<feGaussianBlur stdDeviation="8.05934"/>
<feColorMatrix type="matrix" values="0 0 0 0 1 0 0 0 0 0.223529 0 0 0 0 0.317647 0 0 0 0.11 0"/>
<feBlend mode="normal" in2="BackgroundImageFix" result="effect1_dropShadow"/>
<feBlend mode="normal" in="SourceGraphic" in2="effect1_dropShadow" result="shape"/>
</filter>
<filter id="filter1_d" x="67.0405" y="60.7153" width="200.784" height="155.745" filterUnits="userSpaceOnUse" color-interpolation-filters="sRGB">
<feFlood flood-opacity="0" result="BackgroundImageFix"/>
<feColorMatrix in="SourceAlpha" type="matrix" values="0 0 0 0 0 0 0 0 0 0 0 0 0 0 0 0 0 0 127 0"/>
<feOffset dy="6.0445"/>
<feGaussianBlur stdDeviation="8.05934"/>
<feColorMatrix type="matrix" values="0 0 0 0 1 0 0 0 0 0.223529 0 0 0 0 0.317647 0 0 0 0.11 0"/>
<feBlend mode="normal" in2="BackgroundImageFix" result="effect1_dropShadow"/>
<feBlend mode="normal" in="SourceGraphic" in2="effect1_dropShadow" result="shape"/>
</filter>
<clipPath id="clip0">
<rect width="256" height="256" fill="white"/>
</clipPath>
</defs>
</svg>
