<svg width="36" height="37" viewBox="0 0 36 37" fill="none" xmlns="http://www.w3.org/2000/svg">
<path fill-rule="evenodd" clip-rule="evenodd" d="M27.4034 8.89541C24.9085 6.40955 21.5904 5.03985 18.0553 5.03845C10.7714 5.03845 4.84321 10.9379 4.8403 18.1892C4.83932 20.5071 5.44787 22.7697 6.60424 24.7641L4.72949 31.5793L11.735 29.7504C13.6651 30.7981 15.8383 31.3503 18.05 31.3512H18.0555C25.3386 31.3512 31.2673 25.4511 31.2703 18.1997C31.2717 14.6856 29.8984 11.3813 27.4034 8.89541ZM18.0555 29.13H18.051C16.0801 29.1292 14.147 28.6023 12.4606 27.6063L12.0595 27.3694L7.90241 28.4547L9.01203 24.421L8.75084 24.0074C7.65136 22.267 7.07064 20.2554 7.0715 18.19C7.07391 12.163 12.0012 7.25967 18.0598 7.25967C20.9935 7.26078 23.7513 8.3993 25.8251 10.4655C27.8988 12.5316 29.0402 15.278 29.0391 18.1988C29.0366 24.2263 24.1094 29.13 18.0555 29.13ZM24.0802 20.9432C23.75 20.7787 22.1266 19.9837 21.824 19.8741C21.5213 19.7644 21.3012 19.7096 21.081 20.0386C20.8609 20.3675 20.2281 21.1077 20.0355 21.327C19.8429 21.5464 19.6503 21.5738 19.3201 21.4093C18.9899 21.2448 17.926 20.8978 16.6647 19.7783C15.6832 18.907 15.0204 17.8308 14.8278 17.5018C14.6352 17.1728 14.8074 16.9949 14.9727 16.8311C15.1212 16.6839 15.3028 16.4473 15.4679 16.2554C15.633 16.0635 15.688 15.9265 15.7981 15.7072C15.9082 15.4878 15.8532 15.2959 15.7706 15.1314C15.688 14.967 15.0277 13.3495 14.7525 12.6915C14.4845 12.0508 14.2123 12.1375 14.0096 12.1274C13.8172 12.1179 13.5969 12.1159 13.3768 12.1159C13.1566 12.1159 12.7989 12.1981 12.4962 12.5271C12.1936 12.8561 11.3406 13.6511 11.3406 15.2685C11.3406 16.886 12.5238 18.4485 12.6889 18.6679C12.854 18.8872 15.0172 22.2064 18.3295 23.6299C19.1173 23.9684 19.7324 24.1706 20.2119 24.3221C21.003 24.5721 21.7228 24.5369 22.2917 24.4523C22.9261 24.3579 24.2453 23.6573 24.5205 22.8897C24.7956 22.1221 24.7956 21.4641 24.7131 21.3271C24.6306 21.19 24.4104 21.1077 24.0802 20.9432Z" fill="white"/>
</svg>
