<svg width="36" height="37" viewBox="0 0 36 37" fill="none" xmlns="http://www.w3.org/2000/svg">
<path d="M18.6301 28.3345L12.7954 28.2255C10.9063 28.1875 9.01243 28.2633 7.16033 27.8696C4.34285 27.2814 4.14325 24.3974 3.93439 21.9783C3.6466 18.5772 3.75801 15.1145 4.3011 11.7418C4.6077 9.84943 5.81427 8.72022 7.6802 8.59734C13.9791 8.1514 20.3198 8.20425 26.6047 8.4123C27.2685 8.43137 27.9368 8.53561 28.5913 8.65427C31.8221 9.233 31.9009 12.5012 32.1103 15.2525C32.3192 18.0321 32.231 20.826 31.8318 23.5868C31.5115 25.8726 30.8987 27.7894 28.3128 27.9745C25.0727 28.2164 21.9071 28.4112 18.6579 28.3492C18.658 28.3345 18.6394 28.3345 18.6301 28.3345ZM15.1999 22.5475C17.6415 21.1149 20.0366 19.7062 22.4643 18.2831C20.0181 16.8505 17.6276 15.4418 15.1999 14.0187V22.5475Z" fill="white"/>
</svg>
