<svg width="36" height="25" viewBox="0 0 36 25" fill="none" xmlns="http://www.w3.org/2000/svg">
<path d="M18.7833 24.9672L11.5276 24.8316C9.17839 24.7844 6.82331 24.8787 4.52014 24.3892C1.01648 23.6577 0.768269 20.0713 0.508542 17.063C0.150665 12.8336 0.28921 8.52755 0.96457 4.33353C1.34583 1.98024 2.84626 0.576015 5.16662 0.423209C12.9995 -0.131347 20.8845 -0.0656264 28.7001 0.193094C29.5255 0.216812 30.3566 0.346443 31.1705 0.493999C35.1881 1.21367 35.2861 5.27788 35.5465 8.69918C35.8062 12.1558 35.6966 15.6301 35.2002 19.0632C34.8019 21.9057 34.0399 24.2894 30.8241 24.5195C26.795 24.8204 22.8583 25.0627 18.8179 24.9855C18.818 24.9672 18.7948 24.9672 18.7833 24.9672ZM14.5177 17.7709C17.554 15.9893 20.5323 14.2375 23.5512 12.4679C20.5093 10.6864 17.5366 8.93455 14.5177 7.16497V17.7709Z" fill="#FF3951"/>
</svg>
