<svg width="36" height="37" viewBox="0 0 36 37" fill="none" xmlns="http://www.w3.org/2000/svg">
<path d="M18.5699 27.3694L13.2968 27.2708C11.5895 27.2365 9.87794 27.305 8.20411 26.9493C5.65784 26.4177 5.47745 23.8113 5.28869 21.625C5.02861 18.5513 5.12929 15.4219 5.62011 12.3739C5.89719 10.6636 6.98763 9.64311 8.67394 9.53205C14.3665 9.12903 20.0969 9.17679 25.7769 9.36482C26.3767 9.38205 26.9807 9.47626 27.5722 9.5835C30.492 10.1065 30.5632 13.0602 30.7525 15.5466C30.9412 18.0587 30.8616 20.5837 30.5008 23.0786C30.2113 25.1444 29.6576 26.8768 27.3205 27.044C24.3923 27.2627 21.5314 27.4387 18.595 27.3827C18.5951 27.3694 18.5782 27.3694 18.5699 27.3694ZM15.4698 22.1394C17.6764 20.8447 19.8409 19.5716 22.0349 18.2855C19.8242 16.9908 17.6638 15.7177 15.4698 14.4316V22.1394Z" fill="white"/>
</svg>
